{"glyphs":{"0":{"ha":1003,"x_min":21,"x_max":982,"o":"m 21 464 q 53 670 21 575 q 148 835 86 765 q 299 944 210 904 q 504 985 389 985 q 713 947 624 985 q 862 840 801 908 q 952 678 922 772 q 982 469 982 583 q 947 281 982 372 q 848 121 911 190 q 699 10 785 51 q 511 -32 613 -32 q 307 3 397 -32 q 153 103 217 39 q 55 260 89 168 q 21 464 21 351 m 388 378 q 415 290 388 321 q 501 260 443 260 q 549 272 529 260 q 583 305 569 285 q 603 350 597 325 q 610 399 610 375 q 585 469 610 443 q 515 494 560 494 q 423 466 458 494 q 388 378 388 438 z "},"1":{"ha":688,"x_min":42,"x_max":613,"o":"m 611 524 q 612 449 611 493 q 610 354 613 404 q 603 252 608 304 q 585 154 597 200 q 553 74 574 108 q 503 21 533 39 q 450 2 476 6 q 394 -1 424 -1 q 224 51 290 -1 q 158 213 158 103 q 163 265 158 239 q 173 360 169 313 q 176 456 176 407 q 171 556 176 506 q 149 654 165 606 q 116 660 135 657 q 81 671 97 664 q 53 690 64 678 q 42 722 42 701 q 53 756 42 738 q 219 920 119 861 q 446 979 319 979 q 540 942 507 979 q 589 853 574 906 q 608 742 604 800 q 611 640 611 683 l 611 524 z "},"2":{"ha":978,"x_min":25,"x_max":950,"o":"m 800 311 q 859 299 832 311 q 906 267 886 288 q 938 219 926 246 q 950 160 950 192 q 910 56 950 92 q 813 6 871 21 q 692 -11 756 -10 q 582 -12 629 -12 q 475 -13 535 -12 q 353 -9 415 -14 q 233 10 292 -4 q 128 51 174 24 q 53 124 82 79 q 25 238 25 169 q 60 352 25 306 q 147 431 94 399 q 259 483 199 463 q 372 518 319 503 q 458 547 424 533 q 493 581 493 561 q 486 608 493 597 q 460 619 479 619 q 402 606 431 619 q 344 574 374 592 q 283 543 315 557 q 215 529 251 529 q 140 547 174 529 q 81 595 106 565 q 42 663 56 625 q 28 739 28 700 q 58 843 28 794 q 137 914 83 883 q 254 965 190 944 q 382 997 318 986 q 489 1007 446 1007 q 638 987 567 1007 q 765 926 710 967 q 852 822 819 885 q 885 672 885 758 q 850 519 885 579 q 759 420 815 458 q 632 359 703 382 q 488 318 561 336 q 475 315 483 317 q 458 309 467 313 q 443 302 450 306 q 436 294 436 299 q 450 286 436 288 q 468 285 464 285 q 634 298 551 285 q 800 311 717 311 z "},"3":{"ha":929,"x_min":18,"x_max":910,"o":"m 503 615 q 497 633 503 625 q 481 642 492 642 q 430 624 458 642 q 367 584 401 606 q 295 544 333 563 q 215 526 257 526 q 144 542 176 526 q 88 585 111 558 q 51 647 64 613 q 38 719 38 682 q 84 860 38 806 q 201 946 131 914 q 351 990 271 978 q 497 1001 431 1001 q 629 994 560 1001 q 757 960 699 986 q 854 887 815 935 q 893 758 893 839 q 876 670 893 713 q 829 594 858 628 q 761 538 800 561 q 678 504 722 514 q 772 487 729 504 q 846 439 815 469 q 893 365 876 408 q 910 271 910 322 q 877 136 910 193 q 791 42 844 79 q 671 -12 738 6 q 535 -29 604 -29 q 444 -24 497 -29 q 333 -8 390 -19 q 219 22 275 3 q 118 70 163 42 q 46 138 74 99 q 18 228 18 176 q 22 276 18 251 q 37 319 26 300 q 66 349 47 338 q 114 361 85 361 q 160 354 136 361 q 207 338 183 347 q 253 319 231 329 q 297 301 276 308 q 449 276 371 276 q 475 278 461 276 q 501 284 489 279 q 520 298 513 289 q 528 324 528 307 q 508 366 528 353 q 460 384 489 379 q 398 390 432 389 q 335 394 364 390 q 288 411 307 399 q 268 451 268 424 q 278 494 268 479 q 313 519 288 510 q 358 533 326 525 q 422 553 389 542 q 478 581 454 565 q 503 615 503 596 z "},"4":{"ha":913,"x_min":15,"x_max":882,"o":"m 882 522 q 882 449 882 493 q 879 355 882 406 q 871 253 876 304 q 853 155 865 201 q 823 73 842 108 q 776 21 804 38 q 726 2 751 6 q 674 -1 701 -1 q 524 39 576 -1 q 471 182 471 79 q 464 194 471 190 q 448 201 457 199 q 430 203 439 203 q 415 203 421 203 q 342 201 379 203 q 267 199 304 199 q 176 205 221 199 q 95 230 131 211 q 38 283 60 249 q 15 374 15 318 q 26 470 15 422 q 44 567 38 518 q 63 689 53 619 q 97 819 74 758 q 165 923 121 881 q 281 965 208 965 q 356 951 325 965 q 407 911 388 936 q 435 851 426 886 q 444 775 444 817 q 434 663 444 718 q 407 556 424 608 q 391 501 399 528 q 383 446 383 474 q 394 409 383 422 q 429 396 404 396 q 468 431 458 396 q 479 522 478 467 q 480 644 481 578 q 487 772 479 710 q 517 884 494 835 q 585 954 539 933 q 626 965 604 963 q 668 968 647 968 q 718 965 693 968 q 765 947 743 963 q 831 867 807 919 q 866 752 854 814 q 880 628 878 690 q 882 522 882 567 z "},"5":{"ha":938,"x_min":18,"x_max":918,"o":"m 532 1003 q 648 997 585 1003 q 766 969 711 990 q 858 907 821 949 q 894 794 894 865 q 879 717 894 753 q 838 655 864 681 q 775 615 811 629 q 697 600 739 600 q 632 607 664 600 q 568 622 600 614 q 504 636 536 629 q 439 643 472 643 q 400 638 415 643 q 385 604 385 632 q 398 589 385 593 q 429 585 411 585 q 465 587 447 585 q 489 589 482 589 q 643 576 567 589 q 781 528 719 563 q 880 435 842 494 q 918 282 918 375 q 885 141 918 200 q 799 44 853 82 q 677 -11 746 7 q 535 -29 608 -29 q 444 -24 497 -29 q 333 -8 390 -19 q 219 22 275 3 q 118 70 163 42 q 46 138 74 99 q 18 228 18 176 q 22 276 18 251 q 37 319 26 300 q 66 349 47 338 q 114 361 85 361 q 181 348 146 361 q 256 319 217 335 q 340 291 296 304 q 431 278 383 278 q 459 281 444 278 q 486 291 474 283 q 506 310 499 299 q 514 338 514 321 q 491 388 514 372 q 435 409 468 404 q 369 413 403 414 q 313 411 335 411 q 134 460 197 411 q 71 632 71 510 q 107 813 71 742 q 206 927 143 885 q 352 986 268 969 q 532 1003 436 1003 z "},"6":{"ha":940,"x_min":21,"x_max":919,"o":"m 564 989 q 668 979 608 989 q 781 946 728 969 q 870 884 833 922 q 907 788 907 846 q 861 661 907 708 q 735 614 815 614 q 671 621 703 614 q 608 635 639 628 q 545 650 576 643 q 481 657 514 657 q 435 653 458 657 q 395 638 413 649 q 367 610 378 628 q 356 565 356 593 q 356 558 356 561 q 357 550 357 554 q 405 574 376 564 q 464 589 433 583 q 525 597 494 594 q 579 599 556 599 q 708 582 646 599 q 816 531 769 565 q 891 442 863 496 q 919 315 919 389 q 886 169 919 232 q 798 66 853 107 q 672 4 743 25 q 525 -17 600 -17 q 302 10 397 -17 q 144 94 207 36 q 51 245 82 153 q 21 468 21 338 q 26 569 21 518 q 49 669 31 621 q 131 810 78 750 q 254 909 185 869 q 403 969 324 949 q 564 989 483 989 m 489 222 q 545 239 521 222 q 569 292 569 256 q 549 335 569 321 q 500 350 528 350 q 469 347 486 350 q 439 337 453 344 q 415 317 425 329 q 406 288 406 306 q 433 238 406 254 q 489 222 460 222 z "},"7":{"ha":853,"x_min":19,"x_max":836,"o":"m 836 733 q 828 664 836 697 q 774 509 811 583 q 703 360 736 435 q 674 287 688 325 q 645 211 660 249 q 613 138 631 174 q 574 72 596 101 q 501 15 544 33 q 408 -3 457 -3 q 325 15 363 -3 q 260 63 288 32 q 218 133 233 93 q 203 215 203 172 q 226 317 203 269 q 283 405 249 364 q 358 479 318 446 q 432 538 397 513 q 490 581 467 564 q 513 606 513 597 q 502 610 513 610 q 489 611 492 611 q 419 606 454 611 q 350 592 385 600 q 281 579 315 585 q 211 574 247 574 q 135 588 171 574 q 74 626 100 601 q 34 684 49 650 q 19 760 19 718 q 57 870 19 828 q 151 937 94 913 q 271 969 207 961 q 388 978 335 978 q 481 972 425 978 q 594 954 538 967 q 701 922 651 942 q 778 875 751 903 q 821 810 806 844 q 836 733 836 775 z "},"8":{"ha":1017,"x_min":24,"x_max":992,"o":"m 979 653 q 963 541 979 594 q 892 456 946 488 q 944 424 924 444 q 974 376 964 403 q 988 318 985 349 q 992 258 992 288 q 969 144 992 192 q 910 66 947 97 q 822 17 872 35 q 718 -10 772 -1 q 608 -22 664 -19 q 503 -25 553 -25 q 399 -21 454 -25 q 292 -6 344 -17 q 190 26 239 6 q 105 79 142 47 q 46 158 68 111 q 24 268 24 204 q 31 331 24 300 q 53 387 38 361 q 93 431 69 413 q 150 458 117 450 q 72 550 96 494 q 49 668 49 606 q 88 844 49 779 q 190 942 126 908 q 338 985 254 975 q 511 994 422 994 q 681 980 597 994 q 831 926 765 965 q 938 822 897 888 q 979 653 979 756 m 504 618 q 446 600 468 618 q 424 544 424 582 q 442 499 424 517 q 488 481 460 481 q 517 485 501 481 q 547 497 533 489 q 570 518 561 506 q 579 547 579 531 q 557 599 579 579 q 504 618 535 618 m 439 232 q 463 195 439 206 q 510 185 488 185 q 558 197 533 185 q 582 236 582 208 q 560 273 582 263 q 515 283 538 283 q 465 273 490 283 q 439 232 439 263 z "},"9":{"ha":949,"x_min":19,"x_max":928,"o":"m 928 469 q 906 292 928 376 q 837 142 883 208 q 719 31 790 75 q 547 -22 647 -12 q 487 -26 517 -25 q 426 -28 457 -28 q 320 -22 383 -28 q 197 3 257 -15 q 95 58 138 22 q 53 151 53 93 q 86 246 53 215 q 182 276 119 276 q 258 269 221 276 q 333 252 296 261 q 408 235 371 243 q 485 228 446 228 q 529 231 507 228 q 569 244 551 235 q 597 272 586 254 q 608 315 608 289 q 607 332 608 326 q 562 306 589 317 q 506 290 535 296 q 447 281 476 283 q 394 278 418 278 q 316 286 354 278 q 240 306 278 294 q 19 610 19 375 q 55 782 19 713 q 151 894 90 851 q 292 956 211 938 q 464 975 372 975 q 674 940 586 975 q 819 838 763 904 q 901 679 875 772 q 928 469 928 586 m 497 603 q 438 575 457 603 q 418 511 418 547 q 435 458 418 479 q 486 436 453 436 q 551 456 519 436 q 582 514 582 476 q 558 576 582 550 q 497 603 535 603 z "},"\u0000":{"ha":0,"x_min":0,"x_max":0,"o":""},"\r":{"ha":347,"x_min":0,"x_max":0,"o":""}," ":{"ha":347,"x_min":0,"x_max":0,"o":""},"!":{"ha":517,"x_min":26,"x_max":497,"o":"m 247 275 q 226 277 236 275 q 207 286 217 279 q 163 345 185 304 q 120 440 140 386 q 83 556 100 494 q 53 677 65 618 q 33 785 40 736 q 26 864 26 835 q 56 945 26 917 q 129 988 86 974 q 221 1003 172 1001 q 308 1006 269 1006 q 375 1001 342 1006 q 435 985 408 997 q 480 947 463 972 q 497 881 497 922 q 492 814 497 847 q 482 747 486 781 q 470 669 478 717 q 451 570 463 622 q 421 465 439 518 q 378 370 403 413 q 322 301 354 328 q 247 275 289 275 m 117 115 q 131 162 117 142 q 165 195 144 182 q 211 215 186 208 q 258 222 236 222 q 313 217 286 222 q 359 200 339 213 q 391 167 379 188 q 403 113 403 146 q 365 15 403 51 q 267 -21 326 -21 q 160 14 204 -21 q 117 115 117 49 z "},"\"":{"ha":540,"x_min":15,"x_max":525,"o":"m 15 868 q 22 922 15 896 q 42 969 28 949 q 78 1003 56 990 q 131 1015 100 1015 q 215 981 188 1015 q 242 894 242 947 q 231 765 242 832 q 207 636 221 699 q 153 593 197 593 q 91 626 117 593 q 49 705 65 660 q 24 796 32 750 q 15 868 15 842 m 389 585 q 347 594 365 585 q 324 629 329 604 q 301 756 311 690 q 290 883 290 821 q 408 1001 290 1001 q 496 968 467 1001 q 525 879 525 935 q 506 752 525 817 q 463 629 486 688 q 433 595 453 606 q 389 585 413 585 z "},"#":{"ha":979,"x_min":14,"x_max":960,"o":"m 156 219 q 117 226 142 221 q 70 239 93 231 q 31 260 47 247 q 14 292 14 274 q 38 331 14 315 q 93 358 61 347 q 158 373 125 368 q 207 379 190 378 q 235 463 222 421 q 260 546 247 504 q 213 549 244 546 q 149 560 181 551 q 93 582 117 568 q 69 618 69 596 q 99 662 69 644 q 169 690 129 679 q 249 705 210 700 q 308 711 289 710 q 333 782 317 738 q 374 869 350 826 q 428 942 399 911 q 490 972 457 972 q 522 962 510 972 q 540 937 533 951 q 550 905 547 922 q 553 872 553 888 q 540 794 553 832 q 517 719 528 757 q 582 722 549 721 q 647 722 615 722 l 674 804 q 698 858 682 828 q 736 913 714 888 q 785 957 758 939 q 839 975 811 975 q 881 948 871 975 q 892 894 892 921 q 880 804 892 849 q 853 717 868 760 l 851 715 l 851 713 l 850 711 q 884 702 865 708 q 919 685 903 696 q 948 661 936 675 q 960 629 960 647 q 941 588 960 604 q 896 562 922 572 q 841 547 869 551 q 794 540 813 542 q 772 459 782 500 q 750 378 761 418 q 799 373 771 378 q 851 358 826 368 q 894 329 876 347 q 911 285 911 311 q 885 238 911 254 q 825 215 860 222 q 755 206 790 207 q 699 204 719 204 q 674 140 686 172 q 644 78 661 108 q 606 22 628 47 q 554 -24 585 -4 q 533 -35 544 -31 q 511 -39 522 -39 q 486 -31 496 -39 q 472 -10 476 -22 q 465 17 467 3 q 464 43 464 31 q 473 124 464 83 q 493 203 482 164 l 361 207 q 338 150 353 186 q 303 80 324 114 q 258 21 282 46 q 206 -4 233 -4 q 174 9 186 -4 q 154 41 161 22 q 144 81 147 60 q 142 115 142 101 q 145 167 142 142 q 156 219 149 193 m 421 383 q 483 383 453 383 q 546 382 514 383 q 568 458 557 421 q 590 535 579 496 q 526 535 558 535 q 463 536 494 535 q 442 460 451 499 q 421 383 432 422 z "},"$":{"ha":861,"x_min":25,"x_max":836,"o":"m 426 1046 q 473 1033 453 1046 q 507 1001 493 1021 q 528 957 521 981 q 536 910 536 933 q 622 890 572 904 q 716 852 671 875 q 793 795 761 829 q 825 715 825 761 q 813 667 825 688 q 781 633 800 646 q 737 613 761 619 q 688 607 713 607 q 606 619 646 607 q 525 643 565 631 q 524 605 524 624 q 522 567 524 586 q 635 523 579 550 q 736 456 692 496 q 808 365 781 417 q 836 246 836 313 q 808 128 836 174 q 733 56 779 82 q 628 18 686 29 q 510 4 569 7 q 510 -41 510 -19 q 511 -86 511 -62 q 483 -162 511 -131 q 410 -193 456 -193 q 363 -182 381 -193 q 335 -153 344 -171 q 323 -113 326 -136 q 319 -67 319 -90 q 320 -28 319 -47 q 322 11 321 -8 q 227 35 279 18 q 131 78 175 51 q 56 145 86 106 q 25 238 25 185 q 48 317 25 282 q 119 351 71 351 q 163 343 135 351 q 223 323 192 335 q 284 300 254 311 q 331 283 314 289 l 333 392 q 224 428 278 407 q 129 483 171 450 q 62 562 88 515 q 36 675 36 608 q 61 797 36 749 q 129 874 86 846 q 230 914 172 903 q 351 925 288 925 q 353 966 351 944 q 363 1006 356 988 q 386 1035 371 1024 q 426 1046 401 1046 m 344 686 q 333 688 338 688 q 321 688 328 688 q 288 683 304 688 q 271 657 271 678 q 279 640 271 647 q 299 626 288 632 q 323 616 311 619 q 342 610 335 613 l 344 686 m 513 232 q 567 226 536 226 q 597 231 582 226 q 613 256 613 236 q 601 281 613 269 q 574 303 590 293 q 542 322 558 314 q 515 333 526 329 q 514 283 514 308 q 513 232 514 257 z "},"%":{"ha":1181,"x_min":25,"x_max":1157,"o":"m 875 213 q 892 164 875 181 q 942 147 910 147 q 994 170 976 147 q 1011 225 1011 193 q 995 266 1011 253 q 953 279 979 279 q 898 263 921 279 q 875 213 875 247 m 236 726 q 253 678 236 694 q 303 661 271 661 q 355 684 338 661 q 372 739 372 707 q 356 780 372 767 q 314 793 340 793 q 259 777 282 793 q 236 726 236 761 m 25 739 q 42 842 25 796 q 92 924 60 889 q 171 977 125 958 q 274 996 217 996 q 454 927 390 996 q 518 744 518 858 q 499 648 518 693 q 447 569 481 603 q 369 515 414 535 q 274 496 325 496 q 172 513 218 496 q 94 561 126 529 q 43 638 61 593 q 25 739 25 683 m 867 975 q 931 947 906 975 q 956 881 956 918 q 933 814 956 844 q 847 688 890 750 q 760 560 803 625 q 606 326 682 443 q 450 94 531 210 q 387 31 424 58 q 303 3 350 3 q 239 24 265 3 q 213 86 213 46 q 219 126 213 107 q 238 163 226 144 q 307 271 269 218 q 381 376 344 324 q 551 624 467 501 q 721 872 635 747 q 749 909 733 890 q 782 942 764 928 q 822 966 800 957 q 867 975 843 975 m 664 225 q 681 328 664 282 q 731 410 699 375 q 810 463 764 444 q 913 482 856 482 q 1093 413 1029 482 q 1157 231 1157 344 q 1139 136 1157 181 q 1088 57 1121 92 q 1012 2 1056 22 q 918 -18 968 -18 q 734 44 804 -18 q 664 225 664 107 z "},"&":{"ha":940,"x_min":21,"x_max":921,"o":"m 132 721 q 148 830 132 779 q 199 918 164 881 q 292 977 235 956 q 431 999 349 999 q 674 940 594 999 q 753 763 753 881 q 722 663 753 710 q 653 580 690 617 q 584 519 615 543 q 553 489 553 496 q 567 458 553 475 q 602 425 582 440 q 644 397 622 410 q 678 379 665 385 q 703 397 690 383 q 731 426 715 411 q 764 452 746 440 q 804 464 782 464 q 842 455 824 464 q 876 431 861 446 q 900 397 890 415 q 910 360 910 379 q 899 326 910 343 q 872 291 888 308 q 839 258 856 274 q 811 231 822 243 q 819 227 815 228 q 826 224 822 226 q 860 202 843 217 q 891 169 878 188 q 913 131 904 151 q 921 90 921 111 q 913 58 921 76 q 891 23 904 39 q 862 -4 878 7 q 831 -15 846 -15 q 752 -5 788 -15 q 691 19 717 6 q 649 42 665 32 q 625 53 632 53 q 605 42 622 53 q 556 17 588 31 q 479 -7 525 4 q 372 -18 433 -18 q 245 -1 308 -18 q 132 51 182 15 q 51 140 82 86 q 21 269 21 194 q 48 362 21 322 q 108 430 75 401 q 169 477 142 458 q 196 507 196 496 q 189 526 196 515 q 146 619 160 574 q 132 721 132 664 m 454 653 q 496 672 478 653 q 514 715 514 692 q 500 760 514 740 q 458 779 486 779 q 418 765 435 779 q 401 728 401 751 q 414 678 401 703 q 454 653 426 653 m 388 160 q 415 166 400 160 q 442 182 429 172 q 463 204 454 192 q 471 231 471 217 q 461 264 471 246 q 437 298 451 282 q 405 325 422 314 q 372 336 388 336 q 345 331 360 336 q 318 317 331 326 q 297 293 306 307 q 289 260 289 279 q 319 183 289 206 q 388 160 349 160 z "},"'":{"ha":274,"x_min":17,"x_max":258,"o":"m 17 865 q 23 923 17 896 q 44 971 29 950 q 81 1003 58 992 q 139 1015 104 1015 q 258 893 258 1015 q 247 760 258 828 q 224 629 236 693 q 203 596 218 606 q 164 586 188 586 q 118 597 140 586 q 77 643 96 608 q 45 719 58 678 q 24 801 32 761 q 17 865 17 842 z "},"(":{"ha":453,"x_min":19,"x_max":435,"o":"m 350 1008 q 406 993 382 1008 q 431 942 431 978 q 415 885 431 918 q 377 816 399 851 q 335 747 356 781 q 303 688 314 713 q 269 576 279 633 q 260 460 260 518 q 285 266 260 361 q 356 83 311 171 q 379 42 365 64 q 406 -2 393 21 q 426 -48 418 -25 q 435 -93 435 -71 q 405 -158 435 -136 q 335 -179 375 -179 q 236 -144 281 -179 q 156 -51 192 -108 q 95 76 121 6 q 53 217 69 146 q 28 351 36 288 q 19 456 19 414 q 23 535 19 496 q 36 613 26 574 q 74 735 49 667 q 140 865 100 804 q 231 967 179 925 q 350 1008 283 1008 z "},")":{"ha":454,"x_min":19,"x_max":435,"o":"m 435 456 q 426 351 435 414 q 401 217 418 288 q 359 76 385 146 q 298 -51 333 6 q 218 -144 263 -108 q 119 -179 174 -179 q 49 -158 79 -179 q 19 -93 19 -136 q 28 -48 19 -71 q 50 -2 38 -25 q 76 42 63 21 q 100 83 90 64 q 169 266 144 169 q 194 460 194 363 q 185 576 194 518 q 151 688 175 633 q 120 747 142 713 q 77 816 99 781 q 40 885 56 851 q 24 942 24 918 q 48 993 24 978 q 104 1008 72 1008 q 222 967 169 1008 q 315 864 275 925 q 382 735 356 803 q 419 613 408 667 q 431 535 428 574 q 435 456 435 496 z "},"*":{"ha":835,"x_min":10,"x_max":825,"o":"m 318 418 q 286 383 303 403 q 251 347 269 364 q 211 317 232 329 q 165 306 190 306 q 116 328 133 306 q 99 381 99 351 q 112 426 99 403 q 143 471 125 449 q 182 513 161 493 q 217 546 203 532 q 178 545 197 546 q 140 544 160 544 q 97 548 119 544 q 54 561 74 551 q 22 588 35 571 q 10 629 10 604 q 33 688 10 669 q 90 711 57 706 q 160 715 124 717 q 222 713 197 713 q 188 747 207 728 q 153 786 169 765 q 127 830 138 807 q 117 876 117 853 q 137 927 117 908 q 188 946 157 946 q 227 935 208 946 q 262 908 246 924 q 292 874 278 892 q 319 842 307 856 q 319 873 319 857 q 318 904 318 889 q 321 949 318 925 q 332 991 324 972 q 356 1022 340 1010 q 399 1035 372 1035 q 451 1011 435 1035 q 475 954 468 988 q 481 885 482 921 q 481 826 481 850 q 514 865 494 842 q 556 909 533 888 q 601 947 578 931 q 644 963 624 963 q 697 939 676 963 q 718 885 718 915 q 705 842 718 867 q 674 794 692 818 q 635 747 656 769 q 603 711 615 725 l 732 711 q 798 688 771 711 q 825 625 825 665 q 809 576 825 593 q 770 551 793 558 q 720 543 747 544 q 669 540 693 542 q 635 539 653 539 q 601 542 618 539 q 639 505 617 526 q 681 460 661 483 q 716 412 701 436 q 731 364 731 388 q 710 308 731 332 q 657 283 690 283 q 610 301 636 283 q 559 342 585 318 q 510 390 533 365 q 474 429 488 415 q 474 377 474 403 q 475 325 475 351 q 472 284 475 307 q 459 240 468 261 q 435 206 450 219 q 396 192 419 192 q 340 219 357 192 q 319 284 324 247 q 316 359 314 321 q 318 418 318 397 z "},"+":{"ha":724,"x_min":17,"x_max":706,"o":"m 253 618 q 260 689 254 646 q 281 772 267 732 q 321 841 296 813 q 383 869 346 869 q 443 840 422 869 q 474 768 464 810 q 485 683 483 726 q 486 614 486 640 q 535 610 510 611 q 584 606 560 610 q 631 594 608 603 q 671 569 653 586 q 696 538 686 556 q 706 499 706 519 q 691 449 706 471 q 657 411 676 426 q 571 376 617 379 q 476 372 525 372 q 472 313 474 344 q 465 251 469 282 q 452 191 461 219 q 426 139 443 163 q 396 109 414 122 q 356 96 378 96 q 304 110 325 96 q 270 149 283 125 q 250 204 257 174 q 240 266 243 235 q 238 326 238 297 q 239 375 238 354 q 172 381 210 375 q 99 402 133 388 q 40 442 64 417 q 17 504 17 467 q 43 567 17 546 q 106 599 69 589 q 183 613 143 610 q 253 618 224 615 z "},",":{"ha":442,"x_min":36,"x_max":415,"o":"m 226 336 q 299 322 264 336 q 359 283 333 308 q 400 224 385 258 q 415 147 415 189 q 414 133 415 140 q 411 119 413 126 q 312 -56 386 7 q 122 -119 238 -119 q 99 -118 113 -119 q 74 -112 86 -117 q 55 -101 63 -108 q 47 -81 47 -93 q 61 -39 47 -60 q 92 -1 75 -18 q 125 28 110 15 q 142 46 140 40 q 113 61 131 54 q 78 81 94 68 q 49 119 61 94 q 36 189 36 144 q 53 256 36 228 q 98 301 71 283 q 159 328 125 319 q 226 336 193 336 z "},"-":{"ha":597,"x_min":17,"x_max":581,"o":"m 17 592 q 48 663 17 638 q 123 699 79 688 q 214 713 167 711 q 293 715 261 715 q 376 713 326 715 q 471 699 425 711 q 549 660 517 686 q 581 586 581 635 q 558 515 581 542 q 501 472 535 488 q 427 452 467 457 q 354 447 388 447 q 259 450 317 447 q 148 466 201 453 q 56 508 94 479 q 17 592 17 538 z "},".":{"ha":479,"x_min":33,"x_max":428,"o":"m 33 186 q 51 253 33 224 q 98 303 69 283 q 161 335 126 324 q 229 346 196 346 q 307 338 271 346 q 370 309 343 329 q 413 257 397 289 q 428 179 428 225 q 415 101 428 138 q 379 37 403 64 q 321 -6 356 10 q 242 -21 286 -21 q 90 35 147 -21 q 33 186 33 90 z "},"/":{"ha":656,"x_min":22,"x_max":642,"o":"m 540 996 q 611 968 581 996 q 642 900 642 940 q 638 876 642 888 q 629 853 635 864 q 554 687 592 769 q 481 521 517 604 q 383 289 432 404 q 282 60 335 174 q 217 -27 258 10 q 117 -64 175 -64 q 49 -40 76 -64 q 22 26 22 -15 q 45 105 22 44 q 104 249 68 165 q 183 427 140 332 q 267 609 226 522 q 340 765 307 696 q 385 863 372 833 q 410 910 396 886 q 444 953 425 935 q 487 984 463 972 q 540 996 511 996 z "},":":{"ha":307,"x_min":21,"x_max":286,"o":"m 286 650 q 274 606 286 625 q 244 574 263 588 q 203 553 225 560 q 158 546 181 546 q 67 569 106 546 q 29 651 29 592 q 60 747 29 708 q 150 785 90 785 q 249 749 213 785 q 286 650 286 713 m 21 114 q 33 158 21 139 q 63 190 44 176 q 104 211 82 204 q 149 218 126 218 q 240 194 203 218 q 278 110 278 171 q 247 17 278 54 q 157 -21 215 -21 q 58 15 94 -21 q 21 114 21 51 z "},";":{"ha":336,"x_min":21,"x_max":317,"o":"m 299 643 q 287 597 299 618 q 256 562 275 576 q 213 540 236 547 q 165 532 189 532 q 68 556 107 532 q 29 646 29 581 q 63 745 29 706 q 158 785 96 785 q 260 746 222 785 q 299 643 299 707 m 158 258 q 216 250 188 258 q 267 225 244 242 q 303 183 289 208 q 317 125 317 158 q 314 103 317 117 q 236 -34 294 15 q 88 -83 178 -83 q 69 -83 79 -83 q 51 -78 60 -82 q 35 -69 42 -75 q 29 -53 29 -64 q 48 -19 29 -36 q 89 13 67 -1 q 130 40 111 28 q 150 56 149 51 q 120 66 142 63 q 77 78 99 69 q 38 105 56 88 q 21 157 21 122 q 33 207 21 188 q 64 238 44 226 q 108 254 83 250 q 158 258 132 258 z "},"<":{"ha":575,"x_min":21,"x_max":554,"o":"m 531 171 q 527 135 531 153 q 515 103 524 117 q 492 81 507 89 q 456 72 478 72 q 359 93 417 72 q 244 145 301 114 q 137 213 186 176 q 65 282 88 250 q 21 426 21 347 q 58 560 21 504 q 151 657 94 617 q 276 723 207 697 q 407 767 344 749 q 449 774 431 774 q 497 762 476 774 q 529 731 517 750 q 548 687 542 711 q 554 639 554 663 q 540 558 554 592 q 499 501 525 525 q 439 463 474 478 q 364 435 404 447 q 342 429 358 433 q 308 419 326 425 q 276 409 290 414 q 263 400 263 404 q 270 390 263 393 q 282 386 278 388 q 369 358 325 374 q 449 320 413 343 q 508 261 485 297 q 531 171 531 225 z "},"=":{"ha":776,"x_min":28,"x_max":744,"o":"m 256 528 q 185 534 225 528 q 110 556 146 540 q 51 599 75 572 q 28 665 28 625 q 42 714 28 693 q 78 750 56 735 q 156 775 101 767 q 274 787 211 783 q 397 791 338 790 q 489 792 456 792 q 565 790 521 792 q 649 776 610 788 q 717 739 689 764 q 744 668 744 714 q 730 617 744 640 q 696 575 715 593 q 648 548 674 557 q 594 536 622 539 q 538 533 567 533 q 483 532 510 533 q 256 528 369 528 m 29 317 q 56 372 29 350 q 126 406 83 393 q 223 424 169 418 q 327 431 276 429 q 421 431 378 432 q 488 431 464 431 q 563 428 521 431 q 642 413 604 425 q 705 374 679 400 q 731 303 731 349 q 708 229 731 256 q 651 190 685 203 q 576 175 617 178 q 500 172 536 172 l 407 172 q 346 174 383 172 q 267 179 308 175 q 183 192 225 183 q 106 218 140 201 q 51 258 72 235 q 29 317 29 282 z "},">":{"ha":571,"x_min":18,"x_max":551,"o":"m 310 414 q 296 423 310 418 q 265 433 282 428 q 231 443 247 439 q 210 449 215 447 q 136 475 171 460 q 75 513 101 490 q 33 568 49 536 q 18 646 18 600 q 24 692 18 669 q 44 733 31 715 q 76 763 57 751 q 122 774 96 774 q 165 767 142 774 q 297 722 228 749 q 422 656 365 696 q 515 561 478 617 q 551 426 551 506 q 508 282 551 347 q 438 213 488 250 q 329 145 388 176 q 213 93 271 114 q 117 72 154 72 q 80 82 94 72 q 57 106 65 92 q 45 140 49 121 q 42 178 42 160 q 74 289 42 249 q 168 358 106 329 q 199 370 176 363 q 247 386 222 378 q 291 402 272 394 q 310 414 310 410 z "},"?":{"ha":876,"x_min":21,"x_max":857,"o":"m 363 256 q 253 290 292 256 q 215 397 215 324 q 235 472 215 442 q 285 522 256 501 q 351 557 315 543 q 416 583 386 571 q 466 606 446 594 q 486 636 486 618 q 479 664 486 653 q 453 675 472 675 q 394 660 424 675 q 335 628 365 646 q 272 597 304 611 q 201 582 239 582 q 131 598 164 582 q 73 641 97 614 q 35 702 49 668 q 21 774 21 736 q 51 874 21 825 q 131 942 76 913 q 248 993 185 972 q 375 1024 311 1014 q 482 1035 439 1035 q 618 1019 551 1035 q 738 970 685 1004 q 824 881 792 936 q 857 747 857 826 q 842 640 857 686 q 800 560 828 594 q 731 499 772 525 q 636 451 690 472 q 578 433 610 442 q 524 414 547 425 q 513 399 515 410 q 509 376 510 389 q 508 352 508 364 q 506 332 508 340 q 484 297 500 311 q 447 273 468 282 q 404 260 426 264 q 363 256 382 256 m 249 115 q 263 162 249 142 q 297 195 276 182 q 343 215 318 208 q 390 222 368 222 q 444 217 418 222 q 491 200 471 213 q 523 167 511 188 q 535 113 535 146 q 497 15 535 51 q 399 -21 458 -21 q 292 14 336 -21 q 249 115 249 49 z "},"@":{"ha":1247,"x_min":24,"x_max":1228,"o":"m 911 472 q 921 423 911 447 q 961 399 931 399 q 998 414 983 399 q 1021 451 1013 429 q 1033 496 1029 472 q 1036 536 1036 519 q 1015 645 1036 597 q 958 726 994 693 q 872 777 922 760 q 764 794 822 794 q 584 766 664 794 q 449 683 504 738 q 363 551 393 629 q 333 371 333 472 q 408 173 333 240 q 610 106 482 106 q 728 122 665 106 q 840 163 790 139 q 867 176 851 168 q 897 193 882 185 q 928 207 913 201 q 956 213 943 213 q 1009 191 985 213 q 1033 139 1033 169 q 1019 93 1033 113 q 986 58 1006 74 q 888 -2 940 21 q 780 -37 836 -25 q 666 -55 724 -50 q 551 -60 608 -60 q 433 -50 490 -60 q 321 -15 376 -40 q 202 59 257 14 q 108 161 147 104 q 46 285 68 218 q 24 424 24 351 q 81 684 24 572 q 233 872 138 796 q 454 987 329 949 q 717 1025 579 1025 q 921 990 828 1025 q 1083 892 1014 956 q 1190 737 1151 828 q 1228 533 1228 646 q 1213 419 1228 474 q 1165 322 1197 364 q 1085 256 1133 281 q 969 231 1036 231 q 874 248 921 231 q 796 304 828 265 q 717 217 767 249 q 606 185 668 185 q 473 236 519 185 q 426 371 426 288 q 453 514 426 449 q 529 626 481 579 q 644 698 578 672 q 786 724 710 724 q 834 722 807 724 q 885 711 861 719 q 924 686 908 703 q 940 640 940 669 q 935 599 940 619 q 926 557 931 578 q 916 515 921 536 q 911 472 911 494 m 801 488 q 758 529 801 529 q 732 522 744 529 q 710 503 719 515 q 696 478 701 492 q 690 451 690 464 q 703 420 690 432 q 735 408 715 408 q 786 432 771 408 q 801 488 801 456 z "},"A":{"ha":946,"x_min":21,"x_max":919,"o":"m 481 972 q 658 928 585 972 q 781 814 732 885 q 857 655 829 743 q 899 479 885 567 q 916 312 913 392 q 919 179 919 232 q 903 110 919 142 q 860 56 888 78 q 799 21 833 33 q 729 8 765 8 q 660 15 688 8 q 617 33 632 21 q 595 66 601 46 q 589 114 589 86 q 574 185 589 163 q 501 208 560 208 q 452 194 472 208 q 419 158 432 181 q 395 106 406 135 q 374 46 385 76 q 350 -2 364 17 q 317 -32 336 -21 q 269 -47 297 -43 q 199 -51 240 -51 q 129 -34 161 -51 q 73 10 97 -17 q 35 73 49 38 q 21 143 21 108 q 26 292 21 207 q 47 470 31 378 q 94 653 64 563 q 176 814 125 743 q 301 928 226 885 q 481 972 376 972 m 433 468 q 436 426 433 449 q 445 385 439 404 q 463 354 451 367 q 490 342 474 342 q 542 365 522 342 q 561 438 561 389 q 558 490 561 463 q 545 541 554 518 q 522 579 536 564 q 486 594 507 594 q 458 582 468 594 q 442 551 447 569 q 435 510 436 532 q 433 468 433 488 z "},"B":{"ha":900,"x_min":26,"x_max":865,"o":"m 26 481 q 124 847 26 721 q 436 972 222 972 q 578 964 507 972 q 705 932 649 956 q 796 866 761 908 q 831 757 831 824 q 780 607 831 667 q 640 533 729 547 q 743 515 700 528 q 813 476 786 501 q 853 410 840 451 q 865 308 865 369 q 832 137 865 203 q 741 34 799 71 q 607 -15 683 -3 q 443 -28 531 -28 q 254 14 333 -28 q 124 126 175 56 q 50 288 74 196 q 26 481 26 381 m 378 646 q 399 600 378 618 q 447 582 421 582 q 492 601 475 582 q 510 647 510 621 q 450 707 510 707 q 399 693 419 707 q 378 646 378 679 m 489 174 q 560 246 560 174 q 535 312 560 288 q 468 336 510 336 q 416 319 435 336 q 397 268 397 303 q 422 201 397 228 q 489 174 447 174 z "},"C":{"ha":1051,"x_min":21,"x_max":1029,"o":"m 575 953 q 699 938 629 953 q 832 890 769 922 q 937 809 894 858 q 979 693 979 760 q 969 640 979 667 q 942 592 960 614 q 899 557 924 571 q 847 543 875 543 q 800 553 824 543 q 751 576 776 564 q 699 598 726 588 q 642 608 672 608 q 558 592 597 608 q 491 547 519 575 q 447 479 463 518 q 431 396 431 440 q 440 333 431 363 q 469 283 450 304 q 515 248 488 261 q 576 235 542 235 q 678 258 636 235 q 756 309 721 281 q 827 360 792 338 q 910 383 863 383 q 996 349 963 383 q 1029 263 1029 315 q 1002 178 1029 217 q 935 108 975 139 q 851 56 896 78 q 768 19 806 33 q 524 -25 650 -25 q 331 8 422 -25 q 170 102 239 42 q 61 249 101 163 q 21 442 21 336 q 43 578 21 513 q 104 700 65 643 q 196 803 143 757 q 310 883 249 850 q 440 935 372 917 q 575 953 507 953 z "},"D":{"ha":957,"x_min":28,"x_max":936,"o":"m 28 540 q 31 633 28 576 q 42 749 33 690 q 67 857 50 807 q 114 932 85 907 q 160 960 135 949 q 212 976 185 971 q 267 984 239 982 q 319 986 294 986 q 447 978 383 986 q 572 947 511 969 q 709 876 643 921 q 825 772 775 832 q 906 641 875 713 q 936 490 936 569 q 858 191 936 319 q 617 1 781 63 q 528 -24 574 -14 q 438 -33 483 -33 q 369 -32 407 -33 q 292 -26 331 -31 q 219 -12 254 -22 q 157 14 183 -3 q 107 71 128 33 q 72 156 86 108 q 49 257 57 203 q 35 363 40 311 q 29 462 31 415 q 28 540 28 508 m 399 422 q 402 377 399 406 q 415 320 406 349 q 439 272 424 292 q 476 251 454 251 q 530 265 506 251 q 571 301 554 279 q 597 349 588 322 q 607 403 607 376 q 599 460 607 432 q 574 513 590 489 q 533 551 557 536 q 476 565 508 565 q 436 550 451 565 q 413 513 421 535 q 401 465 404 490 q 399 422 399 440 z "},"E":{"ha":951,"x_min":21,"x_max":924,"o":"m 563 260 q 682 269 624 260 q 800 288 740 278 q 815 290 807 289 q 831 290 824 290 q 879 277 861 290 q 907 243 897 264 q 920 197 917 222 q 924 149 924 172 q 919 103 924 122 q 896 64 915 83 q 829 32 875 46 q 731 8 783 18 q 628 -6 678 -1 q 549 -10 578 -10 q 367 -3 451 -10 q 215 35 282 4 q 105 131 149 67 q 44 308 61 194 q 28 426 36 367 q 21 546 21 486 q 53 726 21 649 q 146 856 86 804 q 288 933 206 907 q 468 958 369 958 l 593 958 q 683 952 629 958 q 785 928 736 946 q 870 879 835 910 q 906 800 906 849 q 897 727 906 763 q 868 665 888 692 q 819 621 849 638 q 746 604 789 604 q 658 610 701 604 q 569 615 614 615 q 531 613 557 615 q 478 605 504 611 q 431 588 451 599 q 411 560 411 578 q 419 543 411 550 q 437 532 426 536 q 458 526 447 528 q 478 525 469 525 q 585 529 531 525 q 692 533 639 533 q 731 532 710 533 q 771 524 753 531 q 801 504 789 518 q 814 465 814 490 q 781 372 814 394 q 681 349 747 349 l 463 349 q 444 348 456 349 q 423 344 433 347 q 406 336 413 342 q 399 319 399 331 q 419 290 399 301 q 467 271 440 278 q 522 262 494 264 q 563 260 549 260 z "},"F":{"ha":894,"x_min":28,"x_max":888,"o":"m 481 85 q 463 28 481 53 q 417 -15 446 3 q 351 -42 388 -33 q 278 -51 315 -51 q 180 -28 221 -51 q 111 35 139 -4 q 67 125 83 75 q 42 228 50 175 q 31 334 33 282 q 28 428 28 386 q 31 553 28 490 q 49 679 33 617 q 188 914 85 828 q 446 1000 290 1000 l 561 1000 q 653 993 597 1000 q 760 969 708 986 q 850 920 813 951 q 888 840 888 889 q 878 767 888 803 q 850 705 869 732 q 801 662 831 678 q 728 646 771 646 q 651 651 689 646 q 574 657 613 657 q 533 653 557 657 q 488 640 510 650 q 451 612 467 631 q 436 563 436 593 q 457 481 436 501 q 504 460 478 460 q 585 464 544 460 q 667 468 626 468 q 717 466 693 468 q 758 455 740 464 q 785 428 775 446 q 796 381 796 411 l 796 347 q 765 293 796 310 q 692 271 733 276 q 608 267 650 265 q 542 269 565 269 q 484 253 504 269 q 464 197 464 236 q 467 163 464 175 q 472 141 469 151 q 478 119 475 131 q 481 85 481 107 z "},"G":{"ha":1044,"x_min":26,"x_max":1015,"o":"m 572 992 q 701 978 628 992 q 839 933 774 964 q 949 853 904 901 q 994 733 994 804 q 984 681 994 707 q 956 633 974 654 q 915 598 939 611 q 863 585 890 585 q 812 595 838 585 q 760 618 786 606 q 705 641 733 631 q 643 651 676 651 q 562 637 599 651 q 498 596 525 622 q 456 533 471 569 q 442 451 442 496 q 453 374 442 414 q 488 302 465 335 q 544 249 511 269 q 618 228 576 228 q 653 232 632 228 q 694 245 674 236 q 728 267 714 254 q 743 297 743 281 q 727 323 743 313 q 697 333 711 333 q 661 328 678 333 q 625 322 644 322 q 581 332 600 322 q 551 358 563 342 q 535 397 540 375 q 529 440 529 418 q 546 498 529 476 q 589 531 563 519 q 646 546 615 542 q 704 550 676 550 q 814 535 758 550 q 915 492 869 521 q 988 417 960 463 q 1015 308 1015 371 q 1007 248 1015 278 q 988 190 999 218 q 915 84 961 126 q 813 16 869 42 q 692 -20 756 -10 q 565 -31 628 -31 q 347 4 446 -31 q 176 106 247 39 q 66 269 106 172 q 26 488 26 365 q 71 694 26 601 q 190 853 115 788 q 365 956 265 919 q 572 992 464 992 z "},"H":{"ha":960,"x_min":28,"x_max":932,"o":"m 235 -37 q 173 -27 203 -37 q 119 3 143 -17 q 84 56 99 21 q 59 135 69 90 q 42 231 49 181 q 33 329 36 281 q 29 419 31 378 q 28 488 28 461 q 33 665 28 575 q 53 842 39 754 q 76 899 58 875 q 118 940 93 924 q 174 965 143 957 q 235 974 204 974 q 326 957 289 974 q 385 910 363 940 q 417 839 407 881 q 426 749 426 797 q 424 690 426 719 q 422 631 422 660 q 424 599 422 615 q 431 570 425 583 q 448 549 436 557 q 479 540 460 540 q 524 554 504 540 q 550 593 544 568 q 558 656 556 619 q 564 731 560 692 q 575 808 568 769 q 598 876 582 846 q 640 924 614 906 q 708 942 667 942 q 776 935 742 942 q 835 903 811 929 q 890 794 871 864 q 919 647 910 725 q 930 494 928 569 q 932 367 932 418 q 928 218 932 288 q 900 97 925 149 q 822 15 875 44 q 668 -15 768 -15 q 541 26 585 -15 q 497 151 497 68 q 501 204 497 179 q 513 256 506 229 q 519 277 515 265 q 522 299 522 289 q 503 327 522 318 q 468 336 483 336 q 436 324 451 336 q 423 294 428 317 q 413 242 418 272 q 404 178 408 213 q 394 113 400 144 q 381 54 389 81 q 361 15 372 28 q 303 -24 338 -11 q 235 -37 269 -37 z "},"I":{"ha":510,"x_min":17,"x_max":486,"o":"m 272 -4 q 200 1 232 -4 q 136 35 168 7 q 82 110 104 63 q 47 217 60 158 q 27 340 33 275 q 19 468 21 406 q 17 587 17 531 q 17 685 17 643 q 37 807 17 757 q 94 888 57 857 q 185 934 132 919 q 307 949 239 949 q 438 912 390 949 q 486 788 486 875 q 476 625 486 707 q 456 463 465 543 q 438 303 446 383 q 411 143 429 222 q 396 88 406 114 q 370 40 386 61 q 331 8 354 19 q 272 -4 307 -4 z "},"J":{"ha":765,"x_min":7,"x_max":738,"o":"m 243 738 q 256 817 243 779 q 292 882 269 854 q 347 926 315 910 q 417 942 379 942 q 577 906 515 942 q 675 810 639 869 q 724 672 711 750 q 738 513 738 594 q 735 387 738 451 q 720 260 733 322 q 679 143 707 199 q 600 44 651 88 q 472 -28 542 -4 q 328 -53 403 -53 q 182 -33 256 -53 q 117 -3 149 -25 q 61 49 86 19 q 22 115 36 79 q 7 185 7 150 q 11 222 7 201 q 25 259 15 242 q 49 288 35 276 q 85 300 64 300 q 126 290 107 300 q 165 269 146 281 q 202 247 183 257 q 243 238 221 238 q 277 249 264 238 q 299 276 290 260 q 310 313 307 293 q 314 349 314 332 q 303 476 314 421 q 278 576 292 531 q 254 660 265 621 q 243 738 243 699 z "},"K":{"ha":881,"x_min":29,"x_max":858,"o":"m 29 517 q 31 611 29 558 q 38 718 32 664 q 58 824 44 772 q 99 917 72 876 q 166 982 125 957 q 265 1007 207 1007 q 346 993 315 1007 q 394 953 376 979 q 419 891 413 926 q 425 811 425 856 q 419 700 425 756 q 411 589 414 644 q 415 588 413 589 q 419 586 418 586 q 435 603 429 586 q 443 626 440 619 q 466 736 457 675 q 494 851 475 797 q 549 943 513 906 q 657 981 586 981 q 727 969 692 981 q 792 935 763 957 q 840 881 821 913 q 858 813 858 850 q 844 742 858 782 q 806 660 829 701 q 751 576 782 618 q 686 501 719 535 q 619 446 653 468 q 556 419 585 424 q 578 410 557 417 q 631 394 600 404 q 699 367 663 383 q 767 327 736 351 q 818 271 797 303 q 839 196 839 239 q 831 108 839 146 q 803 47 824 71 q 749 10 783 22 q 660 -3 714 -3 q 569 30 606 -3 q 508 109 533 63 q 469 208 483 156 q 444 303 454 261 q 440 322 443 307 q 431 352 436 336 q 422 380 426 368 q 413 392 417 392 q 410 391 411 392 q 408 390 410 390 q 409 328 408 358 q 410 267 410 299 q 407 174 410 221 q 388 88 404 126 q 340 24 372 49 q 246 0 307 0 q 160 28 196 0 q 100 103 124 57 q 62 206 76 149 q 40 320 47 263 q 31 430 33 378 q 29 517 29 482 z "},"L":{"ha":733,"x_min":29,"x_max":726,"o":"m 433 432 q 435 390 433 414 q 442 342 436 365 q 463 303 449 319 q 503 288 478 288 q 547 297 526 288 q 592 306 568 306 q 647 286 622 306 q 690 238 672 267 q 717 178 707 210 q 726 119 726 146 q 697 48 726 76 q 624 3 667 19 q 535 -20 581 -14 q 456 -26 489 -26 q 228 15 313 -26 q 100 132 144 57 q 42 309 56 207 q 29 532 29 411 q 37 699 29 611 q 74 860 44 786 q 164 983 104 935 q 328 1031 224 1031 q 459 978 413 1031 q 506 843 506 925 q 499 786 506 814 q 485 731 493 758 q 467 676 476 704 q 453 621 458 649 q 433 432 433 526 z "},"M":{"ha":1194,"x_min":29,"x_max":1165,"o":"m 463 297 q 452 195 457 251 q 431 90 447 139 q 380 8 414 40 q 282 -25 346 -25 q 183 26 229 -25 q 103 153 138 76 q 49 320 68 229 q 29 490 29 411 q 31 550 29 514 q 36 628 32 586 q 47 716 40 671 q 65 803 54 761 q 90 882 75 846 q 126 940 106 918 q 183 978 151 968 q 250 989 214 989 q 303 984 276 989 q 354 972 329 979 q 433 917 397 960 q 499 819 469 874 q 549 709 528 765 q 583 614 569 653 q 588 602 585 610 q 594 587 590 594 q 602 574 597 579 q 611 568 607 568 q 626 592 617 568 q 647 649 636 617 q 665 710 657 681 q 678 750 674 740 q 719 852 694 801 q 779 943 744 903 q 860 1008 814 983 q 968 1033 907 1033 q 1054 1011 1021 1033 q 1108 954 1088 989 q 1138 876 1129 919 q 1151 790 1147 833 q 1162 640 1158 715 q 1165 489 1165 564 q 1147 283 1165 381 q 1097 111 1128 185 q 1024 -6 1065 38 q 936 -50 982 -50 q 839 -18 881 -50 q 781 67 797 14 q 774 116 772 93 q 775 165 775 139 q 774 242 775 204 q 765 318 772 281 q 740 260 756 296 q 706 192 725 225 q 662 135 686 158 q 607 111 638 111 q 556 132 578 111 q 515 182 533 153 q 485 243 497 211 q 463 297 472 275 z "},"N":{"ha":1021,"x_min":28,"x_max":983,"o":"m 450 142 q 431 78 450 104 q 383 34 413 51 q 320 8 354 17 q 256 0 286 0 q 169 41 211 0 q 97 158 128 82 q 47 343 65 235 q 28 586 28 451 q 35 726 28 653 q 65 860 43 799 q 128 960 88 921 q 233 1000 168 1000 q 322 986 283 1000 q 388 952 360 972 q 433 908 415 932 q 463 865 451 885 q 487 819 469 854 q 525 746 504 783 q 565 678 546 708 q 593 649 585 649 q 604 661 603 649 q 606 681 606 674 q 601 757 606 719 q 597 833 597 794 q 617 897 597 869 q 665 944 636 925 q 729 974 694 964 q 794 985 764 985 q 913 944 869 985 q 964 829 956 903 q 978 662 974 746 q 983 494 983 578 q 977 385 983 444 q 957 268 971 326 q 922 155 943 210 q 870 58 900 100 q 802 -8 840 17 q 715 -33 764 -33 q 642 -9 674 -33 q 589 52 611 15 q 551 132 567 89 q 522 212 535 175 q 497 273 508 249 q 471 297 485 297 q 463 285 467 297 q 457 251 460 272 q 452 202 454 231 q 450 142 450 174 z "},"O":{"ha":1076,"x_min":28,"x_max":1047,"o":"m 536 972 q 746 938 651 972 q 907 838 840 903 q 1010 679 974 772 q 1047 469 1047 586 q 1008 273 1047 367 q 899 108 968 179 q 739 -4 831 38 q 543 -46 647 -46 q 342 -11 436 -46 q 178 88 249 24 q 68 242 108 151 q 28 442 28 332 q 65 650 28 553 q 168 819 101 747 q 328 931 235 890 q 536 972 422 972 m 415 388 q 448 294 415 329 q 529 258 481 258 q 580 272 556 258 q 623 306 604 285 q 653 353 642 326 q 664 404 664 379 q 653 448 664 428 q 624 483 642 468 q 583 506 606 497 q 540 515 561 515 q 451 481 488 515 q 415 388 415 446 z "},"P":{"ha":947,"x_min":15,"x_max":925,"o":"m 15 493 q 33 702 15 607 q 97 866 50 797 q 225 974 143 935 q 436 1013 307 1013 q 616 988 528 1013 q 773 912 704 963 q 883 785 842 861 q 925 607 925 710 q 911 479 925 542 q 868 364 897 417 q 792 270 839 311 q 681 206 746 229 q 583 181 632 189 q 485 168 535 174 q 465 165 478 167 q 450 157 453 164 q 440 125 443 140 q 434 95 438 110 q 424 65 431 81 q 404 35 418 50 q 350 0 381 10 q 286 -10 319 -10 q 187 16 229 -10 q 115 83 144 42 q 65 177 85 124 q 35 287 46 231 q 19 397 24 343 q 15 493 15 450 m 446 492 q 451 466 446 479 q 465 442 456 453 q 490 423 475 431 q 524 415 504 415 q 567 429 550 415 q 593 464 583 443 q 607 509 603 485 q 611 554 611 533 q 608 585 611 569 q 598 615 606 601 q 578 638 590 629 q 549 647 567 647 q 494 633 515 647 q 463 596 474 618 q 449 546 453 574 q 446 492 446 518 z "},"Q":{"ha":1029,"x_min":29,"x_max":1004,"o":"m 468 -31 q 269 0 351 -31 q 133 89 186 31 q 54 233 79 147 q 29 428 29 318 q 63 673 29 564 q 160 858 97 782 q 315 974 224 933 q 524 1015 407 1015 q 720 982 636 1015 q 861 887 804 949 q 947 738 918 825 q 975 542 975 650 q 965 455 975 500 q 942 369 954 410 q 919 298 929 329 q 908 253 908 267 q 924 230 908 240 q 956 204 939 219 q 989 167 974 189 q 1004 113 1004 146 q 993 63 1004 88 q 963 19 982 39 q 920 -12 944 0 q 871 -25 896 -25 q 825 -14 844 -25 q 790 11 806 -3 q 760 36 775 25 q 731 47 746 47 q 708 39 726 47 q 668 20 690 31 q 625 0 646 10 q 596 -12 604 -10 q 468 -31 536 -31 m 542 626 q 374 564 433 626 q 315 406 315 501 q 476 211 315 211 q 517 218 494 211 q 539 240 539 225 q 521 258 539 247 q 482 285 503 268 q 443 330 461 303 q 425 397 425 357 q 435 432 425 414 q 462 465 446 450 q 497 488 478 479 q 532 497 515 497 q 578 483 553 497 q 626 451 603 468 q 667 420 649 435 q 697 406 686 406 q 708 419 707 406 q 710 439 710 433 q 699 506 710 472 q 668 566 689 539 q 616 610 647 593 q 542 626 585 626 z "},"R":{"ha":972,"x_min":22,"x_max":944,"o":"m 375 143 q 341 38 375 75 q 238 0 307 0 q 115 46 168 0 q 68 107 85 72 q 44 180 51 142 q 35 258 38 218 q 31 335 33 297 q 25 425 28 379 q 22 515 22 471 q 27 649 22 578 q 51 778 32 719 q 124 887 75 843 q 236 957 174 931 q 367 994 299 983 q 499 1004 436 1004 q 654 987 575 1004 q 797 931 733 969 q 901 829 861 892 q 942 676 942 767 q 912 532 942 597 q 833 421 882 467 q 720 350 783 375 q 590 325 657 325 q 544 328 567 325 q 497 339 521 332 q 569 299 525 310 q 663 285 613 288 q 763 282 713 282 q 853 274 813 282 q 919 244 893 265 q 944 176 944 222 q 929 104 944 142 q 888 36 914 67 q 828 -14 863 6 q 757 -33 794 -33 q 617 5 682 -33 q 507 101 551 43 q 483 142 500 111 q 446 205 465 172 q 410 263 426 238 q 388 289 393 289 q 375 269 378 289 q 372 224 372 249 q 374 175 372 199 q 375 143 375 151 m 428 597 q 440 565 428 579 q 471 540 453 550 q 510 526 489 531 q 546 521 531 521 q 580 524 561 521 q 615 535 599 528 q 642 556 631 543 q 653 589 653 569 q 644 630 653 614 q 619 656 635 646 q 583 669 603 665 q 542 672 563 672 q 503 669 524 672 q 467 657 483 665 q 439 634 450 649 q 428 597 428 619 z "},"S":{"ha":861,"x_min":25,"x_max":836,"o":"m 438 203 q 469 209 453 203 q 486 235 486 215 q 453 272 486 257 q 369 303 419 286 q 261 345 319 321 q 153 408 203 369 q 69 505 103 447 q 36 649 36 563 q 64 786 36 725 q 139 890 92 847 q 249 956 186 933 q 383 979 313 979 q 563 960 471 979 q 732 899 656 942 q 803 829 781 871 q 825 733 825 788 q 814 661 825 697 q 782 596 803 625 q 731 549 761 567 q 664 531 701 531 q 582 547 624 531 q 501 581 540 563 q 428 615 463 600 q 368 631 394 631 q 349 624 357 631 q 340 604 340 617 q 377 563 340 578 q 469 534 414 547 q 588 504 524 521 q 708 458 653 488 q 799 382 763 429 q 836 260 836 335 q 801 122 836 175 q 706 39 767 68 q 561 -1 644 10 q 381 -11 478 -11 q 267 -6 329 -11 q 151 19 206 -1 q 61 78 97 39 q 25 185 25 117 q 48 263 25 228 q 119 299 71 299 q 188 283 150 299 q 268 251 226 268 q 353 218 310 233 q 438 203 396 203 z "},"T":{"ha":935,"x_min":7,"x_max":928,"o":"m 283 547 q 184 560 233 547 q 95 601 135 574 q 31 669 56 628 q 7 767 7 711 q 44 884 7 843 q 138 944 82 925 q 259 967 194 963 q 379 975 324 972 q 450 979 415 978 q 521 981 485 981 q 653 976 582 981 q 786 951 725 972 q 888 883 847 929 q 928 754 928 838 q 913 672 928 711 q 872 604 899 633 q 809 558 846 575 q 726 540 772 540 q 678 543 706 540 q 629 546 650 546 q 633 276 633 413 q 630 179 633 232 q 610 81 626 126 q 562 4 594 35 q 469 -26 529 -26 q 406 -14 431 -26 q 357 31 381 -1 q 328 93 340 54 q 308 179 317 132 q 295 279 300 226 q 288 381 290 332 q 284 474 285 431 q 283 547 283 518 z "},"U":{"ha":933,"x_min":26,"x_max":903,"o":"m 472 -4 q 329 15 392 -4 q 200 81 267 35 q 113 167 147 118 q 60 273 79 217 q 33 390 40 329 q 26 513 26 451 q 35 674 26 592 q 61 835 43 756 q 90 892 69 868 q 137 933 110 917 q 197 956 164 949 q 260 964 229 964 q 358 945 318 964 q 420 893 397 926 q 453 815 443 860 q 463 718 463 771 q 459 626 463 676 q 451 524 456 576 q 444 421 447 471 q 440 329 440 371 q 442 296 440 317 q 448 256 443 275 q 463 222 453 236 q 492 207 474 207 q 509 215 503 207 q 519 233 515 222 q 525 255 524 243 q 526 274 526 267 q 525 344 526 304 q 523 428 524 385 q 521 511 522 471 q 519 582 519 551 q 523 697 519 636 q 544 808 526 757 q 602 892 563 858 q 714 926 642 926 q 790 911 754 926 q 849 860 826 896 q 876 792 865 833 q 892 706 886 751 q 901 617 899 661 q 903 542 903 574 q 893 399 903 471 q 863 257 883 326 q 804 137 842 186 q 717 56 767 88 q 605 10 667 25 q 472 -4 543 -4 z "},"V":{"ha":1049,"x_min":18,"x_max":1032,"o":"m 868 926 q 993 886 954 926 q 1032 761 1032 846 q 1015 615 1032 697 q 970 447 997 532 q 908 285 943 363 q 838 154 874 208 q 709 30 785 74 q 536 -14 633 -14 q 360 28 435 -14 q 231 139 285 71 q 140 292 176 207 q 79 464 104 378 q 39 610 60 535 q 18 760 18 686 q 35 849 18 808 q 84 919 53 890 q 157 965 115 949 q 246 981 199 981 q 325 969 286 981 q 396 933 364 957 q 465 856 440 901 q 503 760 490 811 q 519 654 515 708 q 524 550 522 600 q 526 426 526 488 q 538 301 525 364 q 543 280 539 294 q 557 265 547 265 q 576 290 568 265 q 589 347 583 315 q 597 409 594 379 q 601 449 600 439 q 611 545 606 486 q 628 666 617 604 q 655 782 639 728 q 696 863 671 836 q 776 911 728 896 q 868 926 824 926 z "},"W":{"ha":1336,"x_min":21,"x_max":1314,"o":"m 404 -14 q 268 25 326 -14 q 169 128 210 64 q 101 272 128 192 q 58 435 74 353 q 34 596 42 518 q 22 731 26 674 q 22 742 22 738 q 21 754 21 747 q 37 846 21 803 q 82 922 53 889 q 152 975 111 956 q 243 994 193 994 q 351 966 307 994 q 423 892 396 938 q 463 791 450 847 q 475 681 475 735 q 472 586 475 633 q 468 492 468 539 q 469 467 468 486 q 472 428 469 447 q 478 392 474 408 q 490 376 482 376 q 510 401 501 376 q 528 464 518 426 q 549 546 538 501 q 576 628 560 590 q 613 690 592 665 q 665 715 635 715 q 733 679 710 715 q 769 593 757 643 q 787 492 782 543 q 797 410 792 440 q 803 388 799 403 q 818 372 807 372 q 833 386 829 372 q 839 407 838 400 l 876 594 q 889 672 883 631 q 902 753 894 713 q 922 829 910 793 q 958 893 935 865 q 1015 938 981 921 q 1101 954 1050 954 q 1190 935 1150 954 q 1257 885 1229 917 q 1299 813 1285 854 q 1314 724 1314 771 q 1306 634 1314 686 q 1285 528 1297 582 q 1260 422 1274 474 q 1233 333 1246 371 q 1187 209 1213 269 q 1122 101 1161 149 q 1028 26 1083 54 q 896 -1 974 -1 q 745 42 799 -1 q 668 179 692 86 q 660 202 665 188 q 644 217 656 217 q 625 199 635 217 q 603 157 615 182 q 574 101 590 132 q 533 46 557 71 q 478 3 510 21 q 404 -14 447 -14 z "},"X":{"ha":1017,"x_min":8,"x_max":1004,"o":"m 317 446 q 263 481 294 456 q 198 540 232 506 q 130 614 164 574 q 69 695 96 654 q 26 774 43 736 q 10 839 10 811 q 28 908 8 876 q 81 964 49 940 q 151 1001 113 988 q 222 1014 189 1014 q 311 983 263 1014 q 406 910 360 953 q 490 820 451 867 q 546 742 528 774 q 589 799 563 764 q 644 867 615 833 q 703 930 674 901 q 758 968 733 958 q 828 981 792 981 q 893 970 861 981 q 950 940 925 960 q 990 892 975 921 q 1004 828 1004 864 q 989 767 1004 803 q 950 692 974 732 q 897 610 926 651 q 836 532 867 569 q 778 465 806 494 q 732 421 751 436 q 808 358 764 392 q 892 288 853 325 q 960 208 932 250 q 988 121 988 167 q 970 58 988 85 q 925 12 953 31 q 865 -17 897 -7 q 800 -26 832 -26 q 719 -11 758 -26 q 659 28 689 1 q 602 89 629 56 q 551 158 575 122 q 510 222 528 193 q 459 141 481 185 q 409 60 438 97 q 341 -3 381 22 q 238 -28 301 -28 q 169 -15 203 -28 q 108 20 135 -3 q 65 76 81 43 q 49 149 49 108 q 76 242 49 199 q 144 322 104 286 q 232 390 185 358 q 317 446 279 421 z "},"Y":{"ha":1021,"x_min":7,"x_max":1014,"o":"m 779 994 q 871 984 828 994 q 946 951 914 974 q 996 894 978 929 q 1014 813 1014 860 q 989 672 1014 732 q 926 565 964 613 q 845 478 889 518 q 764 398 801 439 q 701 310 726 357 q 676 201 676 264 q 666 108 676 150 q 634 35 656 65 q 578 -12 613 4 q 497 -29 544 -29 q 416 -11 450 -29 q 360 39 382 7 q 327 115 338 71 q 317 213 317 160 q 294 314 317 271 q 236 395 271 357 q 162 471 201 433 q 88 556 122 508 q 30 665 53 603 q 7 813 7 726 q 30 891 7 856 q 88 951 53 926 q 165 990 124 976 q 246 1003 207 1003 q 326 997 294 1003 q 380 977 358 992 q 416 938 401 963 q 443 875 431 914 q 459 826 451 851 q 474 776 467 801 q 479 752 475 771 q 489 714 483 733 q 500 678 494 694 q 510 663 506 663 q 519 674 517 663 q 524 689 522 685 q 554 793 536 739 q 601 892 572 847 q 674 966 631 938 q 779 994 717 994 z "},"Z":{"ha":931,"x_min":21,"x_max":924,"o":"m 328 560 q 315 571 328 569 q 294 572 301 572 q 233 565 263 572 q 171 557 203 557 q 106 579 133 557 q 59 635 78 601 q 31 706 40 668 q 21 775 21 744 q 51 889 21 850 q 130 947 82 928 q 235 969 178 965 q 349 979 293 974 q 518 988 435 988 q 631 983 572 988 q 739 960 690 979 q 819 901 788 942 q 850 789 850 861 q 826 667 850 725 q 765 554 801 608 q 685 451 728 500 q 604 356 642 401 q 574 323 590 339 q 546 288 557 307 q 558 282 550 282 q 654 292 607 282 q 750 301 701 301 q 813 293 782 301 q 869 269 844 285 q 908 229 893 253 q 924 174 924 206 q 892 77 924 111 q 812 28 860 43 q 709 9 764 13 q 608 3 654 6 q 476 -1 542 -1 q 404 0 449 -1 q 309 6 360 1 q 207 22 258 11 q 114 52 156 33 q 47 99 72 71 q 21 167 21 126 q 44 244 21 204 q 101 323 67 283 q 174 400 135 363 q 248 469 214 438 q 305 524 282 500 q 328 560 328 547 z "},"[":{"ha":469,"x_min":28,"x_max":460,"o":"m 454 924 q 451 893 454 910 q 440 862 447 876 q 419 837 432 847 q 390 825 407 826 q 376 824 383 824 q 363 825 369 825 q 347 825 358 825 q 322 824 335 825 q 299 819 308 822 q 289 810 289 817 q 288 663 289 735 q 288 515 288 590 q 289 353 288 433 q 290 192 290 274 q 289 78 290 135 q 294 -36 288 21 q 304 -67 297 -58 q 322 -78 311 -76 q 345 -78 332 -81 q 375 -76 358 -76 q 440 -109 419 -76 q 460 -182 460 -142 q 454 -238 460 -218 q 436 -269 449 -258 q 402 -282 424 -279 q 347 -285 381 -285 q 256 -278 308 -285 q 155 -256 203 -272 q 72 -208 107 -239 q 32 -126 36 -176 q 28 -32 28 -79 q 28 63 28 15 q 28 441 28 253 q 35 819 29 629 q 59 941 38 899 q 118 1003 81 983 q 208 1027 156 1024 q 324 1031 260 1031 q 374 1028 350 1031 q 415 1014 397 1025 q 444 982 433 1003 q 454 924 454 961 z "},"\\":{"ha":657,"x_min":18,"x_max":638,"o":"m 638 26 q 610 -40 638 -15 q 543 -64 583 -64 q 443 -27 485 -64 q 378 60 401 10 q 276 289 325 174 q 179 521 228 404 q 106 687 143 604 q 31 853 68 769 q 22 876 25 864 q 18 900 18 888 q 49 968 18 940 q 119 996 79 996 q 173 984 149 996 q 217 953 197 972 q 251 911 236 935 q 275 863 265 888 q 321 765 289 833 q 393 609 353 696 q 476 427 433 522 q 556 249 519 332 q 615 105 592 165 q 638 26 638 44 z "},"]":{"ha":496,"x_min":13,"x_max":471,"o":"m 97 -279 q 33 -246 54 -279 q 13 -174 13 -212 q 37 -97 13 -118 q 114 -75 61 -75 q 133 -75 118 -75 q 165 -74 149 -75 q 193 -69 181 -72 q 206 -60 206 -65 q 206 217 206 79 q 207 493 207 354 q 207 552 207 507 q 206 648 207 597 q 201 740 204 699 q 192 790 199 782 q 153 810 179 807 q 100 824 126 814 q 54 856 74 833 q 35 932 35 878 q 40 989 35 968 q 58 1020 46 1010 q 93 1033 71 1031 q 149 1035 115 1035 q 242 1029 189 1035 q 343 1006 294 1024 q 427 958 392 989 q 467 876 463 926 q 471 799 471 838 q 471 719 471 760 q 471 325 471 521 q 464 -69 471 129 q 441 -186 463 -144 q 381 -249 419 -228 q 290 -274 343 -269 q 172 -278 238 -278 q 135 -278 153 -278 q 97 -279 117 -279 z "},"^":{"ha":633,"x_min":15,"x_max":619,"o":"m 342 764 q 333 758 336 764 q 329 747 331 751 q 302 669 315 708 q 268 599 289 631 q 215 549 247 568 q 133 529 183 529 q 92 535 113 529 q 53 551 71 540 q 26 580 36 563 q 15 621 15 597 q 21 653 15 633 q 35 693 26 672 q 52 733 43 714 q 67 765 61 753 q 108 842 85 806 q 162 906 132 878 q 231 950 192 933 q 317 967 269 967 q 426 943 374 967 q 511 874 478 919 q 548 816 529 849 q 583 748 567 783 q 609 677 599 713 q 619 611 619 642 q 596 547 619 568 q 531 526 572 526 q 453 547 483 526 q 403 599 422 567 q 372 669 383 631 q 351 746 360 708 q 349 756 350 749 q 342 764 347 764 z "},"_":{"ha":696,"x_min":1,"x_max":689,"o":"m 213 -264 q 147 -258 183 -264 q 78 -238 111 -253 q 24 -200 46 -224 q 1 -139 1 -176 q 11 -101 1 -121 q 42 -67 24 -78 q 83 -52 61 -56 q 128 -49 104 -49 q 174 -50 151 -50 q 292 -46 233 -50 q 411 -42 351 -42 q 488 -44 440 -42 q 580 -57 535 -46 q 657 -92 625 -68 q 689 -158 689 -115 q 673 -207 689 -186 q 633 -242 657 -228 q 582 -262 610 -256 q 531 -268 554 -268 q 474 -265 503 -268 q 417 -262 444 -262 q 315 -262 365 -261 q 213 -264 264 -264 z "},"`":{"ha":397,"x_min":13,"x_max":371,"o":"m 13 950 q 24 992 13 975 q 55 1020 36 1010 q 96 1035 74 1031 q 139 1040 118 1040 q 175 1037 163 1040 q 206 1017 188 1033 q 224 992 210 1013 q 256 945 238 972 q 295 886 275 918 q 332 827 315 854 q 360 781 349 800 q 371 760 371 763 q 363 740 371 749 q 343 727 354 732 q 319 719 332 722 q 297 717 306 717 q 217 740 265 717 q 123 799 168 764 q 45 876 78 835 q 13 950 13 917 z "},"a":{"ha":946,"x_min":21,"x_max":919,"o":"m 481 972 q 658 928 585 972 q 781 814 732 885 q 857 655 829 743 q 899 479 885 567 q 916 312 913 392 q 919 179 919 232 q 903 110 919 142 q 860 56 888 78 q 799 21 833 33 q 729 8 765 8 q 660 15 688 8 q 617 33 632 21 q 595 66 601 46 q 589 114 589 86 q 574 185 589 163 q 501 208 560 208 q 452 194 472 208 q 419 158 432 181 q 395 106 406 135 q 374 46 385 76 q 350 -2 364 17 q 317 -32 336 -21 q 269 -47 297 -43 q 199 -51 240 -51 q 129 -34 161 -51 q 73 10 97 -17 q 35 73 49 38 q 21 143 21 108 q 26 292 21 207 q 47 470 31 378 q 94 653 64 563 q 176 814 125 743 q 301 928 226 885 q 481 972 376 972 m 433 468 q 436 426 433 449 q 445 385 439 404 q 463 354 451 367 q 490 342 474 342 q 542 365 522 342 q 561 438 561 389 q 558 490 561 463 q 545 541 554 518 q 522 579 536 564 q 486 594 507 594 q 458 582 468 594 q 442 551 447 569 q 435 510 436 532 q 433 468 433 488 z "},"b":{"ha":900,"x_min":26,"x_max":865,"o":"m 26 481 q 124 847 26 721 q 436 972 222 972 q 578 964 507 972 q 705 932 649 956 q 796 866 761 908 q 831 757 831 824 q 780 607 831 667 q 640 533 729 547 q 743 515 700 528 q 813 476 786 501 q 853 410 840 451 q 865 308 865 369 q 832 137 865 203 q 741 34 799 71 q 607 -15 683 -3 q 443 -28 531 -28 q 254 14 333 -28 q 124 126 175 56 q 50 288 74 196 q 26 481 26 381 m 378 646 q 399 600 378 618 q 447 582 421 582 q 492 601 475 582 q 510 647 510 621 q 450 707 510 707 q 399 693 419 707 q 378 646 378 679 m 489 174 q 560 246 560 174 q 535 312 560 288 q 468 336 510 336 q 416 319 435 336 q 397 268 397 303 q 422 201 397 228 q 489 174 447 174 z "},"c":{"ha":1051,"x_min":21,"x_max":1029,"o":"m 575 953 q 699 938 629 953 q 832 890 769 922 q 937 809 894 858 q 979 693 979 760 q 969 640 979 667 q 942 592 960 614 q 899 557 924 571 q 847 543 875 543 q 800 553 824 543 q 751 576 776 564 q 699 598 726 588 q 642 608 672 608 q 558 592 597 608 q 491 547 519 575 q 447 479 463 518 q 431 396 431 440 q 440 333 431 363 q 469 283 450 304 q 515 248 488 261 q 576 235 542 235 q 678 258 636 235 q 756 309 721 281 q 827 360 792 338 q 910 383 863 383 q 996 349 963 383 q 1029 263 1029 315 q 1002 178 1029 217 q 935 108 975 139 q 851 56 896 78 q 768 19 806 33 q 524 -25 650 -25 q 331 8 422 -25 q 170 102 239 42 q 61 249 101 163 q 21 442 21 336 q 43 578 21 513 q 104 700 65 643 q 196 803 143 757 q 310 883 249 850 q 440 935 372 917 q 575 953 507 953 z "},"d":{"ha":957,"x_min":28,"x_max":936,"o":"m 28 540 q 31 633 28 576 q 42 749 33 690 q 67 857 50 807 q 114 932 85 907 q 160 960 135 949 q 212 976 185 971 q 267 984 239 982 q 319 986 294 986 q 447 978 383 986 q 572 947 511 969 q 709 876 643 921 q 825 772 775 832 q 906 641 875 713 q 936 490 936 569 q 858 191 936 319 q 617 1 781 63 q 528 -24 574 -14 q 438 -33 483 -33 q 369 -32 407 -33 q 292 -26 331 -31 q 219 -12 254 -22 q 157 14 183 -3 q 107 71 128 33 q 72 156 86 108 q 49 257 57 203 q 35 363 40 311 q 29 462 31 415 q 28 540 28 508 m 399 422 q 402 377 399 406 q 415 320 406 349 q 439 272 424 292 q 476 251 454 251 q 530 265 506 251 q 571 301 554 279 q 597 349 588 322 q 607 403 607 376 q 599 460 607 432 q 574 513 590 489 q 533 551 557 536 q 476 565 508 565 q 436 550 451 565 q 413 513 421 535 q 401 465 404 490 q 399 422 399 440 z "},"e":{"ha":951,"x_min":21,"x_max":924,"o":"m 563 260 q 682 269 624 260 q 800 288 740 278 q 815 290 807 289 q 831 290 824 290 q 879 277 861 290 q 907 243 897 264 q 920 197 917 222 q 924 149 924 172 q 919 103 924 122 q 896 64 915 83 q 829 32 875 46 q 731 8 783 18 q 628 -6 678 -1 q 549 -10 578 -10 q 367 -3 451 -10 q 215 35 282 4 q 105 131 149 67 q 44 308 61 194 q 28 426 36 367 q 21 546 21 486 q 53 726 21 649 q 146 856 86 804 q 288 933 206 907 q 468 958 369 958 l 593 958 q 683 952 629 958 q 785 928 736 946 q 870 879 835 910 q 906 800 906 849 q 897 727 906 763 q 868 665 888 692 q 819 621 849 638 q 746 604 789 604 q 658 610 701 604 q 569 615 614 615 q 531 613 557 615 q 478 605 504 611 q 431 588 451 599 q 411 560 411 578 q 419 543 411 550 q 437 532 426 536 q 458 526 447 528 q 478 525 469 525 q 585 529 531 525 q 692 533 639 533 q 731 532 710 533 q 771 524 753 531 q 801 504 789 518 q 814 465 814 490 q 781 372 814 394 q 681 349 747 349 l 463 349 q 444 348 456 349 q 423 344 433 347 q 406 336 413 342 q 399 319 399 331 q 419 290 399 301 q 467 271 440 278 q 522 262 494 264 q 563 260 549 260 z "},"f":{"ha":894,"x_min":28,"x_max":888,"o":"m 481 85 q 463 28 481 53 q 417 -15 446 3 q 351 -42 388 -33 q 278 -51 315 -51 q 180 -28 221 -51 q 111 35 139 -4 q 67 125 83 75 q 42 228 50 175 q 31 334 33 282 q 28 428 28 386 q 31 553 28 490 q 49 679 33 617 q 188 914 85 828 q 446 1000 290 1000 l 561 1000 q 653 993 597 1000 q 760 969 708 986 q 850 920 813 951 q 888 840 888 889 q 878 767 888 803 q 850 705 869 732 q 801 662 831 678 q 728 646 771 646 q 651 651 689 646 q 574 657 613 657 q 533 653 557 657 q 488 640 510 650 q 451 612 467 631 q 436 563 436 593 q 457 481 436 501 q 504 460 478 460 q 585 464 544 460 q 667 468 626 468 q 717 466 693 468 q 758 455 740 464 q 785 428 775 446 q 796 381 796 411 l 796 347 q 765 293 796 310 q 692 271 733 276 q 608 267 650 265 q 542 269 565 269 q 484 253 504 269 q 464 197 464 236 q 467 163 464 175 q 472 141 469 151 q 478 119 475 131 q 481 85 481 107 z "},"g":{"ha":1044,"x_min":26,"x_max":1015,"o":"m 572 992 q 701 978 628 992 q 839 933 774 964 q 949 853 904 901 q 994 733 994 804 q 984 681 994 707 q 956 633 974 654 q 915 598 939 611 q 863 585 890 585 q 812 595 838 585 q 760 618 786 606 q 705 641 733 631 q 643 651 676 651 q 562 637 599 651 q 498 596 525 622 q 456 533 471 569 q 442 451 442 496 q 453 374 442 414 q 488 302 465 335 q 544 249 511 269 q 618 228 576 228 q 653 232 632 228 q 694 245 674 236 q 728 267 714 254 q 743 297 743 281 q 727 323 743 313 q 697 333 711 333 q 661 328 678 333 q 625 322 644 322 q 581 332 600 322 q 551 358 563 342 q 535 397 540 375 q 529 440 529 418 q 546 498 529 476 q 589 531 563 519 q 646 546 615 542 q 704 550 676 550 q 814 535 758 550 q 915 492 869 521 q 988 417 960 463 q 1015 308 1015 371 q 1007 248 1015 278 q 988 190 999 218 q 915 84 961 126 q 813 16 869 42 q 692 -20 756 -10 q 565 -31 628 -31 q 347 4 446 -31 q 176 106 247 39 q 66 269 106 172 q 26 488 26 365 q 71 694 26 601 q 190 853 115 788 q 365 956 265 919 q 572 992 464 992 z "},"h":{"ha":960,"x_min":28,"x_max":932,"o":"m 235 -37 q 173 -27 203 -37 q 119 3 143 -17 q 84 56 99 21 q 59 135 69 90 q 42 231 49 181 q 33 329 36 281 q 29 419 31 378 q 28 488 28 461 q 33 665 28 575 q 53 842 39 754 q 76 899 58 875 q 118 940 93 924 q 174 965 143 957 q 235 974 204 974 q 326 957 289 974 q 385 910 363 940 q 417 839 407 881 q 426 749 426 797 q 424 690 426 719 q 422 631 422 660 q 424 599 422 615 q 431 570 425 583 q 448 549 436 557 q 479 540 460 540 q 524 554 504 540 q 550 593 544 568 q 558 656 556 619 q 564 731 560 692 q 575 808 568 769 q 598 876 582 846 q 640 924 614 906 q 708 942 667 942 q 776 935 742 942 q 835 903 811 929 q 890 794 871 864 q 919 647 910 725 q 930 494 928 569 q 932 367 932 418 q 928 218 932 288 q 900 97 925 149 q 822 15 875 44 q 668 -15 768 -15 q 541 26 585 -15 q 497 151 497 68 q 501 204 497 179 q 513 256 506 229 q 519 277 515 265 q 522 299 522 289 q 503 327 522 318 q 468 336 483 336 q 436 324 451 336 q 423 294 428 317 q 413 242 418 272 q 404 178 408 213 q 394 113 400 144 q 381 54 389 81 q 361 15 372 28 q 303 -24 338 -11 q 235 -37 269 -37 z "},"i":{"ha":510,"x_min":17,"x_max":486,"o":"m 272 -4 q 200 1 232 -4 q 136 35 168 7 q 82 110 104 63 q 47 217 60 158 q 27 340 33 275 q 19 468 21 406 q 17 587 17 531 q 17 685 17 643 q 37 807 17 757 q 94 888 57 857 q 185 934 132 919 q 307 949 239 949 q 438 912 390 949 q 486 788 486 875 q 476 625 486 707 q 456 463 465 543 q 438 303 446 383 q 411 143 429 222 q 396 88 406 114 q 370 40 386 61 q 331 8 354 19 q 272 -4 307 -4 z "},"j":{"ha":765,"x_min":7,"x_max":738,"o":"m 243 738 q 256 817 243 779 q 292 882 269 854 q 347 926 315 910 q 417 942 379 942 q 577 906 515 942 q 675 810 639 869 q 724 672 711 750 q 738 513 738 594 q 735 387 738 451 q 720 260 733 322 q 679 143 707 199 q 600 44 651 88 q 472 -28 542 -4 q 328 -53 403 -53 q 182 -33 256 -53 q 117 -3 149 -25 q 61 49 86 19 q 22 115 36 79 q 7 185 7 150 q 11 222 7 201 q 25 259 15 242 q 49 288 35 276 q 85 300 64 300 q 126 290 107 300 q 165 269 146 281 q 202 247 183 257 q 243 238 221 238 q 277 249 264 238 q 299 276 290 260 q 310 313 307 293 q 314 349 314 332 q 303 476 314 421 q 278 576 292 531 q 254 660 265 621 q 243 738 243 699 z "},"k":{"ha":881,"x_min":29,"x_max":858,"o":"m 29 517 q 31 611 29 558 q 38 718 32 664 q 58 824 44 772 q 99 917 72 876 q 166 982 125 957 q 265 1007 207 1007 q 346 993 315 1007 q 394 953 376 979 q 419 891 413 926 q 425 811 425 856 q 419 700 425 756 q 411 589 414 644 q 415 588 413 589 q 419 586 418 586 q 435 603 429 586 q 443 626 440 619 q 466 736 457 675 q 494 851 475 797 q 549 943 513 906 q 657 981 586 981 q 727 969 692 981 q 792 935 763 957 q 840 881 821 913 q 858 813 858 850 q 844 742 858 782 q 806 660 829 701 q 751 576 782 618 q 686 501 719 535 q 619 446 653 468 q 556 419 585 424 q 578 410 557 417 q 631 394 600 404 q 699 367 663 383 q 767 327 736 351 q 818 271 797 303 q 839 196 839 239 q 831 108 839 146 q 803 47 824 71 q 749 10 783 22 q 660 -3 714 -3 q 569 30 606 -3 q 508 109 533 63 q 469 208 483 156 q 444 303 454 261 q 440 322 443 307 q 431 352 436 336 q 422 380 426 368 q 413 392 417 392 q 410 391 411 392 q 408 390 410 390 q 409 328 408 358 q 410 267 410 299 q 407 174 410 221 q 388 88 404 126 q 340 24 372 49 q 246 0 307 0 q 160 28 196 0 q 100 103 124 57 q 62 206 76 149 q 40 320 47 263 q 31 430 33 378 q 29 517 29 482 z "},"l":{"ha":733,"x_min":29,"x_max":726,"o":"m 433 432 q 435 390 433 414 q 442 342 436 365 q 463 303 449 319 q 503 288 478 288 q 547 297 526 288 q 592 306 568 306 q 647 286 622 306 q 690 238 672 267 q 717 178 707 210 q 726 119 726 146 q 697 48 726 76 q 624 3 667 19 q 535 -20 581 -14 q 456 -26 489 -26 q 228 15 313 -26 q 100 132 144 57 q 42 309 56 207 q 29 532 29 411 q 37 699 29 611 q 74 860 44 786 q 164 983 104 935 q 328 1031 224 1031 q 459 978 413 1031 q 506 843 506 925 q 499 786 506 814 q 485 731 493 758 q 467 676 476 704 q 453 621 458 649 q 433 432 433 526 z "},"m":{"ha":1194,"x_min":29,"x_max":1165,"o":"m 463 297 q 452 195 457 251 q 431 90 447 139 q 380 8 414 40 q 282 -25 346 -25 q 183 26 229 -25 q 103 153 138 76 q 49 320 68 229 q 29 490 29 411 q 31 550 29 514 q 36 628 32 586 q 47 716 40 671 q 65 803 54 761 q 90 882 75 846 q 126 940 106 918 q 183 978 151 968 q 250 989 214 989 q 303 984 276 989 q 354 972 329 979 q 433 917 397 960 q 499 819 469 874 q 549 709 528 765 q 583 614 569 653 q 588 602 585 610 q 594 587 590 594 q 602 574 597 579 q 611 568 607 568 q 626 592 617 568 q 647 649 636 617 q 665 710 657 681 q 678 750 674 740 q 719 852 694 801 q 779 943 744 903 q 860 1008 814 983 q 968 1033 907 1033 q 1054 1011 1021 1033 q 1108 954 1088 989 q 1138 876 1129 919 q 1151 790 1147 833 q 1162 640 1158 715 q 1165 489 1165 564 q 1147 283 1165 381 q 1097 111 1128 185 q 1024 -6 1065 38 q 936 -50 982 -50 q 839 -18 881 -50 q 781 67 797 14 q 774 116 772 93 q 775 165 775 139 q 774 242 775 204 q 765 318 772 281 q 740 260 756 296 q 706 192 725 225 q 662 135 686 158 q 607 111 638 111 q 556 132 578 111 q 515 182 533 153 q 485 243 497 211 q 463 297 472 275 z "},"n":{"ha":1021,"x_min":28,"x_max":983,"o":"m 450 142 q 431 78 450 104 q 383 34 413 51 q 320 8 354 17 q 256 0 286 0 q 169 41 211 0 q 97 158 128 82 q 47 343 65 235 q 28 586 28 451 q 35 726 28 653 q 65 860 43 799 q 128 960 88 921 q 233 1000 168 1000 q 322 986 283 1000 q 388 952 360 972 q 433 908 415 932 q 463 865 451 885 q 487 819 469 854 q 525 746 504 783 q 565 678 546 708 q 593 649 585 649 q 604 661 603 649 q 606 681 606 674 q 601 757 606 719 q 597 833 597 794 q 617 897 597 869 q 665 944 636 925 q 729 974 694 964 q 794 985 764 985 q 913 944 869 985 q 964 829 956 903 q 978 662 974 746 q 983 494 983 578 q 977 385 983 444 q 957 268 971 326 q 922 155 943 210 q 870 58 900 100 q 802 -8 840 17 q 715 -33 764 -33 q 642 -9 674 -33 q 589 52 611 15 q 551 132 567 89 q 522 212 535 175 q 497 273 508 249 q 471 297 485 297 q 463 285 467 297 q 457 251 460 272 q 452 202 454 231 q 450 142 450 174 z "},"o":{"ha":1076,"x_min":28,"x_max":1047,"o":"m 536 972 q 746 938 651 972 q 907 838 840 903 q 1010 679 974 772 q 1047 469 1047 586 q 1008 273 1047 367 q 899 108 968 179 q 739 -4 831 38 q 543 -46 647 -46 q 342 -11 436 -46 q 178 88 249 24 q 68 242 108 151 q 28 442 28 332 q 65 650 28 553 q 168 819 101 747 q 328 931 235 890 q 536 972 422 972 m 415 388 q 448 294 415 329 q 529 258 481 258 q 580 272 556 258 q 623 306 604 285 q 653 353 642 326 q 664 404 664 379 q 653 448 664 428 q 624 483 642 468 q 583 506 606 497 q 540 515 561 515 q 451 481 488 515 q 415 388 415 446 z "},"p":{"ha":947,"x_min":15,"x_max":925,"o":"m 15 493 q 33 702 15 607 q 97 866 50 797 q 225 974 143 935 q 436 1013 307 1013 q 616 988 528 1013 q 773 912 704 963 q 883 785 842 861 q 925 607 925 710 q 911 479 925 542 q 868 364 897 417 q 792 270 839 311 q 681 206 746 229 q 583 181 632 189 q 485 168 535 174 q 465 165 478 167 q 450 157 453 164 q 440 125 443 140 q 434 95 438 110 q 424 65 431 81 q 404 35 418 50 q 350 0 381 10 q 286 -10 319 -10 q 187 16 229 -10 q 115 83 144 42 q 65 177 85 124 q 35 287 46 231 q 19 397 24 343 q 15 493 15 450 m 446 492 q 451 466 446 479 q 465 442 456 453 q 490 423 475 431 q 524 415 504 415 q 567 429 550 415 q 593 464 583 443 q 607 509 603 485 q 611 554 611 533 q 608 585 611 569 q 598 615 606 601 q 578 638 590 629 q 549 647 567 647 q 494 633 515 647 q 463 596 474 618 q 449 546 453 574 q 446 492 446 518 z "},"q":{"ha":1029,"x_min":29,"x_max":1004,"o":"m 468 -31 q 269 0 351 -31 q 133 89 186 31 q 54 233 79 147 q 29 428 29 318 q 63 673 29 564 q 160 858 97 782 q 315 974 224 933 q 524 1015 407 1015 q 720 982 636 1015 q 861 887 804 949 q 947 738 918 825 q 975 542 975 650 q 965 455 975 500 q 942 369 954 410 q 919 298 929 329 q 908 253 908 267 q 924 230 908 240 q 956 204 939 219 q 989 167 974 189 q 1004 113 1004 146 q 993 63 1004 88 q 963 19 982 39 q 920 -12 944 0 q 871 -25 896 -25 q 825 -14 844 -25 q 790 11 806 -3 q 760 36 775 25 q 731 47 746 47 q 708 39 726 47 q 668 20 690 31 q 625 0 646 10 q 596 -12 604 -10 q 468 -31 536 -31 m 542 626 q 374 564 433 626 q 315 406 315 501 q 476 211 315 211 q 517 218 494 211 q 539 240 539 225 q 521 258 539 247 q 482 285 503 268 q 443 330 461 303 q 425 397 425 357 q 435 432 425 414 q 462 465 446 450 q 497 488 478 479 q 532 497 515 497 q 578 483 553 497 q 626 451 603 468 q 667 420 649 435 q 697 406 686 406 q 708 419 707 406 q 710 439 710 433 q 699 506 710 472 q 668 566 689 539 q 616 610 647 593 q 542 626 585 626 z "},"r":{"ha":972,"x_min":22,"x_max":944,"o":"m 375 143 q 341 38 375 75 q 238 0 307 0 q 115 46 168 0 q 68 107 85 72 q 44 180 51 142 q 35 258 38 218 q 31 335 33 297 q 25 425 28 379 q 22 515 22 471 q 27 649 22 578 q 51 778 32 719 q 124 887 75 843 q 236 957 174 931 q 367 994 299 983 q 499 1004 436 1004 q 654 987 575 1004 q 797 931 733 969 q 901 829 861 892 q 942 676 942 767 q 912 532 942 597 q 833 421 882 467 q 720 350 783 375 q 590 325 657 325 q 544 328 567 325 q 497 339 521 332 q 569 299 525 310 q 663 285 613 288 q 763 282 713 282 q 853 274 813 282 q 919 244 893 265 q 944 176 944 222 q 929 104 944 142 q 888 36 914 67 q 828 -14 863 6 q 757 -33 794 -33 q 617 5 682 -33 q 507 101 551 43 q 483 142 500 111 q 446 205 465 172 q 410 263 426 238 q 388 289 393 289 q 375 269 378 289 q 372 224 372 249 q 374 175 372 199 q 375 143 375 151 m 428 597 q 440 565 428 579 q 471 540 453 550 q 510 526 489 531 q 546 521 531 521 q 580 524 561 521 q 615 535 599 528 q 642 556 631 543 q 653 589 653 569 q 644 630 653 614 q 619 656 635 646 q 583 669 603 665 q 542 672 563 672 q 503 669 524 672 q 467 657 483 665 q 439 634 450 649 q 428 597 428 619 z "},"s":{"ha":861,"x_min":25,"x_max":836,"o":"m 438 203 q 469 209 453 203 q 486 235 486 215 q 453 272 486 257 q 369 303 419 286 q 261 345 319 321 q 153 408 203 369 q 69 505 103 447 q 36 649 36 563 q 64 786 36 725 q 139 890 92 847 q 249 956 186 933 q 383 979 313 979 q 563 960 471 979 q 732 899 656 942 q 803 829 781 871 q 825 733 825 788 q 814 661 825 697 q 782 596 803 625 q 731 549 761 567 q 664 531 701 531 q 582 547 624 531 q 501 581 540 563 q 428 615 463 600 q 368 631 394 631 q 349 624 357 631 q 340 604 340 617 q 377 563 340 578 q 469 534 414 547 q 588 504 524 521 q 708 458 653 488 q 799 382 763 429 q 836 260 836 335 q 801 122 836 175 q 706 39 767 68 q 561 -1 644 10 q 381 -11 478 -11 q 267 -6 329 -11 q 151 19 206 -1 q 61 78 97 39 q 25 185 25 117 q 48 263 25 228 q 119 299 71 299 q 188 283 150 299 q 268 251 226 268 q 353 218 310 233 q 438 203 396 203 z "},"t":{"ha":935,"x_min":7,"x_max":928,"o":"m 283 547 q 184 560 233 547 q 95 601 135 574 q 31 669 56 628 q 7 767 7 711 q 44 884 7 843 q 138 944 82 925 q 259 967 194 963 q 379 975 324 972 q 450 979 415 978 q 521 981 485 981 q 653 976 582 981 q 786 951 725 972 q 888 883 847 929 q 928 754 928 838 q 913 672 928 711 q 872 604 899 633 q 809 558 846 575 q 726 540 772 540 q 678 543 706 540 q 629 546 650 546 q 633 276 633 413 q 630 179 633 232 q 610 81 626 126 q 562 4 594 35 q 469 -26 529 -26 q 406 -14 431 -26 q 357 31 381 -1 q 328 93 340 54 q 308 179 317 132 q 295 279 300 226 q 288 381 290 332 q 284 474 285 431 q 283 547 283 518 z "},"u":{"ha":933,"x_min":26,"x_max":903,"o":"m 472 -4 q 329 15 392 -4 q 200 81 267 35 q 113 167 147 118 q 60 273 79 217 q 33 390 40 329 q 26 513 26 451 q 35 674 26 592 q 61 835 43 756 q 90 892 69 868 q 137 933 110 917 q 197 956 164 949 q 260 964 229 964 q 358 945 318 964 q 420 893 397 926 q 453 815 443 860 q 463 718 463 771 q 459 626 463 676 q 451 524 456 576 q 444 421 447 471 q 440 329 440 371 q 442 296 440 317 q 448 256 443 275 q 463 222 453 236 q 492 207 474 207 q 509 215 503 207 q 519 233 515 222 q 525 255 524 243 q 526 274 526 267 q 525 344 526 304 q 523 428 524 385 q 521 511 522 471 q 519 582 519 551 q 523 697 519 636 q 544 808 526 757 q 602 892 563 858 q 714 926 642 926 q 790 911 754 926 q 849 860 826 896 q 876 792 865 833 q 892 706 886 751 q 901 617 899 661 q 903 542 903 574 q 893 399 903 471 q 863 257 883 326 q 804 137 842 186 q 717 56 767 88 q 605 10 667 25 q 472 -4 543 -4 z "},"v":{"ha":1049,"x_min":18,"x_max":1032,"o":"m 868 926 q 993 886 954 926 q 1032 761 1032 846 q 1015 615 1032 697 q 970 447 997 532 q 908 285 943 363 q 838 154 874 208 q 709 30 785 74 q 536 -14 633 -14 q 360 28 435 -14 q 231 139 285 71 q 140 292 176 207 q 79 464 104 378 q 39 610 60 535 q 18 760 18 686 q 35 849 18 808 q 84 919 53 890 q 157 965 115 949 q 246 981 199 981 q 325 969 286 981 q 396 933 364 957 q 465 856 440 901 q 503 760 490 811 q 519 654 515 708 q 524 550 522 600 q 526 426 526 488 q 538 301 525 364 q 543 280 539 294 q 557 265 547 265 q 576 290 568 265 q 589 347 583 315 q 597 409 594 379 q 601 449 600 439 q 611 545 606 486 q 628 666 617 604 q 655 782 639 728 q 696 863 671 836 q 776 911 728 896 q 868 926 824 926 z "},"w":{"ha":1336,"x_min":21,"x_max":1314,"o":"m 404 -14 q 268 25 326 -14 q 169 128 210 64 q 101 272 128 192 q 58 435 74 353 q 34 596 42 518 q 22 731 26 674 q 22 742 22 738 q 21 754 21 747 q 37 846 21 803 q 82 922 53 889 q 152 975 111 956 q 243 994 193 994 q 351 966 307 994 q 423 892 396 938 q 463 791 450 847 q 475 681 475 735 q 472 586 475 633 q 468 492 468 539 q 469 467 468 486 q 472 428 469 447 q 478 392 474 408 q 490 376 482 376 q 510 401 501 376 q 528 464 518 426 q 549 546 538 501 q 576 628 560 590 q 613 690 592 665 q 665 715 635 715 q 733 679 710 715 q 769 593 757 643 q 787 492 782 543 q 797 410 792 440 q 803 388 799 403 q 818 372 807 372 q 833 386 829 372 q 839 407 838 400 l 876 594 q 889 672 883 631 q 902 753 894 713 q 922 829 910 793 q 958 893 935 865 q 1015 938 981 921 q 1101 954 1050 954 q 1190 935 1150 954 q 1257 885 1229 917 q 1299 813 1285 854 q 1314 724 1314 771 q 1306 634 1314 686 q 1285 528 1297 582 q 1260 422 1274 474 q 1233 333 1246 371 q 1187 209 1213 269 q 1122 101 1161 149 q 1028 26 1083 54 q 896 -1 974 -1 q 745 42 799 -1 q 668 179 692 86 q 660 202 665 188 q 644 217 656 217 q 625 199 635 217 q 603 157 615 182 q 574 101 590 132 q 533 46 557 71 q 478 3 510 21 q 404 -14 447 -14 z "},"x":{"ha":1017,"x_min":8,"x_max":1004,"o":"m 317 446 q 263 481 294 456 q 198 540 232 506 q 130 614 164 574 q 69 695 96 654 q 26 774 43 736 q 10 839 10 811 q 28 908 8 876 q 81 964 49 940 q 151 1001 113 988 q 222 1014 189 1014 q 311 983 263 1014 q 406 910 360 953 q 490 820 451 867 q 546 742 528 774 q 589 799 563 764 q 644 867 615 833 q 703 930 674 901 q 758 968 733 958 q 828 981 792 981 q 893 970 861 981 q 950 940 925 960 q 990 892 975 921 q 1004 828 1004 864 q 989 767 1004 803 q 950 692 974 732 q 897 610 926 651 q 836 532 867 569 q 778 465 806 494 q 732 421 751 436 q 808 358 764 392 q 892 288 853 325 q 960 208 932 250 q 988 121 988 167 q 970 58 988 85 q 925 12 953 31 q 865 -17 897 -7 q 800 -26 832 -26 q 719 -11 758 -26 q 659 28 689 1 q 602 89 629 56 q 551 158 575 122 q 510 222 528 193 q 459 141 481 185 q 409 60 438 97 q 341 -3 381 22 q 238 -28 301 -28 q 169 -15 203 -28 q 108 20 135 -3 q 65 76 81 43 q 49 149 49 108 q 76 242 49 199 q 144 322 104 286 q 232 390 185 358 q 317 446 279 421 z "},"y":{"ha":1021,"x_min":7,"x_max":1014,"o":"m 779 994 q 871 984 828 994 q 946 951 914 974 q 996 894 978 929 q 1014 813 1014 860 q 989 672 1014 732 q 926 565 964 613 q 845 478 889 518 q 764 398 801 439 q 701 310 726 357 q 676 201 676 264 q 666 108 676 150 q 634 35 656 65 q 578 -12 613 4 q 497 -29 544 -29 q 416 -11 450 -29 q 360 39 382 7 q 327 115 338 71 q 317 213 317 160 q 294 314 317 271 q 236 395 271 357 q 162 471 201 433 q 88 556 122 508 q 30 665 53 603 q 7 813 7 726 q 30 891 7 856 q 88 951 53 926 q 165 990 124 976 q 246 1003 207 1003 q 326 997 294 1003 q 380 977 358 992 q 416 938 401 963 q 443 875 431 914 q 459 826 451 851 q 474 776 467 801 q 479 752 475 771 q 489 714 483 733 q 500 678 494 694 q 510 663 506 663 q 519 674 517 663 q 524 689 522 685 q 554 793 536 739 q 601 892 572 847 q 674 966 631 938 q 779 994 717 994 z "},"z":{"ha":931,"x_min":21,"x_max":924,"o":"m 328 560 q 315 571 328 569 q 294 572 301 572 q 233 565 263 572 q 171 557 203 557 q 106 579 133 557 q 59 635 78 601 q 31 706 40 668 q 21 775 21 744 q 51 889 21 850 q 130 947 82 928 q 235 969 178 965 q 349 979 293 974 q 518 988 435 988 q 631 983 572 988 q 739 960 690 979 q 819 901 788 942 q 850 789 850 861 q 826 667 850 725 q 765 554 801 608 q 685 451 728 500 q 604 356 642 401 q 574 323 590 339 q 546 288 557 307 q 558 282 550 282 q 654 292 607 282 q 750 301 701 301 q 813 293 782 301 q 869 269 844 285 q 908 229 893 253 q 924 174 924 206 q 892 77 924 111 q 812 28 860 43 q 709 9 764 13 q 608 3 654 6 q 476 -1 542 -1 q 404 0 449 -1 q 309 6 360 1 q 207 22 258 11 q 114 52 156 33 q 47 99 72 71 q 21 167 21 126 q 44 244 21 204 q 101 323 67 283 q 174 400 135 363 q 248 469 214 438 q 305 524 282 500 q 328 560 328 547 z "},"{":{"ha":703,"x_min":76,"x_max":678,"o":"m 200 265 q 156 299 178 283 q 116 328 133 314 q 88 356 99 342 q 76 386 76 369 q 110 447 76 418 q 183 510 143 475 q 205 548 196 521 q 219 611 214 575 q 228 687 225 647 q 234 764 232 726 q 238 831 236 801 q 240 876 239 861 q 280 958 244 926 q 364 1006 315 989 q 466 1029 413 1024 q 558 1035 519 1035 q 614 1033 592 1035 q 649 1020 636 1031 q 667 989 661 1010 q 672 932 672 968 q 662 873 672 894 q 635 839 651 851 q 600 822 619 826 q 562 813 581 817 q 528 806 543 810 q 504 790 513 801 q 501 760 499 785 q 505 701 503 735 q 506 630 507 668 q 493 557 504 592 q 471 513 486 535 q 440 472 456 490 q 414 438 425 453 q 403 414 403 422 q 413 381 403 397 q 435 346 422 364 q 460 307 447 328 q 479 258 474 286 q 489 188 488 224 q 488 119 490 153 q 483 56 486 86 q 481 0 481 25 q 484 -40 481 -25 q 492 -62 488 -54 q 501 -72 496 -69 q 507 -75 506 -74 q 567 -92 536 -89 q 622 -104 597 -96 q 663 -133 647 -112 q 678 -200 678 -154 q 669 -253 678 -232 q 646 -285 661 -274 q 608 -301 631 -297 q 558 -306 586 -306 q 470 -303 515 -306 q 384 -287 425 -300 q 310 -249 343 -275 q 260 -175 278 -222 q 238 -81 244 -135 q 232 15 232 -26 q 233 83 232 44 q 231 157 233 121 q 222 223 229 193 q 200 265 215 253 z "},"|":{"ha":285,"x_min":31,"x_max":254,"o":"m 161 1015 q 210 1003 192 1015 q 238 971 228 990 q 250 927 247 951 q 253 879 253 903 q 251 799 253 839 q 249 718 249 758 q 251 341 249 528 q 254 -36 254 154 q 246 -101 254 -65 q 221 -169 238 -137 q 178 -222 204 -200 q 117 -243 153 -243 q 69 -225 86 -243 q 43 -181 51 -207 q 33 -126 35 -156 q 31 -75 31 -97 q 32 315 31 121 q 33 704 33 508 q 33 758 33 726 q 36 824 33 789 q 47 892 39 858 q 68 954 54 926 q 105 999 82 982 q 161 1015 128 1015 z "},"}":{"ha":703,"x_min":76,"x_max":678,"o":"m 554 265 q 532 223 539 253 q 523 157 525 193 q 522 83 521 121 q 522 15 522 44 q 516 -81 522 -26 q 494 -175 510 -135 q 444 -249 476 -222 q 370 -287 411 -275 q 284 -303 329 -300 q 196 -306 239 -306 q 146 -301 168 -306 q 108 -285 124 -297 q 85 -253 93 -274 q 76 -200 76 -232 q 92 -133 76 -154 q 132 -104 107 -112 q 188 -92 157 -96 q 247 -75 218 -89 q 254 -72 250 -74 q 263 -62 258 -69 q 270 -40 267 -54 q 274 0 274 -25 q 271 56 274 25 q 266 119 268 86 q 265 188 264 153 q 275 258 267 224 q 294 307 282 286 q 319 346 307 328 q 342 381 332 364 q 351 414 351 397 q 340 438 351 422 q 314 472 329 453 q 283 513 299 490 q 261 557 268 535 q 249 630 250 592 q 249 701 247 668 q 253 760 251 735 q 250 790 256 785 q 210 810 238 807 q 153 822 182 813 q 103 853 125 831 q 82 932 82 876 q 88 989 82 968 q 106 1020 93 1010 q 140 1033 118 1031 q 196 1035 163 1035 q 289 1029 236 1035 q 390 1006 342 1024 q 474 958 439 989 q 514 876 510 926 q 517 831 515 861 q 520 764 518 801 q 526 687 522 726 q 535 611 529 647 q 549 548 540 575 q 571 510 558 521 q 644 447 611 475 q 678 386 678 418 q 667 356 678 369 q 638 328 656 342 q 599 299 621 314 q 554 265 576 283 z "},"~":{"ha":685,"x_min":24,"x_max":669,"o":"m 594 610 q 619 608 606 610 q 643 601 632 607 q 662 588 654 596 q 669 564 669 579 q 654 491 669 525 q 614 432 639 457 q 556 393 589 407 q 486 379 522 379 q 411 393 446 379 q 345 424 376 407 q 287 454 314 440 q 235 468 260 468 q 207 457 217 468 q 188 433 197 446 q 164 410 178 421 q 125 399 150 399 q 94 402 111 399 q 61 413 76 406 q 35 433 46 421 q 24 463 24 446 q 35 524 24 490 q 69 585 46 557 q 127 633 92 614 q 210 651 163 651 q 299 636 258 651 q 373 602 339 621 q 435 567 407 583 q 486 551 464 551 q 519 560 508 551 q 538 581 529 569 q 559 601 547 592 q 594 610 571 610 z "},"":{"ha":517,"x_min":22,"x_max":493,"o":"m 403 622 q 390 576 403 596 q 356 542 376 556 q 310 522 335 529 q 261 515 285 515 q 207 520 233 515 q 160 538 181 525 q 128 571 140 550 q 117 625 117 592 q 155 722 117 686 q 253 758 193 758 q 359 724 315 758 q 403 622 403 689 m 272 463 q 293 460 283 463 q 313 451 303 458 q 358 392 336 433 q 400 297 381 351 q 437 180 419 242 q 467 60 454 118 q 486 -48 479 1 q 493 -126 493 -97 q 463 -208 493 -179 q 390 -250 433 -236 q 299 -266 347 -264 q 211 -268 250 -268 q 144 -264 178 -268 q 84 -247 111 -260 q 40 -210 57 -235 q 22 -143 22 -185 q 28 -76 22 -110 q 39 -10 33 -43 q 51 68 44 21 q 70 167 58 115 q 99 272 82 219 q 140 367 115 325 q 197 436 164 410 q 272 463 229 463 z "},"":{"ha":968,"x_min":21,"x_max":947,"o":"m 413 892 q 415 936 413 913 q 427 980 418 960 q 452 1014 436 1000 q 494 1028 468 1028 q 537 1016 519 1028 q 565 985 554 1004 q 579 944 575 967 q 583 901 583 922 q 708 874 649 894 q 817 811 767 853 q 874 752 847 786 q 901 676 901 718 q 890 633 901 654 q 862 594 879 611 q 823 566 844 576 q 779 556 801 556 q 712 569 747 556 q 638 599 676 583 q 560 629 600 615 q 478 643 519 643 q 398 626 435 643 q 335 581 361 610 q 293 513 308 551 q 278 433 278 475 q 293 353 278 390 q 335 290 308 317 q 399 249 363 264 q 479 235 436 235 q 583 256 535 235 q 676 303 631 278 q 763 349 721 328 q 850 371 806 371 q 919 348 892 371 q 947 281 947 325 q 910 185 947 229 q 822 108 874 142 q 711 52 769 75 q 611 18 653 29 q 598 13 604 15 q 586 6 592 11 q 583 -45 586 -18 q 572 -95 581 -72 q 545 -134 563 -118 q 497 -150 528 -150 q 454 -134 471 -150 q 428 -94 438 -118 q 415 -44 418 -71 q 411 3 411 -18 q 249 48 321 11 q 126 143 176 85 q 48 279 75 201 q 21 446 21 357 q 51 610 21 536 q 133 741 81 685 q 256 835 185 797 q 413 892 328 874 z "},"":{"ha":799,"x_min":14,"x_max":776,"o":"m 369 625 q 405 626 388 625 q 440 626 422 626 q 487 625 458 626 q 542 616 515 624 q 587 594 568 608 q 606 553 606 579 q 592 513 606 532 q 560 481 579 494 q 518 460 540 468 q 476 453 496 453 q 456 453 465 453 q 436 454 447 454 q 397 453 417 454 q 357 451 376 451 q 356 400 356 425 q 356 349 356 375 q 356 310 356 333 q 363 263 357 286 q 381 224 368 240 q 415 207 393 207 q 462 219 436 207 q 515 247 488 232 q 570 275 542 263 q 626 288 599 288 q 685 273 658 288 q 733 234 713 258 q 765 180 753 210 q 776 121 776 150 q 760 65 776 90 q 721 22 744 40 q 668 -9 697 3 q 611 -24 639 -21 q 526 -28 569 -28 q 449 -25 494 -28 q 357 -14 403 -22 q 269 9 311 -6 q 204 47 228 24 q 152 132 171 81 q 124 241 133 183 q 113 356 114 299 q 114 457 113 413 q 78 467 96 460 q 47 487 61 475 q 23 515 32 499 q 14 550 14 531 q 26 588 14 574 q 56 611 38 603 q 94 623 74 619 q 133 626 115 626 l 133 631 q 138 660 133 640 q 147 703 142 681 q 158 746 153 725 q 167 778 164 767 q 204 875 182 828 q 259 960 226 922 q 336 1019 292 997 q 439 1042 381 1042 q 577 1004 521 1042 q 658 888 633 967 q 665 860 663 874 q 668 833 668 847 q 649 768 668 799 q 590 738 629 738 q 544 760 560 738 q 519 808 529 782 q 499 856 508 833 q 469 878 489 878 q 427 860 443 878 q 401 817 411 842 q 388 765 392 792 q 381 718 383 738 q 374 675 378 697 q 369 631 369 653 l 369 625 z "},"":{"ha":800,"x_min":21,"x_max":781,"o":"m 28 504 q 50 606 28 557 q 110 693 72 656 q 82 722 97 707 q 53 755 67 738 q 30 791 39 772 q 21 829 21 810 q 35 865 21 853 q 72 878 49 878 q 117 866 96 878 q 156 838 138 854 q 192 801 175 821 q 224 767 208 782 q 432 808 322 808 q 513 801 472 808 q 590 774 554 793 q 619 802 603 786 q 656 832 636 818 q 695 856 675 846 q 733 865 715 865 q 769 851 757 865 q 781 813 781 836 q 772 772 781 790 q 749 740 763 754 q 720 711 736 725 q 690 683 704 697 q 731 603 715 650 q 747 515 747 557 q 722 404 747 457 q 657 311 697 351 q 686 282 669 299 q 717 247 703 265 q 742 208 732 228 q 753 168 753 188 q 736 134 753 144 q 699 124 719 124 q 653 135 674 124 q 613 163 632 146 q 578 199 594 179 q 546 235 561 218 q 451 207 501 215 q 353 199 401 199 q 211 218 282 199 q 153 167 185 192 q 81 143 121 143 q 42 156 57 143 q 26 193 26 169 q 34 225 26 210 q 53 255 42 240 q 76 282 64 269 q 100 306 89 294 q 46 399 64 344 q 28 504 28 453 m 408 344 q 510 388 475 344 q 544 493 544 431 q 509 582 544 551 q 418 613 474 613 q 328 577 365 613 q 292 489 292 542 q 298 435 292 461 q 318 388 304 408 q 354 356 332 368 q 408 344 376 344 z "},"":{"ha":942,"x_min":14,"x_max":925,"o":"m 131 396 q 153 436 131 422 q 206 456 175 450 q 267 463 236 461 q 317 465 299 464 q 267 561 299 514 q 197 653 235 608 q 119 741 158 699 q 46 822 79 783 q 24 855 33 838 q 14 892 14 872 q 31 947 14 924 q 75 985 49 971 q 133 1007 101 1000 q 190 1014 164 1014 q 285 994 249 1014 q 346 942 322 975 q 384 867 369 910 q 413 778 399 824 q 428 722 421 750 q 443 665 436 693 q 449 640 444 660 q 458 599 453 621 q 468 561 463 578 q 479 544 474 544 q 489 556 486 544 q 493 571 492 567 q 520 672 503 611 q 561 792 538 732 q 612 903 585 853 q 668 972 639 953 q 767 1001 713 1001 q 817 995 790 1001 q 869 975 844 989 q 909 941 893 961 q 925 893 925 921 q 908 847 925 871 q 805 710 860 776 q 700 572 750 643 q 643 468 665 522 q 692 466 661 467 q 752 459 722 465 q 803 439 782 453 q 825 397 825 425 q 800 352 825 368 q 741 328 775 336 q 672 319 707 321 q 617 318 638 318 l 617 294 q 671 293 636 294 q 740 284 706 292 q 799 260 774 276 q 824 215 824 244 q 801 167 824 185 q 745 142 778 150 q 678 132 713 133 q 624 131 644 131 q 581 19 624 63 q 469 -25 538 -25 q 387 -4 426 -25 q 329 57 347 17 q 320 94 319 78 q 321 133 321 111 q 292 133 306 133 q 263 132 278 132 q 222 137 244 132 q 181 151 200 142 q 148 178 161 161 q 135 217 135 194 q 158 261 135 246 q 214 283 182 276 q 279 290 246 289 q 332 292 313 290 l 335 319 q 303 319 319 319 q 271 318 286 318 q 230 322 254 318 q 183 334 206 325 q 146 358 161 343 q 131 396 131 374 z "},"":{"ha":303,"x_min":31,"x_max":254,"o":"m 161 1015 q 210 1003 192 1015 q 238 971 228 990 q 250 927 247 951 q 253 879 253 903 q 251 799 253 839 q 249 718 249 758 q 249 596 249 654 q 250 501 250 538 q 240 455 250 475 q 214 422 229 435 q 179 401 199 408 q 140 394 160 394 q 105 400 124 394 q 69 417 86 406 q 42 449 53 429 q 32 497 32 468 q 33 585 32 529 q 33 704 33 642 q 34 792 33 739 q 47 894 35 844 q 85 980 58 944 q 161 1015 111 1015 m 31 215 q 40 278 31 254 q 63 317 49 303 q 93 338 76 332 q 125 343 110 343 q 162 337 140 343 q 203 318 183 331 q 238 286 224 306 q 251 239 251 267 q 253 109 251 175 q 254 -36 254 43 q 246 -101 254 -65 q 221 -169 238 -137 q 178 -222 204 -200 q 117 -243 153 -243 q 69 -225 86 -243 q 43 -181 51 -207 q 33 -126 35 -156 q 31 -75 31 -97 l 31 215 z "},"":{"ha":872,"x_min":18,"x_max":828,"o":"m 433 357 q 465 362 449 357 q 482 382 482 367 q 457 410 482 397 q 393 422 432 422 q 347 409 360 422 q 335 382 335 396 q 345 367 335 372 q 372 359 356 361 q 404 357 388 357 q 433 357 421 357 m 426 43 q 458 48 442 43 q 475 68 475 53 q 442 94 475 86 q 360 109 410 101 q 253 128 311 117 q 146 163 196 139 q 61 227 96 186 q 25 335 26 268 l 25 350 q 53 465 28 418 q 121 543 78 513 q 60 615 83 574 q 36 714 36 656 q 64 824 36 775 q 138 908 92 874 q 247 960 185 942 q 379 979 310 979 q 557 964 465 979 q 725 914 649 949 q 794 860 772 893 q 817 782 817 826 q 806 724 817 753 q 774 672 794 696 q 724 634 754 649 q 657 619 694 619 q 576 632 617 619 q 497 660 535 644 q 424 688 458 675 q 364 700 390 700 q 345 694 353 700 q 338 678 338 689 q 374 644 338 657 q 465 622 410 632 q 583 598 519 611 q 701 561 646 585 q 792 500 756 538 q 828 403 828 463 q 799 300 828 340 q 721 235 771 260 q 793 176 765 211 q 821 89 821 142 q 786 -22 821 21 q 691 -89 751 -65 q 548 -121 631 -112 q 369 -129 465 -129 q 257 -125 318 -129 q 143 -105 196 -121 q 54 -58 90 -89 q 18 28 18 -26 q 41 91 18 63 q 111 119 64 119 q 180 108 142 119 q 259 81 218 96 q 343 55 300 67 q 426 43 386 43 z "},"":{"ha":446,"x_min":15,"x_max":429,"o":"m 208 944 q 199 913 208 926 q 176 891 190 900 q 145 877 163 882 q 113 872 128 872 q 46 888 76 872 q 15 946 15 903 q 40 1011 15 986 q 104 1036 64 1036 q 177 1013 146 1036 q 208 944 208 989 m 429 944 q 420 913 429 926 q 397 891 411 900 q 367 877 383 882 q 335 872 350 872 q 299 876 317 872 q 267 888 281 879 q 244 910 253 896 q 236 946 236 925 q 261 1011 236 986 q 326 1036 286 1036 q 399 1013 368 1036 q 429 944 429 989 z "},"":{"ha":1060,"x_min":21,"x_max":1039,"o":"m 21 499 q 65 706 21 613 q 183 865 108 799 q 356 967 257 931 q 564 1003 454 1003 q 864 901 749 1003 q 1022 625 979 800 q 1039 497 1039 561 q 1022 370 1039 433 q 974 251 1006 307 q 899 147 943 194 q 801 63 856 99 q 663 -1 735 18 q 513 -19 592 -19 q 307 19 399 -19 q 152 128 215 58 q 55 292 89 197 q 21 499 21 388 m 531 96 q 697 131 624 96 q 819 224 769 165 q 896 363 869 283 q 922 529 922 442 q 891 665 922 604 q 809 767 860 725 q 692 833 758 810 q 554 856 625 856 q 413 828 478 856 q 299 754 347 801 q 222 642 250 707 q 194 500 194 576 q 213 344 194 418 q 271 216 231 271 q 375 128 311 161 q 531 96 439 96 m 581 804 q 658 794 617 804 q 733 762 699 783 q 792 709 768 740 q 815 636 815 678 q 810 605 815 621 q 794 576 804 589 q 769 554 783 563 q 739 546 756 546 q 712 552 725 546 q 685 567 699 558 q 656 581 671 575 q 621 588 640 588 q 570 576 593 588 q 531 547 547 565 q 506 504 515 528 q 497 454 497 481 q 517 383 497 415 q 582 350 538 350 q 640 365 615 350 q 685 397 664 379 q 726 428 706 414 q 774 443 747 443 q 826 421 807 443 q 844 367 844 399 q 812 290 844 324 q 733 233 779 256 q 636 198 686 210 q 550 186 586 186 q 433 209 486 186 q 341 272 379 232 q 282 367 303 313 q 261 485 261 422 q 288 605 261 547 q 358 707 314 663 q 460 778 403 751 q 581 804 518 804 z "},"":{"ha":685,"x_min":42,"x_max":643,"o":"m 349 1071 q 468 1043 419 1071 q 549 972 517 1015 q 601 874 582 928 q 629 765 619 819 q 641 663 639 711 q 643 582 643 614 q 632 540 643 560 q 603 508 621 521 q 562 487 585 494 q 515 479 539 479 q 440 494 458 479 q 422 542 422 510 q 413 593 422 572 q 363 614 403 614 q 330 606 343 614 q 308 583 317 597 q 292 552 299 569 q 278 517 285 535 q 240 470 264 482 q 161 458 215 458 q 115 469 136 458 q 76 496 93 479 q 51 533 60 513 q 42 575 42 554 q 45 664 42 613 q 59 771 49 715 q 90 880 69 826 q 145 976 111 933 q 229 1044 179 1018 q 349 1071 279 1071 m 318 769 q 320 744 318 757 q 326 719 322 731 q 338 701 331 708 q 356 694 344 694 q 403 751 403 694 q 400 783 403 767 q 392 813 397 800 q 376 835 386 826 q 353 844 367 844 q 333 838 340 844 q 323 819 326 831 q 319 795 319 808 q 318 769 318 782 z "},"":{"ha":882,"x_min":28,"x_max":850,"o":"m 469 288 q 467 250 469 269 q 456 215 464 231 q 435 190 449 200 q 400 181 422 181 q 313 188 361 181 q 219 212 265 196 q 133 251 172 228 q 72 307 93 275 q 28 451 28 372 q 51 533 28 490 q 115 617 74 576 q 210 690 156 657 q 328 739 265 722 q 369 746 351 746 q 440 722 424 746 q 456 649 456 697 q 436 601 456 622 q 388 564 417 581 q 324 533 358 547 q 261 503 290 518 q 213 469 232 488 q 193 428 193 451 q 201 418 193 421 q 213 414 208 415 q 298 390 253 401 q 381 364 343 378 q 444 332 419 350 q 469 288 469 314 m 850 307 q 847 269 850 289 q 837 235 844 250 q 816 210 829 219 q 781 200 803 200 q 694 208 742 200 q 599 231 646 215 q 513 271 553 247 q 453 326 474 294 q 408 471 408 392 q 431 553 408 510 q 495 636 454 596 q 591 709 536 676 q 708 758 646 742 q 750 765 732 765 q 820 741 804 765 q 836 668 836 717 q 817 621 836 642 q 768 583 797 600 q 705 552 739 567 q 642 522 671 538 q 593 489 613 507 q 574 447 574 471 q 581 438 574 440 q 593 433 589 435 q 678 409 633 421 q 762 383 724 397 q 825 351 800 369 q 850 307 850 333 z "},"":{"ha":794,"x_min":21,"x_max":772,"o":"m 772 475 q 768 415 772 449 q 751 354 764 382 q 717 307 739 326 q 661 288 696 288 q 592 303 615 288 q 561 343 569 318 q 553 401 553 368 q 553 467 553 433 q 538 485 553 485 q 381 481 458 485 q 225 478 304 478 q 163 480 199 478 q 96 491 128 482 q 42 521 64 500 q 21 579 21 542 q 42 642 21 618 q 96 680 64 667 q 163 697 128 693 q 228 701 199 701 q 390 699 310 701 q 553 697 471 697 q 715 638 658 697 q 772 475 772 579 z "},"":{"ha":1061,"x_min":21,"x_max":1040,"o":"m 21 447 q 59 654 21 558 q 165 821 97 750 q 328 932 233 892 q 535 972 422 972 q 745 938 651 972 q 904 838 839 903 q 1005 681 969 774 q 1040 471 1040 588 q 1000 276 1040 369 q 891 112 960 183 q 731 -2 822 40 q 538 -44 640 -44 q 331 -11 425 -44 q 167 85 236 22 q 60 240 99 149 q 21 447 21 332 m 535 71 q 738 128 650 71 q 875 288 825 185 q 914 390 899 336 q 929 497 929 443 q 895 629 929 569 q 807 733 861 689 q 685 801 753 776 q 551 825 618 825 q 395 793 463 825 q 282 706 328 761 q 213 576 236 650 q 190 419 190 503 q 281 164 190 257 q 535 71 371 71 m 488 282 q 463 230 488 246 q 406 214 438 214 q 340 228 364 214 q 303 267 315 243 q 285 323 290 292 q 278 388 281 354 q 274 474 274 432 q 277 547 274 507 q 292 618 281 588 q 337 676 306 654 q 407 713 368 699 q 487 731 446 726 q 561 736 528 736 q 648 728 601 736 q 735 701 694 721 q 803 648 776 681 q 831 565 831 615 q 817 494 831 522 q 781 449 803 465 q 735 424 760 432 q 688 412 710 415 q 651 407 667 408 q 633 401 636 406 q 690 392 657 393 q 756 384 724 390 q 810 362 788 378 q 832 308 832 346 q 822 266 832 286 q 796 231 813 246 q 758 206 779 215 q 717 197 738 197 q 634 216 674 197 q 567 267 594 235 q 551 287 563 271 q 528 320 540 303 q 507 351 517 338 q 494 364 497 364 q 486 358 488 364 q 485 347 485 351 q 486 315 485 331 q 488 282 488 299 m 519 524 q 527 505 519 513 q 547 493 535 497 q 570 487 558 489 q 590 485 582 485 q 610 486 599 485 q 631 491 621 488 q 649 501 642 494 q 656 519 656 508 q 633 555 656 547 q 588 563 610 563 q 566 561 578 563 q 544 556 554 560 q 526 544 533 551 q 519 524 519 536 z "},"":{"ha":718,"x_min":15,"x_max":703,"o":"m 492 1031 q 557 1025 521 1031 q 626 1005 593 1019 q 681 967 658 990 q 703 906 703 943 q 693 868 703 888 q 662 833 681 844 q 622 819 643 822 q 576 816 600 815 q 531 817 553 817 q 412 813 471 817 q 293 808 353 808 q 217 810 264 808 q 124 824 169 813 q 47 858 79 835 q 15 925 15 882 q 31 974 15 953 q 71 1008 47 994 q 122 1028 94 1022 q 174 1035 150 1035 q 231 1032 201 1035 q 288 1029 260 1029 q 390 1029 339 1028 q 492 1031 440 1031 z "},"":{"ha":447,"x_min":17,"x_max":432,"o":"m 432 785 q 414 712 432 746 q 367 653 396 678 q 304 614 339 628 q 235 600 269 600 q 149 609 189 600 q 80 640 110 618 q 33 699 50 661 q 17 793 17 736 q 29 884 17 840 q 67 961 42 928 q 133 1015 93 994 q 226 1035 172 1035 q 432 785 432 1035 m 229 858 q 183 834 197 858 q 169 778 169 810 q 188 726 169 742 q 238 710 206 710 q 278 728 261 710 q 296 774 296 747 q 281 833 296 807 q 229 858 265 858 z "},"":{"ha":732,"x_min":15,"x_max":704,"o":"m 251 749 q 260 813 253 776 q 282 883 267 850 q 322 940 297 917 q 382 963 346 963 q 440 939 419 963 q 471 881 461 915 q 483 810 481 847 q 485 746 485 774 q 547 741 510 743 q 619 731 585 739 q 679 703 654 722 q 704 647 704 683 q 690 605 704 624 q 656 574 675 586 q 569 543 615 546 q 475 540 522 540 q 470 490 472 517 q 464 436 468 463 q 451 385 460 410 q 425 342 442 361 q 393 315 411 326 q 354 304 375 304 q 311 317 332 304 q 265 360 282 333 q 242 417 249 386 q 235 480 235 447 q 238 543 235 513 q 175 548 213 543 q 102 565 138 553 q 41 599 67 578 q 15 653 15 619 q 43 708 15 689 q 109 735 71 726 q 188 744 147 743 q 251 749 228 746 m 201 31 q 148 35 179 31 q 88 51 117 40 q 38 82 58 63 q 17 131 17 101 q 49 183 17 161 q 130 218 81 204 q 240 240 179 232 q 358 251 300 247 q 465 255 417 254 q 539 256 514 256 q 588 253 560 256 q 642 241 617 250 q 685 215 667 232 q 703 171 703 199 q 681 115 703 138 q 626 77 660 92 q 549 56 592 63 q 465 45 507 49 q 387 41 424 42 q 328 39 350 40 q 265 34 296 38 q 201 31 233 31 z "},"":{"ha":639,"x_min":17,"x_max":622,"o":"m 524 731 q 594 701 565 731 q 622 632 622 672 q 596 565 622 588 q 532 531 569 542 q 453 520 494 521 q 382 519 413 519 q 272 519 335 519 q 153 533 210 519 q 56 581 96 547 q 17 682 17 615 q 40 758 17 728 q 97 810 63 789 q 170 844 131 831 q 244 867 210 857 q 301 885 278 876 q 324 907 324 894 q 301 933 324 933 q 263 924 282 933 q 226 903 244 915 q 186 883 207 892 q 142 874 165 874 q 92 885 115 874 q 53 917 69 897 q 27 961 36 936 q 18 1013 18 986 q 51 1094 18 1061 q 133 1149 85 1128 q 232 1178 181 1169 q 321 1188 283 1188 q 419 1174 372 1188 q 501 1134 465 1161 q 558 1066 536 1107 q 579 968 579 1025 q 528 829 579 879 q 396 756 476 779 q 358 746 376 750 q 319 736 339 742 q 300 730 314 735 q 286 719 286 725 q 295 713 286 714 q 307 713 304 713 q 415 722 361 713 q 524 731 469 731 z "},"":{"ha":649,"x_min":25,"x_max":619,"o":"m 349 933 q 344 946 349 940 q 333 951 340 951 q 300 940 319 951 q 258 913 281 928 q 210 886 235 899 q 157 874 185 874 q 71 913 104 874 q 38 1004 38 953 q 69 1098 38 1061 q 147 1156 100 1135 q 247 1185 193 1176 q 344 1193 300 1193 q 432 1188 386 1193 q 517 1165 478 1182 q 583 1116 557 1149 q 608 1029 608 1083 q 597 971 608 999 q 566 920 586 943 q 520 881 546 897 q 465 858 494 865 q 577 815 535 858 q 619 701 619 772 q 598 612 619 650 q 541 549 576 574 q 460 512 506 524 q 369 500 415 500 q 273 508 332 500 q 159 535 214 515 q 65 588 104 554 q 25 674 25 622 q 38 734 25 706 q 89 763 50 763 q 151 747 118 763 q 211 722 183 732 q 313 706 260 706 q 347 710 328 706 q 365 738 365 715 q 338 773 365 767 q 278 781 311 779 q 219 789 246 783 q 192 824 192 794 q 198 852 192 842 q 221 869 204 863 q 251 879 231 874 q 294 892 272 885 q 332 910 315 900 q 349 933 349 921 z "},"":{"ha":378,"x_min":36,"x_max":336,"o":"m 97 685 q 54 702 72 685 q 36 744 36 719 q 44 774 36 753 q 65 824 53 796 q 93 883 78 851 q 123 942 108 914 q 150 990 138 969 q 168 1017 163 1010 q 196 1037 183 1032 q 229 1042 208 1042 q 308 1007 279 1042 q 336 924 336 972 q 315 855 336 889 q 262 790 293 821 q 195 735 231 760 q 132 694 160 710 q 115 687 122 689 q 97 685 108 685 z "},"":{"ha":1083,"x_min":51,"x_max":1058,"o":"m 722 506 q 722 408 722 463 q 717 296 721 353 q 707 184 714 239 q 688 86 700 129 q 656 17 675 43 q 610 -10 638 -10 q 553 0 581 -10 q 507 35 526 10 q 489 65 494 50 q 480 95 483 81 q 474 125 476 110 q 467 157 472 140 q 453 165 464 164 q 436 168 443 167 q 349 181 392 174 q 265 206 307 189 q 167 270 208 229 q 101 364 126 311 q 63 479 75 417 q 51 607 51 542 q 85 781 51 706 q 179 908 119 856 q 319 986 239 960 q 493 1013 400 1013 q 601 1012 540 1011 q 724 1009 661 1013 q 847 995 786 1006 q 954 963 907 985 q 1030 906 1001 942 q 1058 813 1058 869 q 1051 650 1058 726 q 1038 488 1044 574 q 1025 318 1031 404 q 1007 149 1019 232 q 999 101 1004 128 q 984 51 994 75 q 956 10 974 26 q 913 -7 939 -7 q 863 -1 885 -7 q 819 35 842 6 q 783 115 797 65 q 759 228 768 165 q 746 359 750 290 q 740 494 742 428 q 739 621 739 561 q 739 724 739 681 q 736 748 739 739 q 726 757 733 757 q 714 731 714 757 q 718 624 714 681 q 722 506 722 568 z "},"":{"ha":299,"x_min":21,"x_max":278,"o":"m 21 628 q 33 672 21 653 q 63 704 44 690 q 104 725 82 718 q 149 732 126 732 q 240 708 203 732 q 278 624 278 685 q 247 531 278 568 q 157 493 215 493 q 58 529 94 493 q 21 628 21 565 z "},"":{"ha":382,"x_min":22,"x_max":357,"o":"m 22 -154 q 24 -147 22 -151 q 28 -142 25 -142 q 40 -150 32 -142 q 60 -167 47 -158 q 89 -185 72 -176 q 126 -193 106 -193 q 156 -187 142 -193 q 169 -162 169 -182 q 160 -135 169 -147 q 136 -114 150 -122 q 106 -101 122 -106 q 76 -99 90 -97 l 139 26 l 307 29 l 242 -74 q 324 -106 290 -74 q 357 -187 357 -139 q 344 -244 357 -219 q 309 -286 331 -269 q 260 -312 288 -303 q 203 -321 232 -321 q 134 -309 167 -321 q 76 -276 101 -297 q 37 -223 51 -254 q 22 -154 22 -192 z "},"":{"ha":486,"x_min":29,"x_max":406,"o":"m 406 864 q 406 787 406 835 q 399 690 406 739 q 378 601 393 642 q 333 544 364 561 q 299 532 317 535 q 263 529 282 529 q 149 562 193 529 q 106 665 106 594 q 106 683 106 675 q 108 700 107 690 q 115 760 113 729 q 118 821 118 790 q 115 885 118 853 q 100 947 111 917 q 78 952 90 950 q 55 958 65 954 q 37 970 44 963 q 29 990 29 978 q 36 1011 29 1000 q 147 1117 81 1079 q 296 1154 213 1154 q 358 1131 336 1154 q 391 1074 381 1107 q 403 1003 401 1040 q 406 939 406 967 l 406 864 z "},"":{"ha":717,"x_min":26,"x_max":681,"o":"m 353 1075 q 487 1054 426 1075 q 590 994 547 1033 q 657 898 633 954 q 681 771 681 842 q 655 651 681 708 q 585 551 629 594 q 483 483 542 508 q 357 458 424 458 q 228 479 289 458 q 123 539 168 500 q 52 632 78 578 q 26 753 26 686 q 50 879 26 821 q 116 981 74 938 q 219 1050 158 1025 q 353 1075 279 1075 m 275 721 q 295 663 275 685 q 347 642 315 642 q 380 650 364 642 q 408 671 396 658 q 428 699 421 683 q 435 731 435 715 q 428 757 435 744 q 409 778 421 769 q 383 793 397 788 q 356 799 369 799 q 298 778 321 799 q 275 721 275 757 z "},"":{"ha":857,"x_min":14,"x_max":836,"o":"m 14 639 q 17 677 14 658 q 27 711 19 696 q 48 736 35 726 q 83 746 61 746 q 164 739 119 746 q 252 719 208 732 q 335 685 296 706 q 399 636 374 664 q 394 654 394 644 q 397 692 394 674 q 408 726 400 711 q 428 751 415 742 q 464 761 442 761 q 551 753 503 761 q 645 730 599 746 q 731 690 692 714 q 792 635 771 667 q 836 490 836 569 q 813 408 836 451 q 749 325 790 365 q 653 252 708 285 q 536 203 599 219 q 494 196 513 196 q 424 220 440 196 q 408 293 408 244 q 428 341 408 321 q 476 378 447 361 q 540 409 506 394 q 603 440 574 424 q 651 473 632 456 q 671 514 671 490 q 663 524 671 521 q 651 528 656 526 q 586 547 621 538 q 519 565 551 556 q 459 587 486 575 q 415 614 432 599 q 456 475 456 550 q 433 393 456 436 q 369 310 410 350 q 273 237 328 269 q 156 188 218 204 q 114 181 132 181 q 44 205 60 181 q 28 278 28 229 q 47 326 28 306 q 96 363 67 346 q 159 394 125 379 q 222 424 193 408 q 271 458 251 440 q 290 499 290 475 q 283 508 290 506 q 271 513 275 511 q 185 537 231 525 q 102 563 140 549 q 39 594 64 576 q 14 639 14 613 z "},"":{"ha":1333,"x_min":26,"x_max":1297,"o":"m 1297 306 q 1297 227 1297 276 q 1290 127 1296 178 q 1269 33 1283 76 q 1225 -26 1254 -10 q 1190 -40 1207 -37 q 1154 -42 1174 -42 q 1050 -15 1086 -42 q 1014 81 1014 11 q 998 93 1014 92 q 975 94 982 94 q 924 93 950 94 q 872 92 899 92 q 810 96 842 92 q 755 113 779 100 q 715 147 731 125 q 700 207 700 169 q 707 271 700 239 q 719 335 714 303 q 732 415 725 369 q 756 501 739 461 q 802 570 772 542 q 882 599 832 599 q 970 563 944 599 q 996 472 996 526 q 988 399 996 435 q 969 328 981 363 q 958 291 964 308 q 953 254 953 274 q 985 222 953 222 q 1011 246 1004 222 q 1019 306 1018 269 q 1020 386 1021 342 q 1025 471 1019 431 q 1045 544 1031 511 q 1092 590 1060 576 q 1120 599 1106 597 q 1150 600 1135 600 q 1184 598 1167 600 q 1217 586 1201 596 q 1262 533 1246 568 q 1286 458 1278 499 q 1296 376 1294 417 q 1297 306 1297 335 m 403 725 q 403 648 403 696 q 397 551 403 600 q 376 463 390 503 q 331 406 361 422 q 297 393 314 396 q 260 390 279 390 q 147 423 190 390 q 103 526 103 456 q 103 544 103 536 q 106 561 104 551 q 113 621 110 590 q 115 682 115 651 q 112 746 115 714 q 97 808 108 778 q 75 813 88 811 q 52 819 63 815 q 34 831 42 824 q 26 851 26 839 q 33 872 26 861 q 144 978 78 940 q 293 1015 210 1015 q 356 992 333 1015 q 388 935 378 968 q 401 865 399 901 q 403 800 403 828 l 403 725 m 867 975 q 931 947 906 975 q 956 881 956 918 q 933 814 956 844 q 847 688 890 750 q 760 560 803 625 q 606 326 682 443 q 450 94 531 210 q 387 31 424 58 q 303 3 350 3 q 239 24 265 3 q 213 86 213 46 q 219 126 213 107 q 238 163 226 144 q 307 271 269 218 q 381 376 344 324 q 551 624 467 501 q 721 872 635 747 q 749 909 733 890 q 782 942 764 928 q 822 966 800 957 q 867 975 843 975 z "},"":{"ha":1386,"x_min":26,"x_max":1333,"o":"m 1235 153 q 1305 124 1276 153 q 1333 54 1333 94 q 1307 -13 1333 10 q 1243 -47 1281 -36 q 1165 -58 1206 -57 q 1093 -58 1124 -58 q 983 -58 1046 -58 q 864 -44 921 -58 q 767 3 807 -31 q 728 104 728 38 q 751 181 728 150 q 808 232 774 211 q 881 266 842 253 q 955 289 921 279 q 1012 308 989 299 q 1035 329 1035 317 q 1013 356 1035 356 q 974 347 993 356 q 937 326 956 338 q 897 305 918 314 q 853 296 876 296 q 803 308 826 296 q 764 339 781 319 q 738 383 747 358 q 729 435 729 408 q 763 517 729 483 q 844 571 796 550 q 943 601 892 592 q 1032 610 994 610 q 1130 597 1083 610 q 1212 556 1176 583 q 1269 488 1247 529 q 1290 390 1290 447 q 1239 251 1290 301 q 1107 178 1188 201 q 1069 168 1088 172 q 1031 158 1050 164 q 1011 152 1025 157 q 997 142 997 147 q 1006 135 997 136 q 1018 135 1015 135 q 1126 144 1072 135 q 1235 153 1181 153 m 403 725 q 403 648 403 696 q 397 551 403 600 q 376 463 390 503 q 331 406 361 422 q 297 393 314 396 q 260 390 279 390 q 147 423 190 390 q 103 526 103 456 q 103 544 103 536 q 106 561 104 551 q 113 621 110 590 q 115 682 115 651 q 112 746 115 714 q 97 808 108 778 q 75 813 88 811 q 52 819 63 815 q 34 831 42 824 q 26 851 26 839 q 33 872 26 861 q 144 978 78 940 q 293 1015 210 1015 q 356 992 333 1015 q 388 935 378 968 q 401 865 399 901 q 403 800 403 828 l 403 725 m 867 975 q 931 947 906 975 q 956 881 956 918 q 933 814 956 844 q 847 688 890 750 q 760 560 803 625 q 606 326 682 443 q 450 94 531 210 q 387 31 424 58 q 303 3 350 3 q 239 24 265 3 q 213 86 213 46 q 219 126 213 107 q 238 163 226 144 q 307 271 269 218 q 381 376 344 324 q 551 624 467 501 q 721 872 635 747 q 749 909 733 890 q 782 942 764 928 q 822 966 800 957 q 867 975 843 975 z "},"":{"ha":1561,"x_min":43,"x_max":1472,"o":"m 367 810 q 363 822 367 817 q 351 828 358 828 q 318 816 338 828 q 276 790 299 804 q 228 763 253 775 q 175 750 203 750 q 89 790 122 750 q 56 881 56 829 q 87 974 56 938 q 165 1032 118 1011 q 265 1061 211 1053 q 363 1069 318 1069 q 450 1064 404 1069 q 535 1042 496 1058 q 601 992 575 1025 q 626 906 626 960 q 615 847 626 875 q 584 797 604 819 q 538 758 564 774 q 483 735 513 742 q 595 692 553 735 q 638 578 638 649 q 616 488 638 526 q 559 425 594 450 q 478 388 524 400 q 388 376 433 376 q 291 384 350 376 q 177 411 232 392 q 83 465 122 431 q 43 550 43 499 q 56 610 43 582 q 107 639 68 639 q 169 624 136 639 q 229 599 201 608 q 331 582 278 582 q 365 587 346 582 q 383 614 383 592 q 356 649 383 643 q 297 658 329 656 q 237 665 264 660 q 210 700 210 671 q 216 728 210 718 q 239 746 222 739 q 269 756 249 750 q 312 769 290 761 q 350 787 333 776 q 367 810 367 797 m 1042 975 q 1106 947 1081 975 q 1131 881 1131 918 q 1108 814 1131 844 q 1022 688 1065 750 q 935 560 978 625 q 781 326 857 443 q 625 94 706 210 q 562 31 599 58 q 478 3 525 3 q 414 24 440 3 q 388 86 388 46 q 394 126 388 107 q 413 163 401 144 q 482 271 444 218 q 556 376 519 324 q 726 624 642 501 q 896 872 810 747 q 924 909 908 890 q 957 942 939 928 q 997 966 975 957 q 1042 975 1018 975 m 1472 306 q 1472 227 1472 276 q 1465 127 1471 178 q 1444 33 1458 76 q 1400 -26 1429 -10 q 1365 -40 1382 -37 q 1329 -42 1349 -42 q 1225 -15 1261 -42 q 1189 81 1189 11 q 1173 93 1189 92 q 1150 94 1157 94 q 1099 93 1125 94 q 1047 92 1074 92 q 985 96 1017 92 q 930 113 954 100 q 890 147 906 125 q 875 207 875 169 q 882 271 875 239 q 894 335 889 303 q 907 415 900 369 q 931 501 914 461 q 977 570 947 542 q 1057 599 1007 599 q 1145 563 1119 599 q 1171 472 1171 526 q 1163 399 1171 435 q 1144 328 1156 363 q 1133 291 1139 308 q 1128 254 1128 274 q 1160 222 1128 222 q 1186 246 1179 222 q 1194 306 1193 269 q 1195 386 1196 342 q 1200 471 1194 431 q 1220 544 1206 511 q 1267 590 1235 576 q 1295 599 1281 597 q 1325 600 1310 600 q 1359 598 1342 600 q 1392 586 1376 596 q 1437 533 1421 568 q 1461 458 1453 499 q 1471 376 1469 417 q 1472 306 1472 335 z "},"":{"ha":879,"x_min":22,"x_max":858,"o":"m 631 651 q 617 605 631 625 q 583 572 604 585 q 538 551 563 558 q 489 544 513 544 q 435 549 461 544 q 388 567 408 554 q 356 600 368 579 q 344 654 344 621 q 383 751 344 715 q 481 788 421 788 q 587 753 543 788 q 631 651 631 718 m 517 511 q 626 477 588 511 q 664 369 664 443 q 644 295 664 325 q 594 244 624 265 q 528 210 564 224 q 463 184 493 196 q 413 160 433 172 q 393 131 393 147 q 400 103 393 114 q 426 92 407 92 q 485 106 456 92 q 544 138 514 121 q 608 170 575 156 q 678 185 640 185 q 749 169 715 185 q 806 126 782 153 q 844 65 831 99 q 858 -7 858 31 q 828 -107 858 -58 q 749 -176 803 -146 q 631 -226 694 -206 q 505 -258 568 -247 q 397 -268 442 -268 q 262 -253 329 -268 q 141 -203 194 -237 q 55 -115 88 -169 q 22 19 22 -60 q 37 126 22 81 q 79 207 51 172 q 148 268 107 242 q 243 315 189 294 q 301 333 269 325 q 356 353 332 342 q 366 370 364 357 q 370 401 368 383 q 378 438 372 419 q 399 474 383 457 q 442 501 414 490 q 517 511 469 511 z "},"":{"ha":946,"x_min":21,"x_max":919,"o":"m 481 972 q 658 928 585 972 q 781 814 732 885 q 857 655 829 743 q 899 479 885 567 q 916 312 913 392 q 919 179 919 232 q 903 110 919 142 q 860 56 888 78 q 799 21 833 33 q 729 8 765 8 q 660 15 688 8 q 617 33 632 21 q 595 66 601 46 q 589 114 589 86 q 574 185 589 163 q 501 208 560 208 q 452 194 472 208 q 419 158 432 181 q 395 106 406 135 q 374 46 385 76 q 350 -2 364 17 q 317 -32 336 -21 q 269 -47 297 -43 q 199 -51 240 -51 q 129 -34 161 -51 q 73 10 97 -17 q 35 73 49 38 q 21 143 21 108 q 26 292 21 207 q 47 470 31 378 q 94 653 64 563 q 176 814 125 743 q 301 928 226 885 q 481 972 376 972 m 433 468 q 436 426 433 449 q 445 385 439 404 q 463 354 451 367 q 490 342 474 342 q 542 365 522 342 q 561 438 561 389 q 558 490 561 463 q 545 541 554 518 q 522 579 536 564 q 486 594 507 594 q 458 582 468 594 q 442 551 447 569 q 435 510 436 532 q 433 468 433 488 m 294 1228 q 306 1270 294 1253 q 337 1298 318 1288 q 378 1313 356 1308 q 421 1318 400 1318 q 457 1315 444 1318 q 488 1294 469 1311 q 506 1270 492 1290 q 538 1223 519 1250 q 577 1164 557 1196 q 614 1105 597 1132 q 642 1059 631 1078 q 653 1038 653 1040 q 644 1018 653 1026 q 625 1005 636 1010 q 601 997 614 1000 q 579 994 588 994 q 499 1018 547 994 q 405 1077 450 1042 q 327 1153 360 1113 q 294 1228 294 1194 z "},"":{"ha":946,"x_min":21,"x_max":919,"o":"m 481 972 q 658 928 585 972 q 781 814 732 885 q 857 655 829 743 q 899 479 885 567 q 916 312 913 392 q 919 179 919 232 q 903 110 919 142 q 860 56 888 78 q 799 21 833 33 q 729 8 765 8 q 660 15 688 8 q 617 33 632 21 q 595 66 601 46 q 589 114 589 86 q 574 185 589 163 q 501 208 560 208 q 452 194 472 208 q 419 158 432 181 q 395 106 406 135 q 374 46 385 76 q 350 -2 364 17 q 317 -32 336 -21 q 269 -47 297 -43 q 199 -51 240 -51 q 129 -34 161 -51 q 73 10 97 -17 q 35 73 49 38 q 21 143 21 108 q 25 280 21 201 q 42 443 29 358 q 81 613 56 528 q 147 769 106 697 q 248 892 188 840 q 393 963 308 943 q 344 977 365 963 q 324 1022 324 992 q 332 1052 324 1031 q 353 1101 340 1074 q 381 1160 365 1129 q 410 1219 396 1192 q 437 1267 425 1247 q 456 1294 449 1288 q 483 1315 471 1310 q 517 1319 496 1319 q 595 1285 567 1319 q 624 1201 624 1250 q 602 1133 624 1167 q 549 1068 581 1099 q 483 1013 518 1038 q 419 972 447 988 q 412 968 415 969 q 404 965 408 967 q 441 970 422 968 q 481 972 460 972 m 433 468 q 436 426 433 449 q 445 385 439 404 q 463 354 451 367 q 490 342 474 342 q 542 365 522 342 q 561 438 561 389 q 558 490 561 463 q 545 541 554 518 q 522 579 536 564 q 486 594 507 594 q 458 582 468 594 q 442 551 447 569 q 435 510 436 532 q 433 468 433 488 z "},"":{"ha":946,"x_min":21,"x_max":919,"o":"m 481 972 q 658 928 585 972 q 781 814 732 885 q 857 655 829 743 q 899 479 885 567 q 916 312 913 392 q 919 179 919 232 q 903 110 919 142 q 860 56 888 78 q 799 21 833 33 q 729 8 765 8 q 660 15 688 8 q 617 33 632 21 q 595 66 601 46 q 589 114 589 86 q 574 185 589 163 q 501 208 560 208 q 452 194 472 208 q 419 158 432 181 q 395 106 406 135 q 374 46 385 76 q 350 -2 364 17 q 317 -32 336 -21 q 269 -47 297 -43 q 199 -51 240 -51 q 129 -34 161 -51 q 73 10 97 -17 q 35 73 49 38 q 21 143 21 108 q 26 292 21 207 q 47 470 31 378 q 94 653 64 563 q 176 814 125 743 q 301 928 226 885 q 481 972 376 972 m 433 468 q 436 426 433 449 q 445 385 439 404 q 463 354 451 367 q 490 342 474 342 q 542 365 522 342 q 561 438 561 389 q 558 490 561 463 q 545 541 554 518 q 522 579 536 564 q 486 594 507 594 q 458 582 468 594 q 442 551 447 569 q 435 510 436 532 q 433 468 433 488 m 482 1163 q 456 1137 468 1157 q 425 1094 443 1117 q 381 1054 407 1072 q 310 1036 354 1036 q 280 1039 296 1036 q 249 1049 264 1042 q 225 1068 235 1057 q 215 1096 215 1079 q 219 1114 215 1106 q 229 1129 224 1122 q 278 1194 251 1161 q 335 1255 304 1228 q 402 1299 365 1282 q 482 1317 439 1317 q 557 1298 514 1317 q 639 1250 600 1279 q 704 1185 678 1221 q 731 1114 731 1149 q 708 1064 731 1082 q 654 1046 685 1046 q 605 1057 629 1046 q 558 1085 581 1068 q 515 1124 535 1103 q 482 1163 496 1144 z "},"":{"ha":946,"x_min":21,"x_max":919,"o":"m 481 972 q 658 928 585 972 q 781 814 732 885 q 857 655 829 743 q 899 479 885 567 q 916 312 913 392 q 919 179 919 232 q 903 110 919 142 q 860 56 888 78 q 799 21 833 33 q 729 8 765 8 q 660 15 688 8 q 617 33 632 21 q 595 66 601 46 q 589 114 589 86 q 574 185 589 163 q 501 208 560 208 q 452 194 472 208 q 419 158 432 181 q 395 106 406 135 q 374 46 385 76 q 350 -2 364 17 q 317 -32 336 -21 q 269 -47 297 -43 q 199 -51 240 -51 q 129 -34 161 -51 q 73 10 97 -17 q 35 73 49 38 q 21 143 21 108 q 26 292 21 207 q 47 470 31 378 q 94 653 64 563 q 176 814 125 743 q 301 928 226 885 q 481 972 376 972 m 433 468 q 436 426 433 449 q 445 385 439 404 q 463 354 451 367 q 490 342 474 342 q 542 365 522 342 q 561 438 561 389 q 558 490 561 463 q 545 541 554 518 q 522 579 536 564 q 486 594 507 594 q 458 582 468 594 q 442 551 447 569 q 435 510 436 532 q 433 468 433 488 m 706 1301 q 746 1289 729 1301 q 763 1250 763 1276 q 741 1188 763 1221 q 688 1128 719 1156 q 622 1083 657 1101 q 558 1065 586 1065 q 513 1075 533 1065 q 474 1097 493 1085 q 439 1118 456 1108 q 406 1128 422 1128 q 374 1115 390 1128 q 340 1087 358 1103 q 299 1058 321 1071 q 247 1046 276 1046 q 203 1060 221 1046 q 185 1103 185 1075 q 206 1165 185 1131 q 256 1232 226 1200 q 321 1285 286 1264 q 382 1307 356 1307 q 428 1294 407 1307 q 466 1266 449 1282 q 499 1238 483 1250 q 531 1225 514 1225 q 558 1237 539 1225 q 600 1263 576 1249 q 651 1290 624 1278 q 706 1301 679 1301 z "},"":{"ha":946,"x_min":21,"x_max":919,"o":"m 481 972 q 658 928 585 972 q 781 814 732 885 q 857 655 829 743 q 899 479 885 567 q 916 312 913 392 q 919 179 919 232 q 903 110 919 142 q 860 56 888 78 q 799 21 833 33 q 729 8 765 8 q 660 15 688 8 q 617 33 632 21 q 595 66 601 46 q 589 114 589 86 q 574 185 589 163 q 501 208 560 208 q 452 194 472 208 q 419 158 432 181 q 395 106 406 135 q 374 46 385 76 q 350 -2 364 17 q 317 -32 336 -21 q 269 -47 297 -43 q 199 -51 240 -51 q 129 -34 161 -51 q 73 10 97 -17 q 35 73 49 38 q 21 143 21 108 q 26 292 21 207 q 47 470 31 378 q 94 653 64 563 q 176 814 125 743 q 301 928 226 885 q 481 972 376 972 m 433 468 q 436 426 433 449 q 445 385 439 404 q 463 354 451 367 q 490 342 474 342 q 542 365 522 342 q 561 438 561 389 q 558 490 561 463 q 545 541 554 518 q 522 579 536 564 q 486 594 507 594 q 458 582 468 594 q 442 551 447 569 q 435 510 436 532 q 433 468 433 488 m 460 1222 q 451 1191 460 1204 q 428 1169 442 1178 q 397 1155 414 1160 q 364 1150 379 1150 q 297 1165 328 1150 q 267 1224 267 1181 q 291 1289 267 1264 q 356 1314 315 1314 q 428 1290 397 1314 q 460 1222 460 1267 m 681 1222 q 672 1191 681 1204 q 649 1169 663 1178 q 618 1155 635 1160 q 586 1150 601 1150 q 550 1153 568 1150 q 518 1165 532 1157 q 496 1188 504 1174 q 488 1224 488 1203 q 513 1289 488 1264 q 578 1314 538 1314 q 650 1290 619 1314 q 681 1222 681 1267 z "},"":{"ha":946,"x_min":21,"x_max":919,"o":"m 481 972 q 658 928 585 972 q 781 814 732 885 q 857 655 829 743 q 899 479 885 567 q 916 312 913 392 q 919 179 919 232 q 903 110 919 142 q 860 56 888 78 q 799 21 833 33 q 729 8 765 8 q 660 15 688 8 q 617 33 632 21 q 595 66 601 46 q 589 114 589 86 q 574 185 589 163 q 501 208 560 208 q 452 194 472 208 q 419 158 432 181 q 395 106 406 135 q 374 46 385 76 q 350 -2 364 17 q 317 -32 336 -21 q 269 -47 297 -43 q 199 -51 240 -51 q 129 -34 161 -51 q 73 10 97 -17 q 35 73 49 38 q 21 143 21 108 q 26 292 21 207 q 47 470 31 378 q 94 653 64 563 q 176 814 125 743 q 301 928 226 885 q 481 972 376 972 m 433 468 q 436 426 433 449 q 445 385 439 404 q 463 354 451 367 q 490 342 474 342 q 542 365 522 342 q 561 438 561 389 q 558 490 561 463 q 545 541 554 518 q 522 579 536 564 q 486 594 507 594 q 458 582 468 594 q 442 551 447 569 q 435 510 436 532 q 433 468 433 488 m 636 1133 q 622 1080 636 1104 q 586 1038 608 1056 q 536 1010 564 1021 q 482 1000 508 1000 q 415 1006 446 1000 q 360 1028 383 1013 q 324 1072 338 1044 q 311 1139 311 1099 q 321 1204 311 1172 q 349 1260 331 1236 q 396 1298 368 1283 q 461 1313 424 1313 q 589 1263 542 1313 q 636 1133 636 1213 m 506 1196 q 469 1178 481 1196 q 458 1138 458 1161 q 511 1089 458 1089 q 544 1102 531 1089 q 557 1135 557 1115 q 545 1177 557 1158 q 506 1196 533 1196 z "},"":{"ha":1508,"x_min":21,"x_max":1481,"o":"m 481 972 q 621 946 560 972 q 728 875 682 919 q 861 938 786 917 q 1025 958 936 958 l 1150 958 q 1240 952 1186 958 q 1342 928 1293 946 q 1427 879 1392 910 q 1463 800 1463 849 q 1453 727 1463 763 q 1425 665 1444 692 q 1376 621 1406 638 q 1303 604 1346 604 q 1215 610 1258 604 q 1126 615 1171 615 q 1088 613 1114 615 q 1035 605 1061 611 q 988 588 1008 599 q 968 560 968 578 q 976 543 968 550 q 994 532 983 536 q 1015 526 1004 528 q 1035 525 1026 525 q 1142 529 1088 525 q 1249 533 1196 533 q 1288 532 1267 533 q 1328 524 1310 531 q 1358 504 1346 518 q 1371 465 1371 490 q 1338 372 1371 394 q 1238 349 1304 349 l 1019 349 q 1001 348 1013 349 q 980 344 990 347 q 963 336 969 342 q 956 319 956 331 q 976 290 956 301 q 1024 271 997 278 q 1078 262 1051 264 q 1119 260 1106 260 q 1239 269 1181 260 q 1357 288 1297 278 q 1372 290 1364 289 q 1388 290 1381 290 q 1436 277 1418 290 q 1464 243 1454 264 q 1477 197 1474 222 q 1481 149 1481 172 q 1476 103 1481 122 q 1453 64 1472 83 q 1386 32 1432 46 q 1288 8 1340 18 q 1185 -6 1235 -1 q 1106 -10 1135 -10 q 942 -5 1018 -10 q 804 22 867 0 q 767 12 786 15 q 729 8 749 8 q 660 15 688 8 q 617 33 632 21 q 595 66 601 46 q 589 114 589 86 q 574 185 589 163 q 501 208 560 208 q 452 194 472 208 q 419 158 432 181 q 395 106 406 135 q 374 46 385 76 q 350 -2 364 17 q 317 -32 336 -21 q 269 -47 297 -43 q 199 -51 240 -51 q 129 -34 161 -51 q 73 10 97 -17 q 35 73 49 38 q 21 143 21 108 q 26 292 21 207 q 47 470 31 378 q 94 653 64 563 q 176 814 125 743 q 301 928 226 885 q 481 972 376 972 m 433 468 q 436 426 433 449 q 445 385 439 404 q 463 354 451 367 q 490 342 474 342 q 542 365 522 342 q 561 438 561 389 q 558 490 561 463 q 545 541 554 518 q 522 579 536 564 q 486 594 507 594 q 458 582 468 594 q 442 551 447 569 q 435 510 436 532 q 433 468 433 488 z "},"":{"ha":1051,"x_min":21,"x_max":1029,"o":"m 575 953 q 699 938 629 953 q 832 890 769 922 q 937 809 894 858 q 979 693 979 760 q 969 640 979 667 q 942 592 960 614 q 899 557 924 571 q 847 543 875 543 q 800 553 824 543 q 751 576 776 564 q 699 598 726 588 q 642 608 672 608 q 558 592 597 608 q 491 547 519 575 q 447 479 463 518 q 431 396 431 440 q 440 333 431 363 q 469 283 450 304 q 515 248 488 261 q 576 235 542 235 q 678 258 636 235 q 756 309 721 281 q 827 360 792 338 q 910 383 863 383 q 996 349 963 383 q 1029 263 1029 315 q 1008 187 1029 222 q 953 122 988 151 q 874 67 918 92 q 783 26 829 43 q 693 -3 738 8 q 613 -19 649 -15 l 578 -74 q 660 -106 626 -74 q 693 -187 693 -139 q 680 -244 693 -219 q 645 -286 667 -269 q 596 -312 624 -303 q 539 -321 568 -321 q 470 -309 503 -321 q 413 -276 438 -297 q 373 -223 388 -254 q 358 -154 358 -192 q 360 -147 358 -151 q 364 -142 361 -142 q 376 -150 368 -142 q 396 -167 383 -158 q 425 -185 408 -176 q 463 -193 442 -193 q 492 -187 478 -193 q 506 -162 506 -182 q 496 -135 506 -147 q 472 -114 486 -122 q 442 -101 458 -106 q 413 -99 426 -97 l 451 -21 q 283 28 361 -10 q 146 125 204 65 q 54 265 88 185 q 21 442 21 344 q 43 578 21 513 q 104 700 65 643 q 196 803 143 757 q 310 883 249 850 q 440 935 372 917 q 575 953 507 953 z "},"":{"ha":951,"x_min":21,"x_max":924,"o":"m 563 260 q 682 269 624 260 q 800 288 740 278 q 815 290 807 289 q 831 290 824 290 q 879 277 861 290 q 907 243 897 264 q 920 197 917 222 q 924 149 924 172 q 919 103 924 122 q 896 64 915 83 q 829 32 875 46 q 731 8 783 18 q 628 -6 678 -1 q 549 -10 578 -10 q 367 -3 451 -10 q 215 35 282 4 q 105 131 149 67 q 44 308 61 194 q 28 426 36 367 q 21 546 21 486 q 53 726 21 649 q 146 856 86 804 q 288 933 206 907 q 468 958 369 958 l 593 958 q 683 952 629 958 q 785 928 736 946 q 870 879 835 910 q 906 800 906 849 q 897 727 906 763 q 868 665 888 692 q 819 621 849 638 q 746 604 789 604 q 658 610 701 604 q 569 615 614 615 q 531 613 557 615 q 478 605 504 611 q 431 588 451 599 q 411 560 411 578 q 419 543 411 550 q 437 532 426 536 q 458 526 447 528 q 478 525 469 525 q 585 529 531 525 q 692 533 639 533 q 731 532 710 533 q 771 524 753 531 q 801 504 789 518 q 814 465 814 490 q 781 372 814 394 q 681 349 747 349 l 463 349 q 444 348 456 349 q 423 344 433 347 q 406 336 413 342 q 399 319 399 331 q 419 290 399 301 q 467 271 440 278 q 522 262 494 264 q 563 260 549 260 m 297 1228 q 309 1270 297 1253 q 340 1298 321 1288 q 381 1313 358 1308 q 424 1318 403 1318 q 460 1315 447 1318 q 490 1294 472 1311 q 508 1270 494 1290 q 541 1223 522 1250 q 580 1164 560 1196 q 617 1105 600 1132 q 644 1059 633 1078 q 656 1038 656 1040 q 647 1018 656 1026 q 628 1005 639 1010 q 603 997 617 1000 q 582 994 590 994 q 501 1018 550 994 q 408 1077 453 1042 q 330 1153 363 1113 q 297 1228 297 1194 z "},"":{"ha":951,"x_min":21,"x_max":924,"o":"m 563 260 q 682 269 624 260 q 800 288 740 278 q 815 290 807 289 q 831 290 824 290 q 879 277 861 290 q 907 243 897 264 q 920 197 917 222 q 924 149 924 172 q 919 103 924 122 q 896 64 915 83 q 829 32 875 46 q 731 8 783 18 q 628 -6 678 -1 q 549 -10 578 -10 q 367 -3 451 -10 q 215 35 282 4 q 105 131 149 67 q 44 308 61 194 q 28 426 36 367 q 21 546 21 486 q 53 726 21 649 q 146 856 86 804 q 288 933 206 907 q 468 958 369 958 l 593 958 q 683 952 629 958 q 785 928 736 946 q 870 879 835 910 q 906 800 906 849 q 897 727 906 763 q 868 665 888 692 q 819 621 849 638 q 746 604 789 604 q 658 610 701 604 q 569 615 614 615 q 531 613 557 615 q 478 605 504 611 q 431 588 451 599 q 411 560 411 578 q 419 543 411 550 q 437 532 426 536 q 458 526 447 528 q 478 525 469 525 q 585 529 531 525 q 692 533 639 533 q 731 532 710 533 q 771 524 753 531 q 801 504 789 518 q 814 465 814 490 q 781 372 814 394 q 681 349 747 349 l 463 349 q 444 348 456 349 q 423 344 433 347 q 406 336 413 342 q 399 319 399 331 q 419 290 399 301 q 467 271 440 278 q 522 262 494 264 q 563 260 549 260 m 388 963 q 344 980 363 963 q 326 1022 326 997 q 335 1052 326 1031 q 356 1101 343 1074 q 383 1160 368 1129 q 413 1219 399 1192 q 440 1267 428 1247 q 458 1294 451 1288 q 486 1315 474 1310 q 519 1319 499 1319 q 598 1285 569 1319 q 626 1201 626 1250 q 605 1133 626 1167 q 552 1068 583 1099 q 485 1013 521 1038 q 422 972 450 988 q 406 965 413 967 q 388 963 399 963 z "},"":{"ha":951,"x_min":21,"x_max":924,"o":"m 563 260 q 682 269 624 260 q 800 288 740 278 q 815 290 807 289 q 831 290 824 290 q 879 277 861 290 q 907 243 897 264 q 920 197 917 222 q 924 149 924 172 q 919 103 924 122 q 896 64 915 83 q 829 32 875 46 q 731 8 783 18 q 628 -6 678 -1 q 549 -10 578 -10 q 367 -3 451 -10 q 215 35 282 4 q 105 131 149 67 q 44 308 61 194 q 28 426 36 367 q 21 546 21 486 q 53 726 21 649 q 146 856 86 804 q 288 933 206 907 q 468 958 369 958 l 593 958 q 683 952 629 958 q 785 928 736 946 q 870 879 835 910 q 906 800 906 849 q 897 727 906 763 q 868 665 888 692 q 819 621 849 638 q 746 604 789 604 q 658 610 701 604 q 569 615 614 615 q 531 613 557 615 q 478 605 504 611 q 431 588 451 599 q 411 560 411 578 q 419 543 411 550 q 437 532 426 536 q 458 526 447 528 q 478 525 469 525 q 585 529 531 525 q 692 533 639 533 q 731 532 710 533 q 771 524 753 531 q 801 504 789 518 q 814 465 814 490 q 781 372 814 394 q 681 349 747 349 l 463 349 q 444 348 456 349 q 423 344 433 347 q 406 336 413 342 q 399 319 399 331 q 419 290 399 301 q 467 271 440 278 q 522 262 494 264 q 563 260 549 260 m 485 1163 q 458 1137 471 1157 q 428 1094 446 1117 q 383 1054 410 1072 q 313 1036 357 1036 q 283 1039 299 1036 q 252 1049 267 1042 q 228 1068 238 1057 q 218 1096 218 1079 q 222 1114 218 1106 q 232 1129 226 1122 q 281 1194 254 1161 q 338 1255 307 1228 q 405 1299 368 1282 q 485 1317 442 1317 q 560 1298 517 1317 q 642 1250 603 1279 q 707 1185 681 1221 q 733 1114 733 1149 q 710 1064 733 1082 q 657 1046 688 1046 q 608 1057 632 1046 q 560 1085 583 1068 q 518 1124 538 1103 q 485 1163 499 1144 z "},"":{"ha":951,"x_min":21,"x_max":924,"o":"m 563 260 q 682 269 624 260 q 800 288 740 278 q 815 290 807 289 q 831 290 824 290 q 879 277 861 290 q 907 243 897 264 q 920 197 917 222 q 924 149 924 172 q 919 103 924 122 q 896 64 915 83 q 829 32 875 46 q 731 8 783 18 q 628 -6 678 -1 q 549 -10 578 -10 q 367 -3 451 -10 q 215 35 282 4 q 105 131 149 67 q 44 308 61 194 q 28 426 36 367 q 21 546 21 486 q 53 726 21 649 q 146 856 86 804 q 288 933 206 907 q 468 958 369 958 l 593 958 q 683 952 629 958 q 785 928 736 946 q 870 879 835 910 q 906 800 906 849 q 897 727 906 763 q 868 665 888 692 q 819 621 849 638 q 746 604 789 604 q 658 610 701 604 q 569 615 614 615 q 531 613 557 615 q 478 605 504 611 q 431 588 451 599 q 411 560 411 578 q 419 543 411 550 q 437 532 426 536 q 458 526 447 528 q 478 525 469 525 q 585 529 531 525 q 692 533 639 533 q 731 532 710 533 q 771 524 753 531 q 801 504 789 518 q 814 465 814 490 q 781 372 814 394 q 681 349 747 349 l 463 349 q 444 348 456 349 q 423 344 433 347 q 406 336 413 342 q 399 319 399 331 q 419 290 399 301 q 467 271 440 278 q 522 262 494 264 q 563 260 549 260 m 463 1222 q 453 1191 463 1204 q 431 1169 444 1178 q 399 1155 417 1160 q 367 1150 382 1150 q 300 1165 331 1150 q 269 1224 269 1181 q 294 1289 269 1264 q 358 1314 318 1314 q 431 1290 400 1314 q 463 1222 463 1267 m 683 1222 q 674 1191 683 1204 q 651 1169 665 1178 q 621 1155 638 1160 q 589 1150 604 1150 q 553 1153 571 1150 q 521 1165 535 1157 q 499 1188 507 1174 q 490 1224 490 1203 q 515 1289 490 1264 q 581 1314 540 1314 q 653 1290 622 1314 q 683 1222 683 1267 z "},"":{"ha":510,"x_min":17,"x_max":486,"o":"m 272 -4 q 200 1 232 -4 q 136 35 168 7 q 82 110 104 63 q 47 217 60 158 q 27 340 33 275 q 19 468 21 406 q 17 587 17 531 q 17 685 17 643 q 37 807 17 757 q 94 888 57 857 q 185 934 132 919 q 307 949 239 949 q 438 912 390 949 q 486 788 486 875 q 476 625 486 707 q 456 463 465 543 q 438 303 446 383 q 411 143 429 222 q 396 88 406 114 q 370 40 386 61 q 331 8 354 19 q 272 -4 307 -4 m 76 1228 q 88 1270 76 1253 q 119 1298 100 1288 q 160 1313 138 1308 q 203 1318 182 1318 q 239 1315 226 1318 q 269 1294 251 1311 q 288 1270 274 1290 q 320 1223 301 1250 q 359 1164 339 1196 q 396 1105 379 1132 q 424 1059 413 1078 q 435 1038 435 1040 q 426 1018 435 1026 q 407 1005 418 1010 q 383 997 396 1000 q 361 994 369 994 q 281 1018 329 994 q 187 1077 232 1042 q 109 1153 142 1113 q 76 1228 76 1194 z "},"":{"ha":510,"x_min":17,"x_max":486,"o":"m 272 -4 q 200 1 232 -4 q 136 35 168 7 q 82 110 104 63 q 47 217 60 158 q 27 340 33 275 q 19 468 21 406 q 17 587 17 531 q 17 685 17 643 q 37 807 17 757 q 94 888 57 857 q 185 934 132 919 q 307 949 239 949 q 438 912 390 949 q 486 788 486 875 q 476 625 486 707 q 456 463 465 543 q 438 303 446 383 q 411 143 429 222 q 396 88 406 114 q 370 40 386 61 q 331 8 354 19 q 272 -4 307 -4 m 167 963 q 124 980 142 963 q 106 1022 106 997 q 114 1052 106 1031 q 135 1101 122 1074 q 163 1160 147 1129 q 192 1219 178 1192 q 219 1267 207 1247 q 238 1294 232 1288 q 265 1315 253 1310 q 299 1319 278 1319 q 377 1285 349 1319 q 406 1201 406 1250 q 384 1133 406 1167 q 331 1068 363 1099 q 265 1013 300 1038 q 201 972 229 988 q 185 965 192 967 q 167 963 178 963 z "},"":{"ha":510,"x_min":-3,"x_max":513,"o":"m 272 -4 q 200 1 232 -4 q 136 35 168 7 q 82 110 104 63 q 47 217 60 158 q 27 340 33 275 q 19 468 21 406 q 17 587 17 531 q 17 685 17 643 q 37 807 17 757 q 94 888 57 857 q 185 934 132 919 q 307 949 239 949 q 438 912 390 949 q 486 788 486 875 q 476 625 486 707 q 456 463 465 543 q 438 303 446 383 q 411 143 429 222 q 396 88 406 114 q 370 40 386 61 q 331 8 354 19 q 272 -4 307 -4 m 264 1163 q 238 1137 250 1157 q 207 1094 225 1117 q 163 1054 189 1072 q 92 1036 136 1036 q 62 1039 78 1036 q 31 1049 46 1042 q 7 1068 17 1057 q -3 1096 -3 1079 q 1 1114 -3 1106 q 11 1129 6 1122 q 60 1194 33 1161 q 117 1255 86 1228 q 184 1299 147 1282 q 264 1317 221 1317 q 339 1298 296 1317 q 421 1250 382 1279 q 486 1185 460 1221 q 513 1114 513 1149 q 490 1064 513 1082 q 436 1046 467 1046 q 387 1057 411 1046 q 340 1085 363 1068 q 297 1124 317 1103 q 264 1163 278 1144 z "},"":{"ha":510,"x_min":17,"x_max":486,"o":"m 272 -4 q 200 1 232 -4 q 136 35 168 7 q 82 110 104 63 q 47 217 60 158 q 27 340 33 275 q 19 468 21 406 q 17 587 17 531 q 17 685 17 643 q 37 807 17 757 q 94 888 57 857 q 185 934 132 919 q 307 949 239 949 q 438 912 390 949 q 486 788 486 875 q 476 625 486 707 q 456 463 465 543 q 438 303 446 383 q 411 143 429 222 q 396 88 406 114 q 370 40 386 61 q 331 8 354 19 q 272 -4 307 -4 m 242 1222 q 233 1191 242 1204 q 210 1169 224 1178 q 178 1155 196 1160 q 146 1150 161 1150 q 79 1165 110 1150 q 49 1224 49 1181 q 73 1289 49 1264 q 138 1314 97 1314 q 210 1290 179 1314 q 242 1222 242 1267 m 463 1222 q 453 1191 463 1204 q 431 1169 444 1178 q 400 1155 417 1160 q 368 1150 383 1150 q 332 1153 350 1150 q 300 1165 314 1157 q 278 1188 286 1174 q 269 1224 269 1203 q 294 1289 269 1264 q 360 1314 319 1314 q 432 1290 401 1314 q 463 1222 463 1267 z "},"":{"ha":957,"x_min":-75,"x_max":936,"o":"m 114 932 q 160 960 135 949 q 212 976 185 971 q 267 984 239 982 q 319 986 294 986 q 447 978 383 986 q 572 947 511 969 q 709 876 643 921 q 825 772 775 832 q 906 641 875 713 q 936 490 936 569 q 858 191 936 319 q 617 1 781 63 q 528 -24 574 -14 q 438 -33 483 -33 q 263 -23 332 -33 q 149 22 193 -12 q 82 122 106 57 q 43 296 58 186 q -40 340 -6 311 q -75 418 -75 368 q -45 488 -75 463 q 28 525 -15 514 q 30 622 28 563 q 40 741 32 681 q 66 854 49 801 q 114 932 83 907 m 421 304 q 444 267 431 282 q 476 251 457 251 q 530 265 506 251 q 571 301 554 279 q 597 349 588 322 q 607 403 607 376 q 599 460 607 432 q 574 513 590 489 q 533 551 557 536 q 476 565 508 565 q 438 551 453 565 q 414 514 422 536 q 467 476 446 500 q 489 413 489 451 q 470 346 489 372 q 421 304 451 319 z "},"":{"ha":1021,"x_min":28,"x_max":983,"o":"m 450 142 q 431 78 450 104 q 383 34 413 51 q 320 8 354 17 q 256 0 286 0 q 169 41 211 0 q 97 158 128 82 q 47 343 65 235 q 28 586 28 451 q 35 726 28 653 q 65 860 43 799 q 128 960 88 921 q 233 1000 168 1000 q 322 986 283 1000 q 388 952 360 972 q 433 908 415 932 q 463 865 451 885 q 487 819 469 854 q 525 746 504 783 q 565 678 546 708 q 593 649 585 649 q 604 661 603 649 q 606 681 606 674 q 601 757 606 719 q 597 833 597 794 q 617 897 597 869 q 665 944 636 925 q 729 974 694 964 q 794 985 764 985 q 913 944 869 985 q 964 829 956 903 q 978 662 974 746 q 983 494 983 578 q 977 385 983 444 q 957 268 971 326 q 922 155 943 210 q 870 58 900 100 q 802 -8 840 17 q 715 -33 764 -33 q 642 -9 674 -33 q 589 52 611 15 q 551 132 567 89 q 522 212 535 175 q 497 273 508 249 q 471 297 485 297 q 463 285 467 297 q 457 251 460 272 q 452 202 454 231 q 450 142 450 174 m 743 1301 q 783 1289 767 1301 q 800 1250 800 1276 q 778 1188 800 1221 q 726 1128 757 1156 q 659 1083 694 1101 q 596 1065 624 1065 q 551 1075 571 1065 q 512 1097 531 1085 q 476 1118 493 1108 q 443 1128 460 1128 q 412 1115 428 1128 q 377 1087 396 1103 q 336 1058 358 1071 q 285 1046 314 1046 q 240 1060 258 1046 q 222 1103 222 1075 q 243 1165 222 1131 q 294 1232 264 1200 q 358 1285 324 1264 q 419 1307 393 1307 q 465 1294 444 1307 q 503 1266 486 1282 q 536 1238 521 1250 q 568 1225 551 1225 q 595 1237 576 1225 q 638 1263 614 1249 q 689 1290 661 1278 q 743 1301 717 1301 z "},"":{"ha":1076,"x_min":28,"x_max":1047,"o":"m 536 972 q 746 938 651 972 q 907 838 840 903 q 1010 679 974 772 q 1047 469 1047 586 q 1008 273 1047 367 q 899 108 968 179 q 739 -4 831 38 q 543 -46 647 -46 q 342 -11 436 -46 q 178 88 249 24 q 68 242 108 151 q 28 442 28 332 q 65 650 28 553 q 168 819 101 747 q 328 931 235 890 q 536 972 422 972 m 415 388 q 448 294 415 329 q 529 258 481 258 q 580 272 556 258 q 623 306 604 285 q 653 353 642 326 q 664 404 664 379 q 653 448 664 428 q 624 483 642 468 q 583 506 606 497 q 540 515 561 515 q 451 481 488 515 q 415 388 415 446 m 360 1228 q 372 1270 360 1253 q 402 1298 383 1288 q 443 1313 421 1308 q 486 1318 465 1318 q 522 1315 510 1318 q 553 1294 535 1311 q 571 1270 557 1290 q 603 1223 585 1250 q 642 1164 622 1196 q 679 1105 663 1132 q 707 1059 696 1078 q 718 1038 718 1040 q 710 1018 718 1026 q 690 1005 701 1010 q 666 997 679 1000 q 644 994 653 994 q 564 1018 613 994 q 470 1077 515 1042 q 392 1153 425 1113 q 360 1228 360 1194 z "},"":{"ha":1076,"x_min":28,"x_max":1047,"o":"m 536 972 q 746 938 651 972 q 907 838 840 903 q 1010 679 974 772 q 1047 469 1047 586 q 1008 273 1047 367 q 899 108 968 179 q 739 -4 831 38 q 543 -46 647 -46 q 342 -11 436 -46 q 178 88 249 24 q 68 242 108 151 q 28 442 28 332 q 57 628 28 540 q 140 785 86 717 q 269 901 193 854 q 438 964 344 947 q 403 984 417 968 q 389 1022 389 1000 q 397 1052 389 1031 q 418 1101 406 1074 q 446 1160 431 1129 q 476 1219 461 1192 q 503 1267 490 1247 q 521 1294 515 1288 q 549 1315 536 1310 q 582 1319 561 1319 q 660 1285 632 1319 q 689 1201 689 1250 q 667 1131 689 1167 q 613 1065 644 1096 q 544 1008 581 1033 q 479 969 507 983 q 507 972 493 971 q 536 972 521 972 m 415 388 q 448 294 415 329 q 529 258 481 258 q 580 272 556 258 q 623 306 604 285 q 653 353 642 326 q 664 404 664 379 q 653 448 664 428 q 624 483 642 468 q 583 506 606 497 q 540 515 561 515 q 451 481 488 515 q 415 388 415 446 z "},"":{"ha":1076,"x_min":28,"x_max":1047,"o":"m 536 972 q 746 938 651 972 q 907 838 840 903 q 1010 679 974 772 q 1047 469 1047 586 q 1008 273 1047 367 q 899 108 968 179 q 739 -4 831 38 q 543 -46 647 -46 q 342 -11 436 -46 q 178 88 249 24 q 68 242 108 151 q 28 442 28 332 q 65 650 28 553 q 168 819 101 747 q 328 931 235 890 q 536 972 422 972 m 415 388 q 448 294 415 329 q 529 258 481 258 q 580 272 556 258 q 623 306 604 285 q 653 353 642 326 q 664 404 664 379 q 653 448 664 428 q 624 483 642 468 q 583 506 606 497 q 540 515 561 515 q 451 481 488 515 q 415 388 415 446 m 547 1163 q 521 1137 533 1157 q 490 1094 508 1117 q 446 1054 472 1072 q 375 1036 419 1036 q 345 1039 361 1036 q 315 1049 329 1042 q 290 1068 300 1057 q 281 1096 281 1079 q 285 1114 281 1106 q 294 1129 289 1122 q 343 1194 317 1161 q 400 1255 369 1228 q 467 1299 431 1282 q 547 1317 504 1317 q 622 1298 579 1317 q 704 1250 665 1279 q 769 1185 743 1221 q 796 1114 796 1149 q 773 1064 796 1082 q 719 1046 750 1046 q 670 1057 694 1046 q 623 1085 646 1068 q 581 1124 600 1103 q 547 1163 561 1144 z "},"":{"ha":1076,"x_min":28,"x_max":1047,"o":"m 536 972 q 746 938 651 972 q 907 838 840 903 q 1010 679 974 772 q 1047 469 1047 586 q 1008 273 1047 367 q 899 108 968 179 q 739 -4 831 38 q 543 -46 647 -46 q 342 -11 436 -46 q 178 88 249 24 q 68 242 108 151 q 28 442 28 332 q 65 650 28 553 q 168 819 101 747 q 328 931 235 890 q 536 972 422 972 m 415 388 q 448 294 415 329 q 529 258 481 258 q 580 272 556 258 q 623 306 604 285 q 653 353 642 326 q 664 404 664 379 q 653 448 664 428 q 624 483 642 468 q 583 506 606 497 q 540 515 561 515 q 451 481 488 515 q 415 388 415 446 m 771 1301 q 811 1289 794 1301 q 828 1250 828 1276 q 806 1188 828 1221 q 753 1128 785 1156 q 687 1083 722 1101 q 624 1065 651 1065 q 578 1075 599 1065 q 540 1097 558 1085 q 504 1118 521 1108 q 471 1128 488 1128 q 440 1115 456 1128 q 405 1087 424 1103 q 364 1058 386 1071 q 313 1046 342 1046 q 268 1060 286 1046 q 250 1103 250 1075 q 271 1165 250 1131 q 322 1232 292 1200 q 386 1285 351 1264 q 447 1307 421 1307 q 493 1294 472 1307 q 531 1266 514 1282 q 564 1238 549 1250 q 596 1225 579 1225 q 623 1237 604 1225 q 665 1263 642 1249 q 717 1290 689 1278 q 771 1301 744 1301 z "},"":{"ha":1076,"x_min":28,"x_max":1047,"o":"m 536 972 q 746 938 651 972 q 907 838 840 903 q 1010 679 974 772 q 1047 469 1047 586 q 1008 273 1047 367 q 899 108 968 179 q 739 -4 831 38 q 543 -46 647 -46 q 342 -11 436 -46 q 178 88 249 24 q 68 242 108 151 q 28 442 28 332 q 65 650 28 553 q 168 819 101 747 q 328 931 235 890 q 536 972 422 972 m 415 388 q 448 294 415 329 q 529 258 481 258 q 580 272 556 258 q 623 306 604 285 q 653 353 642 326 q 664 404 664 379 q 653 448 664 428 q 624 483 642 468 q 583 506 606 497 q 540 515 561 515 q 451 481 488 515 q 415 388 415 446 m 525 1222 q 516 1191 525 1204 q 493 1169 507 1178 q 462 1155 479 1160 q 429 1150 444 1150 q 363 1165 393 1150 q 332 1224 332 1181 q 356 1289 332 1264 q 421 1314 381 1314 q 494 1290 463 1314 q 525 1222 525 1267 m 746 1222 q 737 1191 746 1204 q 714 1169 728 1178 q 683 1155 700 1160 q 651 1150 667 1150 q 615 1153 633 1150 q 583 1165 597 1157 q 561 1188 569 1174 q 553 1224 553 1203 q 578 1289 553 1264 q 643 1314 603 1314 q 715 1290 685 1314 q 746 1222 746 1267 z "},"":{"ha":678,"x_min":17,"x_max":661,"o":"m 26 758 q 51 824 26 799 q 117 849 76 849 q 184 831 151 849 q 247 789 217 814 q 303 735 276 764 q 350 682 329 706 q 395 735 371 706 q 447 792 419 765 q 506 836 475 818 q 572 854 538 854 q 637 828 613 854 q 661 761 661 801 q 644 689 661 726 q 603 616 628 651 q 549 549 578 581 q 497 492 521 517 q 532 443 514 468 q 566 392 550 418 q 592 338 582 367 q 601 279 601 310 q 579 216 601 240 q 517 192 557 192 q 461 204 488 192 q 411 236 435 217 q 367 278 388 256 q 329 321 347 300 q 286 277 313 304 q 231 224 260 250 q 172 178 201 197 q 117 160 142 160 q 74 171 93 160 q 43 199 56 182 q 24 238 31 217 q 17 281 17 260 q 26 331 17 310 q 54 374 35 353 q 116 437 85 406 q 179 500 147 468 q 131 556 158 525 q 81 619 104 586 q 42 688 58 653 q 26 758 26 724 z "},"":{"ha":1076,"x_min":28,"x_max":1047,"o":"m 536 972 q 593 969 565 972 q 649 963 621 967 q 704 1026 669 999 q 783 1054 739 1054 q 854 1026 824 1054 q 885 958 885 999 q 881 934 885 946 q 872 911 878 922 q 865 894 868 903 q 857 878 861 886 q 997 710 947 813 q 1047 469 1047 607 q 1008 273 1047 367 q 899 108 968 179 q 739 -4 831 38 q 543 -46 647 -46 q 426 -35 486 -46 q 362 -97 397 -72 q 282 -122 326 -122 q 215 -98 242 -122 q 188 -32 188 -74 q 197 5 188 -17 q 222 53 207 26 q 81 216 133 117 q 28 442 28 315 q 65 650 28 553 q 168 819 101 747 q 328 931 235 890 q 536 972 422 972 m 415 388 q 448 294 415 329 q 529 258 481 258 q 580 272 556 258 q 623 306 604 285 q 653 353 642 326 q 664 404 664 379 q 653 448 664 428 q 624 483 642 468 q 583 506 606 497 q 540 515 561 515 q 451 481 488 515 q 415 388 415 446 z "},"":{"ha":933,"x_min":26,"x_max":903,"o":"m 472 -4 q 329 15 392 -4 q 200 81 267 35 q 113 167 147 118 q 60 273 79 217 q 33 390 40 329 q 26 513 26 451 q 35 674 26 592 q 61 835 43 756 q 90 892 69 868 q 137 933 110 917 q 197 956 164 949 q 260 964 229 964 q 358 945 318 964 q 420 893 397 926 q 453 815 443 860 q 463 718 463 771 q 459 626 463 676 q 451 524 456 576 q 444 421 447 471 q 440 329 440 371 q 442 296 440 317 q 448 256 443 275 q 463 222 453 236 q 492 207 474 207 q 509 215 503 207 q 519 233 515 222 q 525 255 524 243 q 526 274 526 267 q 525 344 526 304 q 523 428 524 385 q 521 511 522 471 q 519 582 519 551 q 523 697 519 636 q 544 808 526 757 q 602 892 563 858 q 714 926 642 926 q 790 911 754 926 q 849 860 826 896 q 876 792 865 833 q 892 706 886 751 q 901 617 899 661 q 903 542 903 574 q 893 399 903 471 q 863 257 883 326 q 804 137 842 186 q 717 56 767 88 q 605 10 667 25 q 472 -4 543 -4 m 288 1228 q 299 1270 288 1253 q 330 1298 311 1288 q 371 1313 349 1308 q 414 1318 393 1318 q 450 1315 438 1318 q 481 1294 463 1311 q 499 1270 485 1290 q 531 1223 513 1250 q 570 1164 550 1196 q 607 1105 590 1132 q 635 1059 624 1078 q 646 1038 646 1040 q 638 1018 646 1026 q 618 1005 629 1010 q 594 997 607 1000 q 572 994 581 994 q 492 1018 540 994 q 398 1077 443 1042 q 320 1153 353 1113 q 288 1228 288 1194 z "},"":{"ha":933,"x_min":26,"x_max":903,"o":"m 472 -4 q 329 15 392 -4 q 200 81 267 35 q 113 167 147 118 q 60 273 79 217 q 33 390 40 329 q 26 513 26 451 q 35 674 26 592 q 61 835 43 756 q 90 892 69 868 q 137 933 110 917 q 197 956 164 949 q 260 964 229 964 q 358 945 318 964 q 420 893 397 926 q 453 815 443 860 q 463 718 463 771 q 459 626 463 676 q 451 524 456 576 q 444 421 447 471 q 440 329 440 371 q 442 296 440 317 q 448 256 443 275 q 463 222 453 236 q 492 207 474 207 q 509 215 503 207 q 519 233 515 222 q 525 255 524 243 q 526 274 526 267 q 525 344 526 304 q 523 428 524 385 q 521 511 522 471 q 519 582 519 551 q 523 697 519 636 q 544 808 526 757 q 602 892 563 858 q 714 926 642 926 q 790 911 754 926 q 849 860 826 896 q 876 792 865 833 q 892 706 886 751 q 901 617 899 661 q 903 542 903 574 q 893 399 903 471 q 863 257 883 326 q 804 137 842 186 q 717 56 767 88 q 605 10 667 25 q 472 -4 543 -4 m 378 963 q 335 980 353 963 q 317 1022 317 997 q 325 1052 317 1031 q 346 1101 333 1074 q 374 1160 358 1129 q 403 1219 389 1192 q 431 1267 418 1247 q 449 1294 443 1288 q 476 1315 464 1310 q 510 1319 489 1319 q 588 1285 560 1319 q 617 1201 617 1250 q 595 1133 617 1167 q 542 1068 574 1099 q 476 1013 511 1038 q 413 972 440 988 q 396 965 403 967 q 378 963 389 963 z "},"":{"ha":933,"x_min":26,"x_max":903,"o":"m 472 -4 q 329 15 392 -4 q 200 81 267 35 q 113 167 147 118 q 60 273 79 217 q 33 390 40 329 q 26 513 26 451 q 35 674 26 592 q 61 835 43 756 q 90 892 69 868 q 137 933 110 917 q 197 956 164 949 q 260 964 229 964 q 358 945 318 964 q 420 893 397 926 q 453 815 443 860 q 463 718 463 771 q 459 626 463 676 q 451 524 456 576 q 444 421 447 471 q 440 329 440 371 q 442 296 440 317 q 448 256 443 275 q 463 222 453 236 q 492 207 474 207 q 509 215 503 207 q 519 233 515 222 q 525 255 524 243 q 526 274 526 267 q 525 344 526 304 q 523 428 524 385 q 521 511 522 471 q 519 582 519 551 q 523 697 519 636 q 544 808 526 757 q 602 892 563 858 q 714 926 642 926 q 790 911 754 926 q 849 860 826 896 q 876 792 865 833 q 892 706 886 751 q 901 617 899 661 q 903 542 903 574 q 893 399 903 471 q 863 257 883 326 q 804 137 842 186 q 717 56 767 88 q 605 10 667 25 q 472 -4 543 -4 m 476 1163 q 450 1137 463 1157 q 419 1094 438 1117 q 375 1054 401 1072 q 304 1036 349 1036 q 274 1039 290 1036 q 244 1049 258 1042 q 219 1068 229 1057 q 210 1096 210 1079 q 214 1114 210 1106 q 224 1129 218 1122 q 272 1194 246 1161 q 329 1255 299 1228 q 397 1299 360 1282 q 476 1317 433 1317 q 551 1298 508 1317 q 633 1250 594 1279 q 699 1185 672 1221 q 725 1114 725 1149 q 702 1064 725 1082 q 649 1046 679 1046 q 599 1057 624 1046 q 552 1085 575 1068 q 510 1124 529 1103 q 476 1163 490 1144 z "},"":{"ha":933,"x_min":26,"x_max":903,"o":"m 472 -4 q 329 15 392 -4 q 200 81 267 35 q 113 167 147 118 q 60 273 79 217 q 33 390 40 329 q 26 513 26 451 q 35 674 26 592 q 61 835 43 756 q 90 892 69 868 q 137 933 110 917 q 197 956 164 949 q 260 964 229 964 q 358 945 318 964 q 420 893 397 926 q 453 815 443 860 q 463 718 463 771 q 459 626 463 676 q 451 524 456 576 q 444 421 447 471 q 440 329 440 371 q 442 296 440 317 q 448 256 443 275 q 463 222 453 236 q 492 207 474 207 q 509 215 503 207 q 519 233 515 222 q 525 255 524 243 q 526 274 526 267 q 525 344 526 304 q 523 428 524 385 q 521 511 522 471 q 519 582 519 551 q 523 697 519 636 q 544 808 526 757 q 602 892 563 858 q 714 926 642 926 q 790 911 754 926 q 849 860 826 896 q 876 792 865 833 q 892 706 886 751 q 901 617 899 661 q 903 542 903 574 q 893 399 903 471 q 863 257 883 326 q 804 137 842 186 q 717 56 767 88 q 605 10 667 25 q 472 -4 543 -4 m 453 1222 q 444 1191 453 1204 q 421 1169 435 1178 q 390 1155 407 1160 q 357 1150 372 1150 q 290 1165 321 1150 q 260 1224 260 1181 q 284 1289 260 1264 q 349 1314 308 1314 q 422 1290 390 1314 q 453 1222 453 1267 m 674 1222 q 665 1191 674 1204 q 642 1169 656 1178 q 611 1155 628 1160 q 579 1150 594 1150 q 543 1153 561 1150 q 511 1165 525 1157 q 489 1188 497 1174 q 481 1224 481 1203 q 506 1289 481 1264 q 571 1314 531 1314 q 643 1290 613 1314 q 674 1222 674 1267 z "},"":{"ha":1021,"x_min":7,"x_max":1014,"o":"m 779 994 q 871 984 828 994 q 946 951 914 974 q 996 894 978 929 q 1014 813 1014 860 q 989 672 1014 732 q 926 565 964 613 q 845 478 889 518 q 764 398 801 439 q 701 310 726 357 q 676 201 676 264 q 666 108 676 150 q 634 35 656 65 q 578 -12 613 4 q 497 -29 544 -29 q 416 -11 450 -29 q 360 39 382 7 q 327 115 338 71 q 317 213 317 160 q 294 314 317 271 q 236 395 271 357 q 162 471 201 433 q 88 556 122 508 q 30 665 53 603 q 7 813 7 726 q 30 891 7 856 q 88 951 53 926 q 165 990 124 976 q 246 1003 207 1003 q 326 997 294 1003 q 380 977 358 992 q 416 938 401 963 q 443 875 431 914 q 459 826 451 851 q 474 776 467 801 q 479 752 475 771 q 489 714 483 733 q 500 678 494 694 q 510 663 506 663 q 519 674 517 663 q 524 689 522 685 q 554 793 536 739 q 601 892 572 847 q 674 966 631 938 q 779 994 717 994 m 422 963 q 379 980 397 963 q 361 1022 361 997 q 369 1052 361 1031 q 390 1101 378 1074 q 418 1160 403 1129 q 448 1219 433 1192 q 475 1267 463 1247 q 493 1294 488 1288 q 521 1315 508 1310 q 554 1319 533 1319 q 633 1285 604 1319 q 661 1201 661 1250 q 640 1133 661 1167 q 587 1068 618 1099 q 520 1013 556 1038 q 457 972 485 988 q 440 965 447 967 q 422 963 433 963 z "},"":{"ha":947,"x_min":15,"x_max":925,"o":"m 15 493 q 31 702 15 607 q 78 866 46 797 q 161 974 110 935 q 285 1013 213 1013 q 392 985 356 1013 q 436 922 428 958 q 444 878 442 900 q 449 839 447 856 q 455 812 451 822 q 464 801 458 801 q 480 813 471 801 q 507 839 489 825 q 555 865 525 853 q 632 876 585 876 q 735 860 683 876 q 830 809 788 843 q 899 724 872 775 q 925 607 925 674 q 892 412 925 488 q 797 292 858 336 q 650 233 736 249 q 458 217 564 217 q 439 215 451 217 q 424 206 426 213 q 418 166 417 189 q 421 119 419 143 q 420 73 422 96 q 404 35 418 50 q 350 0 381 10 q 286 -10 319 -10 q 187 16 229 -10 q 115 83 144 42 q 65 177 85 124 q 35 287 46 231 q 19 397 24 343 q 15 493 15 450 m 446 492 q 451 466 446 479 q 465 442 456 453 q 490 423 475 431 q 524 415 504 415 q 567 426 550 415 q 593 455 583 438 q 607 493 603 472 q 611 535 611 514 q 608 566 611 550 q 595 596 604 582 q 570 619 586 610 q 528 628 554 628 q 485 617 501 628 q 460 587 469 606 q 449 543 451 568 q 446 492 446 518 z "},"":{"ha":876,"x_min":29,"x_max":863,"o":"m 400 61 q 414 108 400 86 q 447 140 428 131 q 489 156 467 150 q 533 165 511 161 q 572 176 554 168 q 599 202 589 185 q 610 251 610 219 q 576 319 610 300 q 499 338 542 338 q 469 334 483 338 q 440 331 456 331 q 423 341 429 331 q 414 365 417 351 q 410 392 411 378 q 410 413 410 406 q 410 434 410 424 q 411 456 410 444 q 425 487 414 471 q 449 523 436 503 q 471 568 461 543 q 481 624 481 593 q 468 681 481 656 q 418 707 456 707 q 394 705 407 707 q 371 697 382 703 q 349 665 357 690 q 338 608 342 639 q 334 547 335 576 q 333 501 333 517 q 335 434 333 468 q 340 367 336 400 q 356 259 347 313 q 365 150 365 206 q 363 75 365 110 q 347 15 360 40 q 308 -26 335 -11 q 232 -40 281 -40 q 151 -16 185 -40 q 96 48 118 8 q 60 137 74 88 q 40 237 47 186 q 31 334 33 288 q 29 414 29 381 q 40 592 29 503 q 71 768 50 681 q 126 869 86 829 q 221 931 167 908 q 335 963 275 954 q 450 972 396 972 q 582 959 519 972 q 692 915 644 946 q 768 831 740 883 q 796 699 796 778 q 785 631 796 668 q 756 563 775 594 q 710 507 738 531 q 649 478 682 483 q 667 480 658 479 q 686 481 676 481 q 772 458 738 481 q 826 399 806 435 q 854 319 846 363 q 863 232 863 275 q 837 115 863 165 q 767 29 811 64 q 667 -23 724 -6 q 549 -40 610 -40 q 498 -36 524 -40 q 450 -20 472 -32 q 414 11 428 -8 q 400 61 400 31 z "},"":{"ha":946,"x_min":21,"x_max":919,"o":"m 481 972 q 658 928 585 972 q 781 814 732 885 q 857 655 829 743 q 899 479 885 567 q 916 312 913 392 q 919 179 919 232 q 903 110 919 142 q 860 56 888 78 q 799 21 833 33 q 729 8 765 8 q 660 15 688 8 q 617 33 632 21 q 595 66 601 46 q 589 114 589 86 q 574 185 589 163 q 501 208 560 208 q 452 194 472 208 q 419 158 432 181 q 395 106 406 135 q 374 46 385 76 q 350 -2 364 17 q 317 -32 336 -21 q 269 -47 297 -43 q 199 -51 240 -51 q 129 -34 161 -51 q 73 10 97 -17 q 35 73 49 38 q 21 143 21 108 q 26 292 21 207 q 47 470 31 378 q 94 653 64 563 q 176 814 125 743 q 301 928 226 885 q 481 972 376 972 m 433 468 q 436 426 433 449 q 445 385 439 404 q 463 354 451 367 q 490 342 474 342 q 542 365 522 342 q 561 438 561 389 q 558 490 561 463 q 545 541 554 518 q 522 579 536 564 q 486 594 507 594 q 458 582 468 594 q 442 551 447 569 q 435 510 436 532 q 433 468 433 488 m 294 1228 q 306 1270 294 1253 q 337 1298 318 1288 q 378 1313 356 1308 q 421 1318 400 1318 q 457 1315 444 1318 q 488 1294 469 1311 q 506 1270 492 1290 q 538 1223 519 1250 q 577 1164 557 1196 q 614 1105 597 1132 q 642 1059 631 1078 q 653 1038 653 1040 q 644 1018 653 1026 q 625 1005 636 1010 q 601 997 614 1000 q 579 994 588 994 q 499 1018 547 994 q 405 1077 450 1042 q 327 1153 360 1113 q 294 1228 294 1194 z "},"":{"ha":946,"x_min":21,"x_max":919,"o":"m 481 972 q 658 928 585 972 q 781 814 732 885 q 857 655 829 743 q 899 479 885 567 q 916 312 913 392 q 919 179 919 232 q 903 110 919 142 q 860 56 888 78 q 799 21 833 33 q 729 8 765 8 q 660 15 688 8 q 617 33 632 21 q 595 66 601 46 q 589 114 589 86 q 574 185 589 163 q 501 208 560 208 q 452 194 472 208 q 419 158 432 181 q 395 106 406 135 q 374 46 385 76 q 350 -2 364 17 q 317 -32 336 -21 q 269 -47 297 -43 q 199 -51 240 -51 q 129 -34 161 -51 q 73 10 97 -17 q 35 73 49 38 q 21 143 21 108 q 25 280 21 201 q 42 443 29 358 q 81 613 56 528 q 147 769 106 697 q 248 892 188 840 q 393 963 308 943 q 344 977 365 963 q 324 1022 324 992 q 332 1052 324 1031 q 353 1101 340 1074 q 381 1160 365 1129 q 410 1219 396 1192 q 437 1267 425 1247 q 456 1294 449 1288 q 483 1315 471 1310 q 517 1319 496 1319 q 595 1285 567 1319 q 624 1201 624 1250 q 602 1133 624 1167 q 549 1068 581 1099 q 483 1013 518 1038 q 419 972 447 988 q 412 968 415 969 q 404 965 408 967 q 441 970 422 968 q 481 972 460 972 m 433 468 q 436 426 433 449 q 445 385 439 404 q 463 354 451 367 q 490 342 474 342 q 542 365 522 342 q 561 438 561 389 q 558 490 561 463 q 545 541 554 518 q 522 579 536 564 q 486 594 507 594 q 458 582 468 594 q 442 551 447 569 q 435 510 436 532 q 433 468 433 488 z "},"":{"ha":946,"x_min":21,"x_max":919,"o":"m 481 972 q 658 928 585 972 q 781 814 732 885 q 857 655 829 743 q 899 479 885 567 q 916 312 913 392 q 919 179 919 232 q 903 110 919 142 q 860 56 888 78 q 799 21 833 33 q 729 8 765 8 q 660 15 688 8 q 617 33 632 21 q 595 66 601 46 q 589 114 589 86 q 574 185 589 163 q 501 208 560 208 q 452 194 472 208 q 419 158 432 181 q 395 106 406 135 q 374 46 385 76 q 350 -2 364 17 q 317 -32 336 -21 q 269 -47 297 -43 q 199 -51 240 -51 q 129 -34 161 -51 q 73 10 97 -17 q 35 73 49 38 q 21 143 21 108 q 26 292 21 207 q 47 470 31 378 q 94 653 64 563 q 176 814 125 743 q 301 928 226 885 q 481 972 376 972 m 433 468 q 436 426 433 449 q 445 385 439 404 q 463 354 451 367 q 490 342 474 342 q 542 365 522 342 q 561 438 561 389 q 558 490 561 463 q 545 541 554 518 q 522 579 536 564 q 486 594 507 594 q 458 582 468 594 q 442 551 447 569 q 435 510 436 532 q 433 468 433 488 m 482 1163 q 456 1137 468 1157 q 425 1094 443 1117 q 381 1054 407 1072 q 310 1036 354 1036 q 280 1039 296 1036 q 249 1049 264 1042 q 225 1068 235 1057 q 215 1096 215 1079 q 219 1114 215 1106 q 229 1129 224 1122 q 278 1194 251 1161 q 335 1255 304 1228 q 402 1299 365 1282 q 482 1317 439 1317 q 557 1298 514 1317 q 639 1250 600 1279 q 704 1185 678 1221 q 731 1114 731 1149 q 708 1064 731 1082 q 654 1046 685 1046 q 605 1057 629 1046 q 558 1085 581 1068 q 515 1124 535 1103 q 482 1163 496 1144 z "},"":{"ha":946,"x_min":21,"x_max":919,"o":"m 481 972 q 658 928 585 972 q 781 814 732 885 q 857 655 829 743 q 899 479 885 567 q 916 312 913 392 q 919 179 919 232 q 903 110 919 142 q 860 56 888 78 q 799 21 833 33 q 729 8 765 8 q 660 15 688 8 q 617 33 632 21 q 595 66 601 46 q 589 114 589 86 q 574 185 589 163 q 501 208 560 208 q 452 194 472 208 q 419 158 432 181 q 395 106 406 135 q 374 46 385 76 q 350 -2 364 17 q 317 -32 336 -21 q 269 -47 297 -43 q 199 -51 240 -51 q 129 -34 161 -51 q 73 10 97 -17 q 35 73 49 38 q 21 143 21 108 q 26 292 21 207 q 47 470 31 378 q 94 653 64 563 q 176 814 125 743 q 301 928 226 885 q 481 972 376 972 m 433 468 q 436 426 433 449 q 445 385 439 404 q 463 354 451 367 q 490 342 474 342 q 542 365 522 342 q 561 438 561 389 q 558 490 561 463 q 545 541 554 518 q 522 579 536 564 q 486 594 507 594 q 458 582 468 594 q 442 551 447 569 q 435 510 436 532 q 433 468 433 488 m 706 1301 q 746 1289 729 1301 q 763 1250 763 1276 q 741 1188 763 1221 q 688 1128 719 1156 q 622 1083 657 1101 q 558 1065 586 1065 q 513 1075 533 1065 q 474 1097 493 1085 q 439 1118 456 1108 q 406 1128 422 1128 q 374 1115 390 1128 q 340 1087 358 1103 q 299 1058 321 1071 q 247 1046 276 1046 q 203 1060 221 1046 q 185 1103 185 1075 q 206 1165 185 1131 q 256 1232 226 1200 q 321 1285 286 1264 q 382 1307 356 1307 q 428 1294 407 1307 q 466 1266 449 1282 q 499 1238 483 1250 q 531 1225 514 1225 q 558 1237 539 1225 q 600 1263 576 1249 q 651 1290 624 1278 q 706 1301 679 1301 z "},"":{"ha":946,"x_min":21,"x_max":919,"o":"m 481 972 q 658 928 585 972 q 781 814 732 885 q 857 655 829 743 q 899 479 885 567 q 916 312 913 392 q 919 179 919 232 q 903 110 919 142 q 860 56 888 78 q 799 21 833 33 q 729 8 765 8 q 660 15 688 8 q 617 33 632 21 q 595 66 601 46 q 589 114 589 86 q 574 185 589 163 q 501 208 560 208 q 452 194 472 208 q 419 158 432 181 q 395 106 406 135 q 374 46 385 76 q 350 -2 364 17 q 317 -32 336 -21 q 269 -47 297 -43 q 199 -51 240 -51 q 129 -34 161 -51 q 73 10 97 -17 q 35 73 49 38 q 21 143 21 108 q 26 292 21 207 q 47 470 31 378 q 94 653 64 563 q 176 814 125 743 q 301 928 226 885 q 481 972 376 972 m 433 468 q 436 426 433 449 q 445 385 439 404 q 463 354 451 367 q 490 342 474 342 q 542 365 522 342 q 561 438 561 389 q 558 490 561 463 q 545 541 554 518 q 522 579 536 564 q 486 594 507 594 q 458 582 468 594 q 442 551 447 569 q 435 510 436 532 q 433 468 433 488 m 460 1222 q 451 1191 460 1204 q 428 1169 442 1178 q 397 1155 414 1160 q 364 1150 379 1150 q 297 1165 328 1150 q 267 1224 267 1181 q 291 1289 267 1264 q 356 1314 315 1314 q 428 1290 397 1314 q 460 1222 460 1267 m 681 1222 q 672 1191 681 1204 q 649 1169 663 1178 q 618 1155 635 1160 q 586 1150 601 1150 q 550 1153 568 1150 q 518 1165 532 1157 q 496 1188 504 1174 q 488 1224 488 1203 q 513 1289 488 1264 q 578 1314 538 1314 q 650 1290 619 1314 q 681 1222 681 1267 z "},"":{"ha":946,"x_min":21,"x_max":919,"o":"m 481 972 q 658 928 585 972 q 781 814 732 885 q 857 655 829 743 q 899 479 885 567 q 916 312 913 392 q 919 179 919 232 q 903 110 919 142 q 860 56 888 78 q 799 21 833 33 q 729 8 765 8 q 660 15 688 8 q 617 33 632 21 q 595 66 601 46 q 589 114 589 86 q 574 185 589 163 q 501 208 560 208 q 452 194 472 208 q 419 158 432 181 q 395 106 406 135 q 374 46 385 76 q 350 -2 364 17 q 317 -32 336 -21 q 269 -47 297 -43 q 199 -51 240 -51 q 129 -34 161 -51 q 73 10 97 -17 q 35 73 49 38 q 21 143 21 108 q 26 292 21 207 q 47 470 31 378 q 94 653 64 563 q 176 814 125 743 q 301 928 226 885 q 481 972 376 972 m 433 468 q 436 426 433 449 q 445 385 439 404 q 463 354 451 367 q 490 342 474 342 q 542 365 522 342 q 561 438 561 389 q 558 490 561 463 q 545 541 554 518 q 522 579 536 564 q 486 594 507 594 q 458 582 468 594 q 442 551 447 569 q 435 510 436 532 q 433 468 433 488 m 636 1133 q 622 1080 636 1104 q 586 1038 608 1056 q 536 1010 564 1021 q 482 1000 508 1000 q 415 1006 446 1000 q 360 1028 383 1013 q 324 1072 338 1044 q 311 1139 311 1099 q 321 1204 311 1172 q 349 1260 331 1236 q 396 1298 368 1283 q 461 1313 424 1313 q 589 1263 542 1313 q 636 1133 636 1213 m 506 1196 q 469 1178 481 1196 q 458 1138 458 1161 q 511 1089 458 1089 q 544 1102 531 1089 q 557 1135 557 1115 q 545 1177 557 1158 q 506 1196 533 1196 z "},"":{"ha":1508,"x_min":21,"x_max":1481,"o":"m 481 972 q 621 946 560 972 q 728 875 682 919 q 861 938 786 917 q 1025 958 936 958 l 1150 958 q 1240 952 1186 958 q 1342 928 1293 946 q 1427 879 1392 910 q 1463 800 1463 849 q 1453 727 1463 763 q 1425 665 1444 692 q 1376 621 1406 638 q 1303 604 1346 604 q 1215 610 1258 604 q 1126 615 1171 615 q 1088 613 1114 615 q 1035 605 1061 611 q 988 588 1008 599 q 968 560 968 578 q 976 543 968 550 q 994 532 983 536 q 1015 526 1004 528 q 1035 525 1026 525 q 1142 529 1088 525 q 1249 533 1196 533 q 1288 532 1267 533 q 1328 524 1310 531 q 1358 504 1346 518 q 1371 465 1371 490 q 1338 372 1371 394 q 1238 349 1304 349 l 1019 349 q 1001 348 1013 349 q 980 344 990 347 q 963 336 969 342 q 956 319 956 331 q 976 290 956 301 q 1024 271 997 278 q 1078 262 1051 264 q 1119 260 1106 260 q 1239 269 1181 260 q 1357 288 1297 278 q 1372 290 1364 289 q 1388 290 1381 290 q 1436 277 1418 290 q 1464 243 1454 264 q 1477 197 1474 222 q 1481 149 1481 172 q 1476 103 1481 122 q 1453 64 1472 83 q 1386 32 1432 46 q 1288 8 1340 18 q 1185 -6 1235 -1 q 1106 -10 1135 -10 q 942 -5 1018 -10 q 804 22 867 0 q 767 12 786 15 q 729 8 749 8 q 660 15 688 8 q 617 33 632 21 q 595 66 601 46 q 589 114 589 86 q 574 185 589 163 q 501 208 560 208 q 452 194 472 208 q 419 158 432 181 q 395 106 406 135 q 374 46 385 76 q 350 -2 364 17 q 317 -32 336 -21 q 269 -47 297 -43 q 199 -51 240 -51 q 129 -34 161 -51 q 73 10 97 -17 q 35 73 49 38 q 21 143 21 108 q 26 292 21 207 q 47 470 31 378 q 94 653 64 563 q 176 814 125 743 q 301 928 226 885 q 481 972 376 972 m 433 468 q 436 426 433 449 q 445 385 439 404 q 463 354 451 367 q 490 342 474 342 q 542 365 522 342 q 561 438 561 389 q 558 490 561 463 q 545 541 554 518 q 522 579 536 564 q 486 594 507 594 q 458 582 468 594 q 442 551 447 569 q 435 510 436 532 q 433 468 433 488 z "},"":{"ha":1051,"x_min":21,"x_max":1029,"o":"m 575 953 q 699 938 629 953 q 832 890 769 922 q 937 809 894 858 q 979 693 979 760 q 969 640 979 667 q 942 592 960 614 q 899 557 924 571 q 847 543 875 543 q 800 553 824 543 q 751 576 776 564 q 699 598 726 588 q 642 608 672 608 q 558 592 597 608 q 491 547 519 575 q 447 479 463 518 q 431 396 431 440 q 440 333 431 363 q 469 283 450 304 q 515 248 488 261 q 576 235 542 235 q 678 258 636 235 q 756 309 721 281 q 827 360 792 338 q 910 383 863 383 q 996 349 963 383 q 1029 263 1029 315 q 1008 187 1029 222 q 953 122 988 151 q 874 67 918 92 q 783 26 829 43 q 693 -3 738 8 q 613 -19 649 -15 l 578 -74 q 660 -106 626 -74 q 693 -187 693 -139 q 680 -244 693 -219 q 645 -286 667 -269 q 596 -312 624 -303 q 539 -321 568 -321 q 470 -309 503 -321 q 413 -276 438 -297 q 373 -223 388 -254 q 358 -154 358 -192 q 360 -147 358 -151 q 364 -142 361 -142 q 376 -150 368 -142 q 396 -167 383 -158 q 425 -185 408 -176 q 463 -193 442 -193 q 492 -187 478 -193 q 506 -162 506 -182 q 496 -135 506 -147 q 472 -114 486 -122 q 442 -101 458 -106 q 413 -99 426 -97 l 451 -21 q 283 28 361 -10 q 146 125 204 65 q 54 265 88 185 q 21 442 21 344 q 43 578 21 513 q 104 700 65 643 q 196 803 143 757 q 310 883 249 850 q 440 935 372 917 q 575 953 507 953 z "},"":{"ha":951,"x_min":21,"x_max":924,"o":"m 563 260 q 682 269 624 260 q 800 288 740 278 q 815 290 807 289 q 831 290 824 290 q 879 277 861 290 q 907 243 897 264 q 920 197 917 222 q 924 149 924 172 q 919 103 924 122 q 896 64 915 83 q 829 32 875 46 q 731 8 783 18 q 628 -6 678 -1 q 549 -10 578 -10 q 367 -3 451 -10 q 215 35 282 4 q 105 131 149 67 q 44 308 61 194 q 28 426 36 367 q 21 546 21 486 q 53 726 21 649 q 146 856 86 804 q 288 933 206 907 q 468 958 369 958 l 593 958 q 683 952 629 958 q 785 928 736 946 q 870 879 835 910 q 906 800 906 849 q 897 727 906 763 q 868 665 888 692 q 819 621 849 638 q 746 604 789 604 q 658 610 701 604 q 569 615 614 615 q 531 613 557 615 q 478 605 504 611 q 431 588 451 599 q 411 560 411 578 q 419 543 411 550 q 437 532 426 536 q 458 526 447 528 q 478 525 469 525 q 585 529 531 525 q 692 533 639 533 q 731 532 710 533 q 771 524 753 531 q 801 504 789 518 q 814 465 814 490 q 781 372 814 394 q 681 349 747 349 l 463 349 q 444 348 456 349 q 423 344 433 347 q 406 336 413 342 q 399 319 399 331 q 419 290 399 301 q 467 271 440 278 q 522 262 494 264 q 563 260 549 260 m 297 1228 q 309 1270 297 1253 q 340 1298 321 1288 q 381 1313 358 1308 q 424 1318 403 1318 q 460 1315 447 1318 q 490 1294 472 1311 q 508 1270 494 1290 q 541 1223 522 1250 q 580 1164 560 1196 q 617 1105 600 1132 q 644 1059 633 1078 q 656 1038 656 1040 q 647 1018 656 1026 q 628 1005 639 1010 q 603 997 617 1000 q 582 994 590 994 q 501 1018 550 994 q 408 1077 453 1042 q 330 1153 363 1113 q 297 1228 297 1194 z "},"":{"ha":951,"x_min":21,"x_max":924,"o":"m 563 260 q 682 269 624 260 q 800 288 740 278 q 815 290 807 289 q 831 290 824 290 q 879 277 861 290 q 907 243 897 264 q 920 197 917 222 q 924 149 924 172 q 919 103 924 122 q 896 64 915 83 q 829 32 875 46 q 731 8 783 18 q 628 -6 678 -1 q 549 -10 578 -10 q 367 -3 451 -10 q 215 35 282 4 q 105 131 149 67 q 44 308 61 194 q 28 426 36 367 q 21 546 21 486 q 53 726 21 649 q 146 856 86 804 q 288 933 206 907 q 468 958 369 958 l 593 958 q 683 952 629 958 q 785 928 736 946 q 870 879 835 910 q 906 800 906 849 q 897 727 906 763 q 868 665 888 692 q 819 621 849 638 q 746 604 789 604 q 658 610 701 604 q 569 615 614 615 q 531 613 557 615 q 478 605 504 611 q 431 588 451 599 q 411 560 411 578 q 419 543 411 550 q 437 532 426 536 q 458 526 447 528 q 478 525 469 525 q 585 529 531 525 q 692 533 639 533 q 731 532 710 533 q 771 524 753 531 q 801 504 789 518 q 814 465 814 490 q 781 372 814 394 q 681 349 747 349 l 463 349 q 444 348 456 349 q 423 344 433 347 q 406 336 413 342 q 399 319 399 331 q 419 290 399 301 q 467 271 440 278 q 522 262 494 264 q 563 260 549 260 m 388 963 q 344 980 363 963 q 326 1022 326 997 q 335 1052 326 1031 q 356 1101 343 1074 q 383 1160 368 1129 q 413 1219 399 1192 q 440 1267 428 1247 q 458 1294 451 1288 q 486 1315 474 1310 q 519 1319 499 1319 q 598 1285 569 1319 q 626 1201 626 1250 q 605 1133 626 1167 q 552 1068 583 1099 q 485 1013 521 1038 q 422 972 450 988 q 406 965 413 967 q 388 963 399 963 z "},"":{"ha":951,"x_min":21,"x_max":924,"o":"m 563 260 q 682 269 624 260 q 800 288 740 278 q 815 290 807 289 q 831 290 824 290 q 879 277 861 290 q 907 243 897 264 q 920 197 917 222 q 924 149 924 172 q 919 103 924 122 q 896 64 915 83 q 829 32 875 46 q 731 8 783 18 q 628 -6 678 -1 q 549 -10 578 -10 q 367 -3 451 -10 q 215 35 282 4 q 105 131 149 67 q 44 308 61 194 q 28 426 36 367 q 21 546 21 486 q 53 726 21 649 q 146 856 86 804 q 288 933 206 907 q 468 958 369 958 l 593 958 q 683 952 629 958 q 785 928 736 946 q 870 879 835 910 q 906 800 906 849 q 897 727 906 763 q 868 665 888 692 q 819 621 849 638 q 746 604 789 604 q 658 610 701 604 q 569 615 614 615 q 531 613 557 615 q 478 605 504 611 q 431 588 451 599 q 411 560 411 578 q 419 543 411 550 q 437 532 426 536 q 458 526 447 528 q 478 525 469 525 q 585 529 531 525 q 692 533 639 533 q 731 532 710 533 q 771 524 753 531 q 801 504 789 518 q 814 465 814 490 q 781 372 814 394 q 681 349 747 349 l 463 349 q 444 348 456 349 q 423 344 433 347 q 406 336 413 342 q 399 319 399 331 q 419 290 399 301 q 467 271 440 278 q 522 262 494 264 q 563 260 549 260 m 485 1163 q 458 1137 471 1157 q 428 1094 446 1117 q 383 1054 410 1072 q 313 1036 357 1036 q 283 1039 299 1036 q 252 1049 267 1042 q 228 1068 238 1057 q 218 1096 218 1079 q 222 1114 218 1106 q 232 1129 226 1122 q 281 1194 254 1161 q 338 1255 307 1228 q 405 1299 368 1282 q 485 1317 442 1317 q 560 1298 517 1317 q 642 1250 603 1279 q 707 1185 681 1221 q 733 1114 733 1149 q 710 1064 733 1082 q 657 1046 688 1046 q 608 1057 632 1046 q 560 1085 583 1068 q 518 1124 538 1103 q 485 1163 499 1144 z "},"":{"ha":951,"x_min":21,"x_max":924,"o":"m 563 260 q 682 269 624 260 q 800 288 740 278 q 815 290 807 289 q 831 290 824 290 q 879 277 861 290 q 907 243 897 264 q 920 197 917 222 q 924 149 924 172 q 919 103 924 122 q 896 64 915 83 q 829 32 875 46 q 731 8 783 18 q 628 -6 678 -1 q 549 -10 578 -10 q 367 -3 451 -10 q 215 35 282 4 q 105 131 149 67 q 44 308 61 194 q 28 426 36 367 q 21 546 21 486 q 53 726 21 649 q 146 856 86 804 q 288 933 206 907 q 468 958 369 958 l 593 958 q 683 952 629 958 q 785 928 736 946 q 870 879 835 910 q 906 800 906 849 q 897 727 906 763 q 868 665 888 692 q 819 621 849 638 q 746 604 789 604 q 658 610 701 604 q 569 615 614 615 q 531 613 557 615 q 478 605 504 611 q 431 588 451 599 q 411 560 411 578 q 419 543 411 550 q 437 532 426 536 q 458 526 447 528 q 478 525 469 525 q 585 529 531 525 q 692 533 639 533 q 731 532 710 533 q 771 524 753 531 q 801 504 789 518 q 814 465 814 490 q 781 372 814 394 q 681 349 747 349 l 463 349 q 444 348 456 349 q 423 344 433 347 q 406 336 413 342 q 399 319 399 331 q 419 290 399 301 q 467 271 440 278 q 522 262 494 264 q 563 260 549 260 m 463 1222 q 453 1191 463 1204 q 431 1169 444 1178 q 399 1155 417 1160 q 367 1150 382 1150 q 300 1165 331 1150 q 269 1224 269 1181 q 294 1289 269 1264 q 358 1314 318 1314 q 431 1290 400 1314 q 463 1222 463 1267 m 683 1222 q 674 1191 683 1204 q 651 1169 665 1178 q 621 1155 638 1160 q 589 1150 604 1150 q 553 1153 571 1150 q 521 1165 535 1157 q 499 1188 507 1174 q 490 1224 490 1203 q 515 1289 490 1264 q 581 1314 540 1314 q 653 1290 622 1314 q 683 1222 683 1267 z "},"":{"ha":510,"x_min":17,"x_max":486,"o":"m 272 -4 q 200 1 232 -4 q 136 35 168 7 q 82 110 104 63 q 47 217 60 158 q 27 340 33 275 q 19 468 21 406 q 17 587 17 531 q 17 685 17 643 q 37 807 17 757 q 94 888 57 857 q 185 934 132 919 q 307 949 239 949 q 438 912 390 949 q 486 788 486 875 q 476 625 486 707 q 456 463 465 543 q 438 303 446 383 q 411 143 429 222 q 396 88 406 114 q 370 40 386 61 q 331 8 354 19 q 272 -4 307 -4 m 76 1228 q 88 1270 76 1253 q 119 1298 100 1288 q 160 1313 138 1308 q 203 1318 182 1318 q 239 1315 226 1318 q 269 1294 251 1311 q 288 1270 274 1290 q 320 1223 301 1250 q 359 1164 339 1196 q 396 1105 379 1132 q 424 1059 413 1078 q 435 1038 435 1040 q 426 1018 435 1026 q 407 1005 418 1010 q 383 997 396 1000 q 361 994 369 994 q 281 1018 329 994 q 187 1077 232 1042 q 109 1153 142 1113 q 76 1228 76 1194 z "},"":{"ha":510,"x_min":17,"x_max":486,"o":"m 272 -4 q 200 1 232 -4 q 136 35 168 7 q 82 110 104 63 q 47 217 60 158 q 27 340 33 275 q 19 468 21 406 q 17 587 17 531 q 17 685 17 643 q 37 807 17 757 q 94 888 57 857 q 185 934 132 919 q 307 949 239 949 q 438 912 390 949 q 486 788 486 875 q 476 625 486 707 q 456 463 465 543 q 438 303 446 383 q 411 143 429 222 q 396 88 406 114 q 370 40 386 61 q 331 8 354 19 q 272 -4 307 -4 m 167 963 q 124 980 142 963 q 106 1022 106 997 q 114 1052 106 1031 q 135 1101 122 1074 q 163 1160 147 1129 q 192 1219 178 1192 q 219 1267 207 1247 q 238 1294 232 1288 q 265 1315 253 1310 q 299 1319 278 1319 q 377 1285 349 1319 q 406 1201 406 1250 q 384 1133 406 1167 q 331 1068 363 1099 q 265 1013 300 1038 q 201 972 229 988 q 185 965 192 967 q 167 963 178 963 z "},"":{"ha":510,"x_min":-3,"x_max":513,"o":"m 272 -4 q 200 1 232 -4 q 136 35 168 7 q 82 110 104 63 q 47 217 60 158 q 27 340 33 275 q 19 468 21 406 q 17 587 17 531 q 17 685 17 643 q 37 807 17 757 q 94 888 57 857 q 185 934 132 919 q 307 949 239 949 q 438 912 390 949 q 486 788 486 875 q 476 625 486 707 q 456 463 465 543 q 438 303 446 383 q 411 143 429 222 q 396 88 406 114 q 370 40 386 61 q 331 8 354 19 q 272 -4 307 -4 m 264 1163 q 238 1137 250 1157 q 207 1094 225 1117 q 163 1054 189 1072 q 92 1036 136 1036 q 62 1039 78 1036 q 31 1049 46 1042 q 7 1068 17 1057 q -3 1096 -3 1079 q 1 1114 -3 1106 q 11 1129 6 1122 q 60 1194 33 1161 q 117 1255 86 1228 q 184 1299 147 1282 q 264 1317 221 1317 q 339 1298 296 1317 q 421 1250 382 1279 q 486 1185 460 1221 q 513 1114 513 1149 q 490 1064 513 1082 q 436 1046 467 1046 q 387 1057 411 1046 q 340 1085 363 1068 q 297 1124 317 1103 q 264 1163 278 1144 z "},"":{"ha":510,"x_min":17,"x_max":486,"o":"m 272 -4 q 200 1 232 -4 q 136 35 168 7 q 82 110 104 63 q 47 217 60 158 q 27 340 33 275 q 19 468 21 406 q 17 587 17 531 q 17 685 17 643 q 37 807 17 757 q 94 888 57 857 q 185 934 132 919 q 307 949 239 949 q 438 912 390 949 q 486 788 486 875 q 476 625 486 707 q 456 463 465 543 q 438 303 446 383 q 411 143 429 222 q 396 88 406 114 q 370 40 386 61 q 331 8 354 19 q 272 -4 307 -4 m 242 1222 q 233 1191 242 1204 q 210 1169 224 1178 q 178 1155 196 1160 q 146 1150 161 1150 q 79 1165 110 1150 q 49 1224 49 1181 q 73 1289 49 1264 q 138 1314 97 1314 q 210 1290 179 1314 q 242 1222 242 1267 m 463 1222 q 453 1191 463 1204 q 431 1169 444 1178 q 400 1155 417 1160 q 368 1150 383 1150 q 332 1153 350 1150 q 300 1165 314 1157 q 278 1188 286 1174 q 269 1224 269 1203 q 294 1289 269 1264 q 360 1314 319 1314 q 432 1290 401 1314 q 463 1222 463 1267 z "},"":{"ha":949,"x_min":15,"x_max":929,"o":"m 151 924 q 169 990 151 964 q 216 1030 188 1015 q 278 1051 244 1044 q 344 1057 313 1057 q 447 1047 394 1057 q 549 1016 499 1036 q 644 968 599 996 q 725 904 690 940 q 772 914 749 910 q 819 918 796 918 q 856 914 836 918 q 892 901 875 910 q 919 878 908 893 q 929 843 929 864 q 919 807 929 822 q 895 781 910 792 q 863 762 881 769 q 828 747 844 754 q 884 584 867 667 q 901 413 901 501 q 866 206 901 290 q 765 72 831 122 q 608 -1 700 21 q 403 -24 515 -24 q 255 -6 325 -24 q 131 52 185 13 q 47 153 78 92 q 15 300 15 214 q 43 422 15 367 q 117 515 71 476 q 222 576 163 554 q 344 597 281 597 q 480 578 413 597 q 603 518 547 558 q 588 594 600 557 q 558 667 576 632 q 498 651 529 660 q 435 633 467 642 q 371 619 403 625 q 310 613 339 613 q 271 617 293 613 q 229 632 249 622 q 197 657 210 642 q 183 693 183 672 q 203 736 183 718 q 250 766 222 754 q 307 785 278 778 q 354 799 336 793 q 395 812 375 806 q 436 825 415 818 q 367 840 414 835 q 272 853 319 844 q 188 876 224 861 q 151 924 151 892 m 531 288 q 522 315 531 304 q 501 332 514 325 q 474 342 489 339 q 447 344 460 344 q 393 331 419 344 q 367 285 367 318 q 388 235 367 253 q 442 217 410 217 q 502 234 474 217 q 531 288 531 251 z "},"":{"ha":1021,"x_min":28,"x_max":983,"o":"m 450 142 q 431 78 450 104 q 383 34 413 51 q 320 8 354 17 q 256 0 286 0 q 169 41 211 0 q 97 158 128 82 q 47 343 65 235 q 28 586 28 451 q 35 726 28 653 q 65 860 43 799 q 128 960 88 921 q 233 1000 168 1000 q 322 986 283 1000 q 388 952 360 972 q 433 908 415 932 q 463 865 451 885 q 487 819 469 854 q 525 746 504 783 q 565 678 546 708 q 593 649 585 649 q 604 661 603 649 q 606 681 606 674 q 601 757 606 719 q 597 833 597 794 q 617 897 597 869 q 665 944 636 925 q 729 974 694 964 q 794 985 764 985 q 913 944 869 985 q 964 829 956 903 q 978 662 974 746 q 983 494 983 578 q 977 385 983 444 q 957 268 971 326 q 922 155 943 210 q 870 58 900 100 q 802 -8 840 17 q 715 -33 764 -33 q 642 -9 674 -33 q 589 52 611 15 q 551 132 567 89 q 522 212 535 175 q 497 273 508 249 q 471 297 485 297 q 463 285 467 297 q 457 251 460 272 q 452 202 454 231 q 450 142 450 174 m 743 1301 q 783 1289 767 1301 q 800 1250 800 1276 q 778 1188 800 1221 q 726 1128 757 1156 q 659 1083 694 1101 q 596 1065 624 1065 q 551 1075 571 1065 q 512 1097 531 1085 q 476 1118 493 1108 q 443 1128 460 1128 q 412 1115 428 1128 q 377 1087 396 1103 q 336 1058 358 1071 q 285 1046 314 1046 q 240 1060 258 1046 q 222 1103 222 1075 q 243 1165 222 1131 q 294 1232 264 1200 q 358 1285 324 1264 q 419 1307 393 1307 q 465 1294 444 1307 q 503 1266 486 1282 q 536 1238 521 1250 q 568 1225 551 1225 q 595 1237 576 1225 q 638 1263 614 1249 q 689 1290 661 1278 q 743 1301 717 1301 z "},"":{"ha":1076,"x_min":28,"x_max":1047,"o":"m 536 972 q 746 938 651 972 q 907 838 840 903 q 1010 679 974 772 q 1047 469 1047 586 q 1008 273 1047 367 q 899 108 968 179 q 739 -4 831 38 q 543 -46 647 -46 q 342 -11 436 -46 q 178 88 249 24 q 68 242 108 151 q 28 442 28 332 q 65 650 28 553 q 168 819 101 747 q 328 931 235 890 q 536 972 422 972 m 415 388 q 448 294 415 329 q 529 258 481 258 q 580 272 556 258 q 623 306 604 285 q 653 353 642 326 q 664 404 664 379 q 653 448 664 428 q 624 483 642 468 q 583 506 606 497 q 540 515 561 515 q 451 481 488 515 q 415 388 415 446 m 360 1228 q 372 1270 360 1253 q 402 1298 383 1288 q 443 1313 421 1308 q 486 1318 465 1318 q 522 1315 510 1318 q 553 1294 535 1311 q 571 1270 557 1290 q 603 1223 585 1250 q 642 1164 622 1196 q 679 1105 663 1132 q 707 1059 696 1078 q 718 1038 718 1040 q 710 1018 718 1026 q 690 1005 701 1010 q 666 997 679 1000 q 644 994 653 994 q 564 1018 613 994 q 470 1077 515 1042 q 392 1153 425 1113 q 360 1228 360 1194 z "},"":{"ha":1076,"x_min":28,"x_max":1047,"o":"m 536 972 q 746 938 651 972 q 907 838 840 903 q 1010 679 974 772 q 1047 469 1047 586 q 1008 273 1047 367 q 899 108 968 179 q 739 -4 831 38 q 543 -46 647 -46 q 342 -11 436 -46 q 178 88 249 24 q 68 242 108 151 q 28 442 28 332 q 57 628 28 540 q 140 785 86 717 q 269 901 193 854 q 438 964 344 947 q 403 984 417 968 q 389 1022 389 1000 q 397 1052 389 1031 q 418 1101 406 1074 q 446 1160 431 1129 q 476 1219 461 1192 q 503 1267 490 1247 q 521 1294 515 1288 q 549 1315 536 1310 q 582 1319 561 1319 q 660 1285 632 1319 q 689 1201 689 1250 q 667 1131 689 1167 q 613 1065 644 1096 q 544 1008 581 1033 q 479 969 507 983 q 507 972 493 971 q 536 972 521 972 m 415 388 q 448 294 415 329 q 529 258 481 258 q 580 272 556 258 q 623 306 604 285 q 653 353 642 326 q 664 404 664 379 q 653 448 664 428 q 624 483 642 468 q 583 506 606 497 q 540 515 561 515 q 451 481 488 515 q 415 388 415 446 z "},"":{"ha":1076,"x_min":28,"x_max":1047,"o":"m 536 972 q 746 938 651 972 q 907 838 840 903 q 1010 679 974 772 q 1047 469 1047 586 q 1008 273 1047 367 q 899 108 968 179 q 739 -4 831 38 q 543 -46 647 -46 q 342 -11 436 -46 q 178 88 249 24 q 68 242 108 151 q 28 442 28 332 q 65 650 28 553 q 168 819 101 747 q 328 931 235 890 q 536 972 422 972 m 415 388 q 448 294 415 329 q 529 258 481 258 q 580 272 556 258 q 623 306 604 285 q 653 353 642 326 q 664 404 664 379 q 653 448 664 428 q 624 483 642 468 q 583 506 606 497 q 540 515 561 515 q 451 481 488 515 q 415 388 415 446 m 547 1163 q 521 1137 533 1157 q 490 1094 508 1117 q 446 1054 472 1072 q 375 1036 419 1036 q 345 1039 361 1036 q 315 1049 329 1042 q 290 1068 300 1057 q 281 1096 281 1079 q 285 1114 281 1106 q 294 1129 289 1122 q 343 1194 317 1161 q 400 1255 369 1228 q 467 1299 431 1282 q 547 1317 504 1317 q 622 1298 579 1317 q 704 1250 665 1279 q 769 1185 743 1221 q 796 1114 796 1149 q 773 1064 796 1082 q 719 1046 750 1046 q 670 1057 694 1046 q 623 1085 646 1068 q 581 1124 600 1103 q 547 1163 561 1144 z "},"":{"ha":1076,"x_min":28,"x_max":1047,"o":"m 536 972 q 746 938 651 972 q 907 838 840 903 q 1010 679 974 772 q 1047 469 1047 586 q 1008 273 1047 367 q 899 108 968 179 q 739 -4 831 38 q 543 -46 647 -46 q 342 -11 436 -46 q 178 88 249 24 q 68 242 108 151 q 28 442 28 332 q 65 650 28 553 q 168 819 101 747 q 328 931 235 890 q 536 972 422 972 m 415 388 q 448 294 415 329 q 529 258 481 258 q 580 272 556 258 q 623 306 604 285 q 653 353 642 326 q 664 404 664 379 q 653 448 664 428 q 624 483 642 468 q 583 506 606 497 q 540 515 561 515 q 451 481 488 515 q 415 388 415 446 m 771 1301 q 811 1289 794 1301 q 828 1250 828 1276 q 806 1188 828 1221 q 753 1128 785 1156 q 687 1083 722 1101 q 624 1065 651 1065 q 578 1075 599 1065 q 540 1097 558 1085 q 504 1118 521 1108 q 471 1128 488 1128 q 440 1115 456 1128 q 405 1087 424 1103 q 364 1058 386 1071 q 313 1046 342 1046 q 268 1060 286 1046 q 250 1103 250 1075 q 271 1165 250 1131 q 322 1232 292 1200 q 386 1285 351 1264 q 447 1307 421 1307 q 493 1294 472 1307 q 531 1266 514 1282 q 564 1238 549 1250 q 596 1225 579 1225 q 623 1237 604 1225 q 665 1263 642 1249 q 717 1290 689 1278 q 771 1301 744 1301 z "},"":{"ha":1076,"x_min":28,"x_max":1047,"o":"m 536 972 q 746 938 651 972 q 907 838 840 903 q 1010 679 974 772 q 1047 469 1047 586 q 1008 273 1047 367 q 899 108 968 179 q 739 -4 831 38 q 543 -46 647 -46 q 342 -11 436 -46 q 178 88 249 24 q 68 242 108 151 q 28 442 28 332 q 65 650 28 553 q 168 819 101 747 q 328 931 235 890 q 536 972 422 972 m 415 388 q 448 294 415 329 q 529 258 481 258 q 580 272 556 258 q 623 306 604 285 q 653 353 642 326 q 664 404 664 379 q 653 448 664 428 q 624 483 642 468 q 583 506 606 497 q 540 515 561 515 q 451 481 488 515 q 415 388 415 446 m 525 1222 q 516 1191 525 1204 q 493 1169 507 1178 q 462 1155 479 1160 q 429 1150 444 1150 q 363 1165 393 1150 q 332 1224 332 1181 q 356 1289 332 1264 q 421 1314 381 1314 q 494 1290 463 1314 q 525 1222 525 1267 m 746 1222 q 737 1191 746 1204 q 714 1169 728 1178 q 683 1155 700 1160 q 651 1150 667 1150 q 615 1153 633 1150 q 583 1165 597 1157 q 561 1188 569 1174 q 553 1224 553 1203 q 578 1289 553 1264 q 643 1314 603 1314 q 715 1290 685 1314 q 746 1222 746 1267 z "},"":{"ha":622,"x_min":18,"x_max":603,"o":"m 433 763 q 422 719 433 738 q 391 686 410 700 q 350 665 372 672 q 306 658 328 658 q 215 681 253 658 q 176 764 176 704 q 207 859 176 821 q 297 897 238 897 q 397 861 360 897 q 433 763 433 825 m 18 467 q 50 535 18 513 q 126 565 82 557 q 218 571 171 572 q 296 569 265 569 q 390 571 343 569 q 483 572 436 572 q 527 565 506 572 q 565 542 549 557 q 592 508 582 528 q 603 464 603 488 q 582 407 603 426 q 531 379 561 388 q 468 370 501 371 q 408 369 435 369 q 308 368 358 369 q 210 367 258 367 q 153 369 186 367 q 90 383 119 372 q 39 413 60 393 q 18 467 18 433 m 168 192 q 180 235 168 217 q 210 268 192 254 q 251 289 229 282 q 296 296 274 296 q 388 272 350 296 q 425 188 425 249 q 394 94 425 132 q 304 57 363 57 q 205 93 242 57 q 168 192 168 129 z "},"":{"ha":1076,"x_min":28,"x_max":1047,"o":"m 536 972 q 593 969 565 972 q 649 963 621 967 q 704 1026 669 999 q 783 1054 739 1054 q 854 1026 824 1054 q 885 958 885 999 q 881 934 885 946 q 872 911 878 922 q 865 894 868 903 q 857 878 861 886 q 997 710 947 813 q 1047 469 1047 607 q 1008 273 1047 367 q 899 108 968 179 q 739 -4 831 38 q 543 -46 647 -46 q 426 -35 486 -46 q 362 -97 397 -72 q 282 -122 326 -122 q 215 -98 242 -122 q 188 -32 188 -74 q 197 5 188 -17 q 222 53 207 26 q 81 216 133 117 q 28 442 28 315 q 65 650 28 553 q 168 819 101 747 q 328 931 235 890 q 536 972 422 972 m 415 388 q 448 294 415 329 q 529 258 481 258 q 580 272 556 258 q 623 306 604 285 q 653 353 642 326 q 664 404 664 379 q 653 448 664 428 q 624 483 642 468 q 583 506 606 497 q 540 515 561 515 q 451 481 488 515 q 415 388 415 446 z "},"":{"ha":933,"x_min":26,"x_max":903,"o":"m 472 -4 q 329 15 392 -4 q 200 81 267 35 q 113 167 147 118 q 60 273 79 217 q 33 390 40 329 q 26 513 26 451 q 35 674 26 592 q 61 835 43 756 q 90 892 69 868 q 137 933 110 917 q 197 956 164 949 q 260 964 229 964 q 358 945 318 964 q 420 893 397 926 q 453 815 443 860 q 463 718 463 771 q 459 626 463 676 q 451 524 456 576 q 444 421 447 471 q 440 329 440 371 q 442 296 440 317 q 448 256 443 275 q 463 222 453 236 q 492 207 474 207 q 509 215 503 207 q 519 233 515 222 q 525 255 524 243 q 526 274 526 267 q 525 344 526 304 q 523 428 524 385 q 521 511 522 471 q 519 582 519 551 q 523 697 519 636 q 544 808 526 757 q 602 892 563 858 q 714 926 642 926 q 790 911 754 926 q 849 860 826 896 q 876 792 865 833 q 892 706 886 751 q 901 617 899 661 q 903 542 903 574 q 893 399 903 471 q 863 257 883 326 q 804 137 842 186 q 717 56 767 88 q 605 10 667 25 q 472 -4 543 -4 m 288 1228 q 299 1270 288 1253 q 330 1298 311 1288 q 371 1313 349 1308 q 414 1318 393 1318 q 450 1315 438 1318 q 481 1294 463 1311 q 499 1270 485 1290 q 531 1223 513 1250 q 570 1164 550 1196 q 607 1105 590 1132 q 635 1059 624 1078 q 646 1038 646 1040 q 638 1018 646 1026 q 618 1005 629 1010 q 594 997 607 1000 q 572 994 581 994 q 492 1018 540 994 q 398 1077 443 1042 q 320 1153 353 1113 q 288 1228 288 1194 z "},"":{"ha":933,"x_min":26,"x_max":903,"o":"m 472 -4 q 329 15 392 -4 q 200 81 267 35 q 113 167 147 118 q 60 273 79 217 q 33 390 40 329 q 26 513 26 451 q 35 674 26 592 q 61 835 43 756 q 90 892 69 868 q 137 933 110 917 q 197 956 164 949 q 260 964 229 964 q 358 945 318 964 q 420 893 397 926 q 453 815 443 860 q 463 718 463 771 q 459 626 463 676 q 451 524 456 576 q 444 421 447 471 q 440 329 440 371 q 442 296 440 317 q 448 256 443 275 q 463 222 453 236 q 492 207 474 207 q 509 215 503 207 q 519 233 515 222 q 525 255 524 243 q 526 274 526 267 q 525 344 526 304 q 523 428 524 385 q 521 511 522 471 q 519 582 519 551 q 523 697 519 636 q 544 808 526 757 q 602 892 563 858 q 714 926 642 926 q 790 911 754 926 q 849 860 826 896 q 876 792 865 833 q 892 706 886 751 q 901 617 899 661 q 903 542 903 574 q 893 399 903 471 q 863 257 883 326 q 804 137 842 186 q 717 56 767 88 q 605 10 667 25 q 472 -4 543 -4 m 378 963 q 335 980 353 963 q 317 1022 317 997 q 325 1052 317 1031 q 346 1101 333 1074 q 374 1160 358 1129 q 403 1219 389 1192 q 431 1267 418 1247 q 449 1294 443 1288 q 476 1315 464 1310 q 510 1319 489 1319 q 588 1285 560 1319 q 617 1201 617 1250 q 595 1133 617 1167 q 542 1068 574 1099 q 476 1013 511 1038 q 413 972 440 988 q 396 965 403 967 q 378 963 389 963 z "},"":{"ha":933,"x_min":26,"x_max":903,"o":"m 472 -4 q 329 15 392 -4 q 200 81 267 35 q 113 167 147 118 q 60 273 79 217 q 33 390 40 329 q 26 513 26 451 q 35 674 26 592 q 61 835 43 756 q 90 892 69 868 q 137 933 110 917 q 197 956 164 949 q 260 964 229 964 q 358 945 318 964 q 420 893 397 926 q 453 815 443 860 q 463 718 463 771 q 459 626 463 676 q 451 524 456 576 q 444 421 447 471 q 440 329 440 371 q 442 296 440 317 q 448 256 443 275 q 463 222 453 236 q 492 207 474 207 q 509 215 503 207 q 519 233 515 222 q 525 255 524 243 q 526 274 526 267 q 525 344 526 304 q 523 428 524 385 q 521 511 522 471 q 519 582 519 551 q 523 697 519 636 q 544 808 526 757 q 602 892 563 858 q 714 926 642 926 q 790 911 754 926 q 849 860 826 896 q 876 792 865 833 q 892 706 886 751 q 901 617 899 661 q 903 542 903 574 q 893 399 903 471 q 863 257 883 326 q 804 137 842 186 q 717 56 767 88 q 605 10 667 25 q 472 -4 543 -4 m 476 1163 q 450 1137 463 1157 q 419 1094 438 1117 q 375 1054 401 1072 q 304 1036 349 1036 q 274 1039 290 1036 q 244 1049 258 1042 q 219 1068 229 1057 q 210 1096 210 1079 q 214 1114 210 1106 q 224 1129 218 1122 q 272 1194 246 1161 q 329 1255 299 1228 q 397 1299 360 1282 q 476 1317 433 1317 q 551 1298 508 1317 q 633 1250 594 1279 q 699 1185 672 1221 q 725 1114 725 1149 q 702 1064 725 1082 q 649 1046 679 1046 q 599 1057 624 1046 q 552 1085 575 1068 q 510 1124 529 1103 q 476 1163 490 1144 z "},"":{"ha":933,"x_min":26,"x_max":903,"o":"m 472 -4 q 329 15 392 -4 q 200 81 267 35 q 113 167 147 118 q 60 273 79 217 q 33 390 40 329 q 26 513 26 451 q 35 674 26 592 q 61 835 43 756 q 90 892 69 868 q 137 933 110 917 q 197 956 164 949 q 260 964 229 964 q 358 945 318 964 q 420 893 397 926 q 453 815 443 860 q 463 718 463 771 q 459 626 463 676 q 451 524 456 576 q 444 421 447 471 q 440 329 440 371 q 442 296 440 317 q 448 256 443 275 q 463 222 453 236 q 492 207 474 207 q 509 215 503 207 q 519 233 515 222 q 525 255 524 243 q 526 274 526 267 q 525 344 526 304 q 523 428 524 385 q 521 511 522 471 q 519 582 519 551 q 523 697 519 636 q 544 808 526 757 q 602 892 563 858 q 714 926 642 926 q 790 911 754 926 q 849 860 826 896 q 876 792 865 833 q 892 706 886 751 q 901 617 899 661 q 903 542 903 574 q 893 399 903 471 q 863 257 883 326 q 804 137 842 186 q 717 56 767 88 q 605 10 667 25 q 472 -4 543 -4 m 453 1222 q 444 1191 453 1204 q 421 1169 435 1178 q 390 1155 407 1160 q 357 1150 372 1150 q 290 1165 321 1150 q 260 1224 260 1181 q 284 1289 260 1264 q 349 1314 308 1314 q 422 1290 390 1314 q 453 1222 453 1267 m 674 1222 q 665 1191 674 1204 q 642 1169 656 1178 q 611 1155 628 1160 q 579 1150 594 1150 q 543 1153 561 1150 q 511 1165 525 1157 q 489 1188 497 1174 q 481 1224 481 1203 q 506 1289 481 1264 q 571 1314 531 1314 q 643 1290 613 1314 q 674 1222 674 1267 z "},"":{"ha":1021,"x_min":7,"x_max":1014,"o":"m 779 994 q 871 984 828 994 q 946 951 914 974 q 996 894 978 929 q 1014 813 1014 860 q 989 672 1014 732 q 926 565 964 613 q 845 478 889 518 q 764 398 801 439 q 701 310 726 357 q 676 201 676 264 q 666 108 676 150 q 634 35 656 65 q 578 -12 613 4 q 497 -29 544 -29 q 416 -11 450 -29 q 360 39 382 7 q 327 115 338 71 q 317 213 317 160 q 294 314 317 271 q 236 395 271 357 q 162 471 201 433 q 88 556 122 508 q 30 665 53 603 q 7 813 7 726 q 30 891 7 856 q 88 951 53 926 q 165 990 124 976 q 246 1003 207 1003 q 326 997 294 1003 q 380 977 358 992 q 416 938 401 963 q 443 875 431 914 q 459 826 451 851 q 474 776 467 801 q 479 752 475 771 q 489 714 483 733 q 500 678 494 694 q 510 663 506 663 q 519 674 517 663 q 524 689 522 685 q 554 793 536 739 q 601 892 572 847 q 674 966 631 938 q 779 994 717 994 m 422 963 q 379 980 397 963 q 361 1022 361 997 q 369 1052 361 1031 q 390 1101 378 1074 q 418 1160 403 1129 q 448 1219 433 1192 q 475 1267 463 1247 q 493 1294 488 1288 q 521 1315 508 1310 q 554 1319 533 1319 q 633 1285 604 1319 q 661 1201 661 1250 q 640 1133 661 1167 q 587 1068 618 1099 q 520 1013 556 1038 q 457 972 485 988 q 440 965 447 967 q 422 963 433 963 z "},"":{"ha":947,"x_min":15,"x_max":925,"o":"m 15 493 q 31 702 15 607 q 78 866 46 797 q 161 974 110 935 q 285 1013 213 1013 q 392 985 356 1013 q 436 922 428 958 q 444 878 442 900 q 449 839 447 856 q 455 812 451 822 q 464 801 458 801 q 480 813 471 801 q 507 839 489 825 q 555 865 525 853 q 632 876 585 876 q 735 860 683 876 q 830 809 788 843 q 899 724 872 775 q 925 607 925 674 q 892 412 925 488 q 797 292 858 336 q 650 233 736 249 q 458 217 564 217 q 439 215 451 217 q 424 206 426 213 q 418 166 417 189 q 421 119 419 143 q 420 73 422 96 q 404 35 418 50 q 350 0 381 10 q 286 -10 319 -10 q 187 16 229 -10 q 115 83 144 42 q 65 177 85 124 q 35 287 46 231 q 19 397 24 343 q 15 493 15 450 m 446 492 q 451 466 446 479 q 465 442 456 453 q 490 423 475 431 q 524 415 504 415 q 567 426 550 415 q 593 455 583 438 q 607 493 603 472 q 611 535 611 514 q 608 566 611 550 q 595 596 604 582 q 570 619 586 610 q 528 628 554 628 q 485 617 501 628 q 460 587 469 606 q 449 543 451 568 q 446 492 446 518 z "},"":{"ha":1021,"x_min":7,"x_max":1014,"o":"m 779 994 q 871 984 828 994 q 946 951 914 974 q 996 894 978 929 q 1014 813 1014 860 q 989 672 1014 732 q 926 565 964 613 q 845 478 889 518 q 764 398 801 439 q 701 310 726 357 q 676 201 676 264 q 666 108 676 150 q 634 35 656 65 q 578 -12 613 4 q 497 -29 544 -29 q 416 -11 450 -29 q 360 39 382 7 q 327 115 338 71 q 317 213 317 160 q 294 314 317 271 q 236 395 271 357 q 162 471 201 433 q 88 556 122 508 q 30 665 53 603 q 7 813 7 726 q 30 891 7 856 q 88 951 53 926 q 165 990 124 976 q 246 1003 207 1003 q 326 997 294 1003 q 380 977 358 992 q 416 938 401 963 q 443 875 431 914 q 459 826 451 851 q 474 776 467 801 q 479 752 475 771 q 489 714 483 733 q 500 678 494 694 q 510 663 506 663 q 519 674 517 663 q 524 689 522 685 q 554 793 536 739 q 601 892 572 847 q 674 966 631 938 q 779 994 717 994 m 497 1222 q 488 1191 497 1204 q 465 1169 479 1178 q 434 1155 451 1160 q 401 1150 417 1150 q 335 1165 365 1150 q 304 1224 304 1181 q 328 1289 304 1264 q 393 1314 353 1314 q 466 1290 435 1314 q 497 1222 497 1267 m 718 1222 q 709 1191 718 1204 q 686 1169 700 1178 q 656 1155 672 1160 q 624 1150 639 1150 q 588 1153 606 1150 q 556 1165 569 1157 q 533 1188 542 1174 q 525 1224 525 1203 q 550 1289 525 1264 q 615 1314 575 1314 q 688 1290 657 1314 q 718 1222 718 1267 z "},"":{"ha":957,"x_min":-75,"x_max":936,"o":"m 114 932 q 160 960 135 949 q 212 976 185 971 q 267 984 239 982 q 319 986 294 986 q 447 978 383 986 q 572 947 511 969 q 709 876 643 921 q 825 772 775 832 q 906 641 875 713 q 936 490 936 569 q 858 191 936 319 q 617 1 781 63 q 528 -24 574 -14 q 438 -33 483 -33 q 263 -23 332 -33 q 149 22 193 -12 q 82 122 106 57 q 43 296 58 186 q -40 340 -6 311 q -75 418 -75 368 q -45 488 -75 463 q 28 525 -15 514 q 30 622 28 563 q 40 741 32 681 q 66 854 49 801 q 114 932 83 907 m 421 304 q 444 267 431 282 q 476 251 457 251 q 530 265 506 251 q 571 301 554 279 q 597 349 588 322 q 607 403 607 376 q 599 460 607 432 q 574 513 590 489 q 533 551 557 536 q 476 565 508 565 q 438 551 453 565 q 414 514 422 536 q 467 476 446 500 q 489 413 489 451 q 470 346 489 372 q 421 304 451 319 z "},"":{"ha":957,"x_min":-75,"x_max":936,"o":"m 114 932 q 160 960 135 949 q 212 976 185 971 q 267 984 239 982 q 319 986 294 986 q 447 978 383 986 q 572 947 511 969 q 709 876 643 921 q 825 772 775 832 q 906 641 875 713 q 936 490 936 569 q 858 191 936 319 q 617 1 781 63 q 528 -24 574 -14 q 438 -33 483 -33 q 263 -23 332 -33 q 149 22 193 -12 q 82 122 106 57 q 43 296 58 186 q -40 340 -6 311 q -75 418 -75 368 q -45 488 -75 463 q 28 525 -15 514 q 30 622 28 563 q 40 741 32 681 q 66 854 49 801 q 114 932 83 907 m 421 304 q 444 267 431 282 q 476 251 457 251 q 530 265 506 251 q 571 301 554 279 q 597 349 588 322 q 607 403 607 376 q 599 460 607 432 q 574 513 590 489 q 533 551 557 536 q 476 565 508 565 q 438 551 453 565 q 414 514 422 536 q 467 476 446 500 q 489 413 489 451 q 470 346 489 372 q 421 304 451 319 z "},"":{"ha":510,"x_min":17,"x_max":486,"o":"m 272 -4 q 200 1 232 -4 q 136 35 168 7 q 82 110 104 63 q 47 217 60 158 q 27 340 33 275 q 19 468 21 406 q 17 587 17 531 q 17 685 17 643 q 37 807 17 757 q 94 888 57 857 q 185 934 132 919 q 307 949 239 949 q 438 912 390 949 q 486 788 486 875 q 476 625 486 707 q 456 463 465 543 q 438 303 446 383 q 411 143 429 222 q 396 88 406 114 q 370 40 386 61 q 331 8 354 19 q 272 -4 307 -4 z "},"":{"ha":733,"x_min":-26,"x_max":726,"o":"m -21 299 q -25 317 -24 307 q -26 338 -26 328 q -8 388 -24 368 q 32 419 8 407 q 30 475 31 447 q 29 532 29 503 q 37 699 29 611 q 74 860 44 786 q 164 983 104 935 q 328 1031 224 1031 q 459 978 413 1031 q 506 843 506 925 q 499 786 506 814 q 485 731 493 758 q 467 676 476 704 q 453 621 458 649 q 450 606 451 614 q 447 590 449 597 q 508 583 479 593 q 551 539 538 572 q 559 481 565 508 q 535 430 553 453 q 490 389 517 407 q 439 358 464 371 q 458 309 444 331 q 503 288 472 288 q 547 297 526 288 q 592 306 568 306 q 647 286 622 306 q 690 238 672 267 q 717 178 707 210 q 726 119 726 146 q 697 48 726 76 q 624 3 667 19 q 535 -20 581 -14 q 456 -26 489 -26 q 293 -8 361 -26 q 178 45 225 11 q 102 128 131 79 q 57 239 74 178 q 12 257 32 243 q -21 299 -8 271 z "},"":{"ha":733,"x_min":-26,"x_max":726,"o":"m -21 299 q -25 317 -24 307 q -26 338 -26 328 q -8 388 -24 368 q 32 419 8 407 q 30 475 31 447 q 29 532 29 503 q 37 699 29 611 q 74 860 44 786 q 164 983 104 935 q 328 1031 224 1031 q 459 978 413 1031 q 506 843 506 925 q 499 786 506 814 q 485 731 493 758 q 467 676 476 704 q 453 621 458 649 q 450 606 451 614 q 447 590 449 597 q 508 583 479 593 q 551 539 538 572 q 559 481 565 508 q 535 430 553 453 q 490 389 517 407 q 439 358 464 371 q 458 309 444 331 q 503 288 472 288 q 547 297 526 288 q 592 306 568 306 q 647 286 622 306 q 690 238 672 267 q 717 178 707 210 q 726 119 726 146 q 697 48 726 76 q 624 3 667 19 q 535 -20 581 -14 q 456 -26 489 -26 q 293 -8 361 -26 q 178 45 225 11 q 102 128 131 79 q 57 239 74 178 q 12 257 32 243 q -21 299 -8 271 z "},"":{"ha":1583,"x_min":28,"x_max":1556,"o":"m 536 972 q 698 952 624 972 q 833 894 772 932 q 955 942 888 926 q 1100 958 1022 958 l 1225 958 q 1315 952 1261 958 q 1417 928 1368 946 q 1502 879 1467 910 q 1538 800 1538 849 q 1528 727 1538 763 q 1500 665 1519 692 q 1451 621 1481 638 q 1378 604 1421 604 q 1290 610 1333 604 q 1201 615 1246 615 q 1163 613 1189 615 q 1110 605 1136 611 q 1063 588 1083 599 q 1043 560 1043 578 q 1051 543 1043 550 q 1069 532 1058 536 q 1090 526 1079 528 q 1110 525 1101 525 q 1217 529 1163 525 q 1324 533 1271 533 q 1363 532 1342 533 q 1403 524 1385 531 q 1433 504 1421 518 q 1446 465 1446 490 q 1413 372 1446 394 q 1313 349 1379 349 l 1094 349 q 1076 348 1088 349 q 1055 344 1065 347 q 1038 336 1044 342 q 1031 319 1031 331 q 1051 290 1031 301 q 1099 271 1072 278 q 1153 262 1126 264 q 1194 260 1181 260 q 1314 269 1256 260 q 1432 288 1372 278 q 1447 290 1439 289 q 1463 290 1456 290 q 1511 277 1493 290 q 1539 243 1529 264 q 1552 197 1549 222 q 1556 149 1556 172 q 1551 103 1556 122 q 1528 64 1547 83 q 1461 32 1507 46 q 1363 8 1415 18 q 1260 -6 1310 -1 q 1181 -10 1210 -10 q 985 -1 1075 -10 q 826 46 894 7 q 694 -22 765 3 q 543 -46 622 -46 q 342 -11 436 -46 q 178 88 249 24 q 68 242 108 151 q 28 442 28 332 q 65 650 28 553 q 168 819 101 747 q 328 931 235 890 q 536 972 422 972 m 415 388 q 448 294 415 329 q 529 258 481 258 q 579 271 556 258 q 622 303 603 283 q 651 349 640 324 q 664 399 663 374 q 662 414 663 406 q 660 429 661 422 q 642 463 654 447 q 613 490 629 479 q 577 508 596 501 q 540 515 558 515 q 451 481 488 515 q 415 388 415 446 z "},"":{"ha":1583,"x_min":28,"x_max":1556,"o":"m 536 972 q 698 952 624 972 q 833 894 772 932 q 955 942 888 926 q 1100 958 1022 958 l 1225 958 q 1315 952 1261 958 q 1417 928 1368 946 q 1502 879 1467 910 q 1538 800 1538 849 q 1528 727 1538 763 q 1500 665 1519 692 q 1451 621 1481 638 q 1378 604 1421 604 q 1290 610 1333 604 q 1201 615 1246 615 q 1163 613 1189 615 q 1110 605 1136 611 q 1063 588 1083 599 q 1043 560 1043 578 q 1051 543 1043 550 q 1069 532 1058 536 q 1090 526 1079 528 q 1110 525 1101 525 q 1217 529 1163 525 q 1324 533 1271 533 q 1363 532 1342 533 q 1403 524 1385 531 q 1433 504 1421 518 q 1446 465 1446 490 q 1413 372 1446 394 q 1313 349 1379 349 l 1094 349 q 1076 348 1088 349 q 1055 344 1065 347 q 1038 336 1044 342 q 1031 319 1031 331 q 1051 290 1031 301 q 1099 271 1072 278 q 1153 262 1126 264 q 1194 260 1181 260 q 1314 269 1256 260 q 1432 288 1372 278 q 1447 290 1439 289 q 1463 290 1456 290 q 1511 277 1493 290 q 1539 243 1529 264 q 1552 197 1549 222 q 1556 149 1556 172 q 1551 103 1556 122 q 1528 64 1547 83 q 1461 32 1507 46 q 1363 8 1415 18 q 1260 -6 1310 -1 q 1181 -10 1210 -10 q 985 -1 1075 -10 q 826 46 894 7 q 694 -22 765 3 q 543 -46 622 -46 q 342 -11 436 -46 q 178 88 249 24 q 68 242 108 151 q 28 442 28 332 q 65 650 28 553 q 168 819 101 747 q 328 931 235 890 q 536 972 422 972 m 415 388 q 448 294 415 329 q 529 258 481 258 q 579 271 556 258 q 622 303 603 283 q 651 349 640 324 q 664 399 663 374 q 662 414 663 406 q 660 429 661 422 q 642 463 654 447 q 613 490 629 479 q 577 508 596 501 q 540 515 558 515 q 451 481 488 515 q 415 388 415 446 z "},"":{"ha":861,"x_min":25,"x_max":836,"o":"m 438 203 q 469 209 453 203 q 486 235 486 215 q 453 272 486 257 q 369 303 419 286 q 261 345 319 321 q 153 408 203 369 q 69 505 103 447 q 36 649 36 563 q 64 786 36 725 q 139 890 92 847 q 249 956 186 933 q 383 979 313 979 q 563 960 471 979 q 732 899 656 942 q 803 829 781 871 q 825 733 825 788 q 814 661 825 697 q 782 596 803 625 q 731 549 761 567 q 664 531 701 531 q 582 547 624 531 q 501 581 540 563 q 428 615 463 600 q 368 631 394 631 q 349 624 357 631 q 340 604 340 617 q 377 563 340 578 q 469 534 414 547 q 588 504 524 521 q 708 458 653 488 q 799 382 763 429 q 836 260 836 335 q 801 122 836 175 q 706 39 767 68 q 561 -1 644 10 q 381 -11 478 -11 q 267 -6 329 -11 q 151 19 206 -1 q 61 78 97 39 q 25 185 25 117 q 48 263 25 228 q 119 299 71 299 q 188 283 150 299 q 268 251 226 268 q 353 218 310 233 q 438 203 396 203 m 613 1306 q 666 1288 643 1306 q 689 1238 689 1269 q 663 1167 689 1203 q 597 1101 636 1131 q 515 1053 558 1072 q 440 1035 472 1035 q 360 1052 397 1035 q 293 1097 324 1069 q 236 1157 263 1124 q 188 1222 210 1190 q 178 1238 182 1229 q 174 1256 174 1246 q 183 1283 174 1272 q 208 1302 193 1294 q 238 1313 222 1310 q 268 1315 254 1315 q 340 1296 311 1315 q 389 1253 369 1276 q 420 1209 408 1229 q 440 1189 432 1189 q 474 1228 454 1208 q 516 1266 493 1249 q 564 1294 539 1283 q 613 1306 589 1306 z "},"":{"ha":861,"x_min":25,"x_max":836,"o":"m 438 203 q 469 209 453 203 q 486 235 486 215 q 453 272 486 257 q 369 303 419 286 q 261 345 319 321 q 153 408 203 369 q 69 505 103 447 q 36 649 36 563 q 64 786 36 725 q 139 890 92 847 q 249 956 186 933 q 383 979 313 979 q 563 960 471 979 q 732 899 656 942 q 803 829 781 871 q 825 733 825 788 q 814 661 825 697 q 782 596 803 625 q 731 549 761 567 q 664 531 701 531 q 582 547 624 531 q 501 581 540 563 q 428 615 463 600 q 368 631 394 631 q 349 624 357 631 q 340 604 340 617 q 377 563 340 578 q 469 534 414 547 q 588 504 524 521 q 708 458 653 488 q 799 382 763 429 q 836 260 836 335 q 801 122 836 175 q 706 39 767 68 q 561 -1 644 10 q 381 -11 478 -11 q 267 -6 329 -11 q 151 19 206 -1 q 61 78 97 39 q 25 185 25 117 q 48 263 25 228 q 119 299 71 299 q 188 283 150 299 q 268 251 226 268 q 353 218 310 233 q 438 203 396 203 m 613 1306 q 666 1288 643 1306 q 689 1238 689 1269 q 663 1167 689 1203 q 597 1101 636 1131 q 515 1053 558 1072 q 440 1035 472 1035 q 360 1052 397 1035 q 293 1097 324 1069 q 236 1157 263 1124 q 188 1222 210 1190 q 178 1238 182 1229 q 174 1256 174 1246 q 183 1283 174 1272 q 208 1302 193 1294 q 238 1313 222 1310 q 268 1315 254 1315 q 340 1296 311 1315 q 389 1253 369 1276 q 420 1209 408 1229 q 440 1189 432 1189 q 474 1228 454 1208 q 516 1266 493 1249 q 564 1294 539 1283 q 613 1306 589 1306 z "},"":{"ha":1021,"x_min":7,"x_max":1014,"o":"m 779 994 q 871 984 828 994 q 946 951 914 974 q 996 894 978 929 q 1014 813 1014 860 q 989 672 1014 732 q 926 565 964 613 q 845 478 889 518 q 764 398 801 439 q 701 310 726 357 q 676 201 676 264 q 666 108 676 150 q 634 35 656 65 q 578 -12 613 4 q 497 -29 544 -29 q 416 -11 450 -29 q 360 39 382 7 q 327 115 338 71 q 317 213 317 160 q 294 314 317 271 q 236 395 271 357 q 162 471 201 433 q 88 556 122 508 q 30 665 53 603 q 7 813 7 726 q 30 891 7 856 q 88 951 53 926 q 165 990 124 976 q 246 1003 207 1003 q 326 997 294 1003 q 380 977 358 992 q 416 938 401 963 q 443 875 431 914 q 459 826 451 851 q 474 776 467 801 q 479 752 475 771 q 489 714 483 733 q 500 678 494 694 q 510 663 506 663 q 519 674 517 663 q 524 689 522 685 q 554 793 536 739 q 601 892 572 847 q 674 966 631 938 q 779 994 717 994 m 497 1222 q 488 1191 497 1204 q 465 1169 479 1178 q 434 1155 451 1160 q 401 1150 417 1150 q 335 1165 365 1150 q 304 1224 304 1181 q 328 1289 304 1264 q 393 1314 353 1314 q 466 1290 435 1314 q 497 1222 497 1267 m 718 1222 q 709 1191 718 1204 q 686 1169 700 1178 q 656 1155 672 1160 q 624 1150 639 1150 q 588 1153 606 1150 q 556 1165 569 1157 q 533 1188 542 1174 q 525 1224 525 1203 q 550 1289 525 1264 q 615 1314 575 1314 q 688 1290 657 1314 q 718 1222 718 1267 z "},"":{"ha":931,"x_min":21,"x_max":924,"o":"m 328 560 q 315 571 328 569 q 294 572 301 572 q 233 565 263 572 q 171 557 203 557 q 106 579 133 557 q 59 635 78 601 q 31 706 40 668 q 21 775 21 744 q 51 889 21 850 q 130 947 82 928 q 235 969 178 965 q 349 979 293 974 q 518 988 435 988 q 631 983 572 988 q 739 960 690 979 q 819 901 788 942 q 850 789 850 861 q 826 667 850 725 q 765 554 801 608 q 685 451 728 500 q 604 356 642 401 q 574 323 590 339 q 546 288 557 307 q 558 282 550 282 q 654 292 607 282 q 750 301 701 301 q 813 293 782 301 q 869 269 844 285 q 908 229 893 253 q 924 174 924 206 q 892 77 924 111 q 812 28 860 43 q 709 9 764 13 q 608 3 654 6 q 476 -1 542 -1 q 404 0 449 -1 q 309 6 360 1 q 207 22 258 11 q 114 52 156 33 q 47 99 72 71 q 21 167 21 126 q 44 244 21 204 q 101 323 67 283 q 174 400 135 363 q 248 469 214 438 q 305 524 282 500 q 328 560 328 547 m 647 1306 q 701 1288 678 1306 q 724 1238 724 1269 q 697 1167 724 1203 q 632 1101 671 1131 q 550 1053 593 1072 q 475 1035 507 1035 q 395 1052 432 1035 q 328 1097 358 1069 q 271 1157 297 1124 q 222 1222 244 1190 q 213 1238 217 1229 q 208 1256 208 1246 q 218 1283 208 1272 q 242 1302 228 1294 q 273 1313 257 1310 q 303 1315 289 1315 q 375 1296 346 1315 q 424 1253 404 1276 q 455 1209 443 1229 q 475 1189 467 1189 q 508 1228 489 1208 q 551 1266 528 1249 q 599 1294 574 1283 q 647 1306 624 1306 z "},"":{"ha":931,"x_min":21,"x_max":924,"o":"m 328 560 q 315 571 328 569 q 294 572 301 572 q 233 565 263 572 q 171 557 203 557 q 106 579 133 557 q 59 635 78 601 q 31 706 40 668 q 21 775 21 744 q 51 889 21 850 q 130 947 82 928 q 235 969 178 965 q 349 979 293 974 q 518 988 435 988 q 631 983 572 988 q 739 960 690 979 q 819 901 788 942 q 850 789 850 861 q 826 667 850 725 q 765 554 801 608 q 685 451 728 500 q 604 356 642 401 q 574 323 590 339 q 546 288 557 307 q 558 282 550 282 q 654 292 607 282 q 750 301 701 301 q 813 293 782 301 q 869 269 844 285 q 908 229 893 253 q 924 174 924 206 q 892 77 924 111 q 812 28 860 43 q 709 9 764 13 q 608 3 654 6 q 476 -1 542 -1 q 404 0 449 -1 q 309 6 360 1 q 207 22 258 11 q 114 52 156 33 q 47 99 72 71 q 21 167 21 126 q 44 244 21 204 q 101 323 67 283 q 174 400 135 363 q 248 469 214 438 q 305 524 282 500 q 328 560 328 547 m 647 1306 q 701 1288 678 1306 q 724 1238 724 1269 q 697 1167 724 1203 q 632 1101 671 1131 q 550 1053 593 1072 q 475 1035 507 1035 q 395 1052 432 1035 q 328 1097 358 1069 q 271 1157 297 1124 q 222 1222 244 1190 q 213 1238 217 1229 q 208 1256 208 1246 q 218 1283 208 1272 q 242 1302 228 1294 q 273 1313 257 1310 q 303 1315 289 1315 q 375 1296 346 1315 q 424 1253 404 1276 q 455 1209 443 1229 q 475 1189 467 1189 q 508 1228 489 1208 q 551 1266 528 1249 q 599 1294 574 1283 q 647 1306 624 1306 z "},"":{"ha":942,"x_min":-54,"x_max":913,"o":"m 511 197 q 496 69 511 125 q 444 -26 481 13 q 347 -85 408 -65 q 193 -104 285 -104 q 112 -99 156 -104 q 31 -83 68 -94 q -30 -51 -6 -71 q -54 0 -54 -31 q -49 47 -54 26 q -26 83 -44 68 q 30 105 -7 97 q 129 113 67 113 q 181 145 168 113 q 193 231 194 178 q 184 263 193 258 q 164 268 175 268 q 113 272 138 268 q 69 285 89 276 q 38 310 50 294 q 26 347 26 325 l 26 381 q 36 428 26 411 q 60 455 46 446 q 88 466 74 464 q 113 468 103 468 q 158 483 146 468 q 167 528 169 499 q 163 548 167 536 q 156 582 160 560 q 149 639 151 604 q 146 728 146 674 q 242 944 146 867 q 536 1022 338 1022 l 586 1022 q 678 1015 622 1022 q 785 991 733 1008 q 875 942 838 974 q 913 863 913 911 q 903 787 913 825 q 875 718 894 749 q 826 668 856 688 q 753 649 796 649 q 676 654 714 649 q 599 660 638 660 q 562 653 582 660 q 524 632 542 646 q 495 596 507 618 q 483 543 483 574 q 513 492 483 506 q 604 479 542 479 q 659 477 631 479 q 712 466 688 475 q 752 440 736 457 q 768 392 768 422 l 768 358 q 749 316 768 332 q 699 292 729 300 q 633 281 669 283 q 563 279 596 279 q 547 276 557 279 q 528 265 538 274 q 514 240 519 256 q 511 197 508 224 z "},"":{"ha":553,"x_min":18,"x_max":533,"o":"m 285 885 q 258 859 271 879 q 228 817 246 839 q 183 776 210 794 q 113 758 157 758 q 83 761 99 758 q 52 772 67 764 q 28 790 38 779 q 18 818 18 801 q 22 836 18 828 q 32 851 26 844 q 81 917 54 883 q 138 977 107 950 q 205 1022 168 1004 q 285 1039 242 1039 q 360 1020 317 1039 q 442 972 403 1001 q 507 907 481 943 q 533 836 533 871 q 510 786 533 804 q 457 768 488 768 q 408 779 432 768 q 360 808 383 790 q 318 846 338 825 q 285 885 299 867 z "},"":{"ha":553,"x_min":18,"x_max":533,"o":"m 457 1028 q 510 1010 488 1028 q 533 960 533 992 q 507 889 533 925 q 442 824 481 853 q 360 776 403 794 q 285 757 317 757 q 205 774 242 757 q 138 819 168 792 q 81 879 107 846 q 32 944 54 913 q 22 960 26 951 q 18 978 18 968 q 28 1006 18 994 q 52 1024 38 1017 q 83 1035 67 1032 q 113 1038 99 1038 q 185 1018 156 1038 q 233 975 214 999 q 265 931 253 951 q 285 911 276 911 q 318 951 299 931 q 360 988 338 971 q 408 1017 383 1006 q 457 1028 433 1028 z "},"":{"ha":540,"x_min":18,"x_max":519,"o":"m 454 1038 q 500 1017 481 1038 q 519 971 519 997 q 491 896 519 932 q 422 832 463 860 q 336 788 382 804 q 256 772 290 772 q 115 818 178 772 q 24 935 53 864 q 18 963 18 947 q 40 1016 18 994 q 94 1038 63 1038 q 144 1020 126 1038 q 178 981 163 1003 q 213 942 193 960 q 265 925 232 925 q 327 942 303 925 q 371 981 351 960 q 409 1020 390 1003 q 454 1038 428 1038 z "}}}
